{
.appVersion = "1286";
DisplayStrings = (
"/one.ss02/Q.ss01/eight.full 4",
"7",
"/seven.full",
"/seven.half",
"/seven.half",
R,
"/R.ss01",
"/R.ss01",
"R/R.ss01",
"GQ/Q.ss01",
"J/J.ss01/Q.ss01 Q/R.ss01 R1/one.ss01/one.ss02",
"/comma.half",
"/quotedblleft.full",
"/quotedblright.full",
"/quoteleft.full",
"/quoteright.full",
"/quoteleft.full",
"/quotedblleft.full",
"/quotedblright.full",
"/zero.full",
"%",
"/lowquotedoubleprime.full.vert",
"/Q.full.ss01",
"/O.full",
"/Q.full",
"/Q.full.ss01",
"/Q.full.vert",
"/Q.ss01",
"/seven.full.vert.ss03",
"/seven.half",
"/seven.full.vert",
"/one.ss01",
"/one.full.vert.ss01",
"/one.full.ss01",
"/one.full.vert.ss01",
"/one.ss01",
"/one.ss02",
"/one.full.vert.ss02",
"/one.full.ss02",
"/one.half.ss02",
"/one.full",
"/one.full.ss01",
"/R.ss01",
"/R.ss01",
"/R.full.ss01",
"/R.full.vert.ss01",
"/R.ss01",
"/R.ss01",
"/R.full.ss01",
"/R.full.vert.ss01",
"/one.half.ss02",
"/one.half.ss02",
"/one.full.ss02",
"/one.ss02 24",
"/one.half.ss02",
"/one.full.ss02",
"/one.ss02",
"/backslash.full",
"/slash.full",
"/dittomark",
"",
"/iteration-kata",
"/iteration-hira"
);
classes = (
{
automatic = 1;
code = "A B C D E F G H I J K L M N O P Q R S T U V W X Y Z A.full B.full C.full D.full E.full F.full G.full H.full I.full J.full K.full L.full M.full N.full O.full P.full Q.full R.full S.full T.full U.full V.full W.full X.full Y.full Z.full A.full.vert B.full.vert C.full.vert D.full.vert E.full.vert F.full.vert G.full.vert H.full.vert I.full.vert J.full.vert K.full.vert L.full.vert M.full.vert N.full.vert O.full.vert P.full.vert Q.full.vert R.full.vert S.full.vert T.full.vert U.full.vert V.full.vert W.full.vert X.full.vert Y.full.vert Z.full.vert";
name = Uppercase;
}
);
copyright = "Copyright 2020 The ShipporiAntique Project Authors (https://github.com/fontdasu/ShipporiAntique)";
customParameters = (
{
name = localizedFamilyName;
value = "Japanese;しっぽりアンチック";
},
{
name = licenseURL;
value = "http://fontdasu.com";
},
{
name = codePageRanges;
value = (

glyphs = (
{
glyphname = .notdef;
lastChange = "2020-04-20 13:35:25 +0000";
layers = (
{
hints = (
{
horizontal = 1;
place = "{-120, 50}";
type = Stem;
},
{
horizontal = 1;
place = "{830, 50}";
type = Stem;
},
{
place = "{100, 50}";
type = Stem;
},
{
place = "{850, 50}";
type = Stem;
},
{
horizontal = 1;
place = "{789, 91}";
type = Stem;
}
);
layerId = "BE1754C0-A605-45AC-AA12-D3A1FC0C380B";
paths = (
{
closed = 1;
nodes = (
"875 -70 LINE",
"875 830 LINE",
"125 830 LINE",
"125 -70 LINE"
);
},
{
closed = 1;
nodes = (
"873 -33 LINE",
"161 822 LINE",
"126 793 LINE",
"838 -62 LINE"
);
},
{
closed = 1;
nodes = (
"873 793 LINE",
"838 822 LINE",
"126 -33 LINE",
"161 -62 LINE"
);
},
{
closed = 1;
nodes = (
"170 785 LINE",
"829 785 LINE",
"829 -25 LINE",
"170 -25 LINE"
);
}
);
vertWidth = 1000;
width = 1000;
},
{
associatedMasterId = "BE1754C0-A605-45AC-AA12-D3A1FC0C380B";
hints = (
{
horizontal = 1;
place = "{-24, 10}";
type = Stem;
},
{
horizontal = 1;
place = "{166, 10}";
type = Stem;
},
{
place = "{20, 10}";
type = Stem;
},
{
place = "{170, 10}";
type = Stem;
},
{
horizontal = 1;
place = "{157.8, 18.2}";
type = Stem;
}
);
layerId = "3FC96813-E7C5-45AC-9F0B-5DBEB42CEC4B";
name = E;
paths = (
{
closed = 1;
nodes = (
"875 -70 LINE",
"875 830 LINE",
"125 830 LINE",
"125 -70 LINE"
);
},
{
closed = 1;
nodes = (
"873 -33 LINE",
"161 822 LINE",
"126 793 LINE",
"838 -62 LINE"
);
},
{
closed = 1;
nodes = (
"873 793 LINE",
"838 822 LINE",
"126 -33 LINE",
"161 -62 LINE"
);
},
{
closed = 1;
nodes = (
"170 785 LINE",
"829 785 LINE",
"829 -25 LINE",
"170 -25 LINE"
);
}
);
vertWidth = 1000;
width = 1000;
},
{
associatedMasterId = "BE1754C0-A605-45AC-AA12-D3A1FC0C380B";
hints = (
{
horizontal = 1;
place = "{96, -40}";
type = Stem;
},
{
horizontal = 1;
place = "{-664, -40}";
type = Stem;
},
{
place = "{-80, -40}";
type = Stem;
},
{
place = "{-680, -40}";
type = Stem;
},
{
horizontal = 1;
place = "{-631.2, -72.8}";
type = Stem;
}
);
layerId = "56DC1C81-F651-46E9-87C8-388DC3C1949A";
name = "new Layer";
paths = (
{
closed = 1;
nodes = (
"875 -70 LINE",
"875 830 LINE",
"125 830 LINE",
"125 -70 LINE"
);
},
{
closed = 1;
nodes = (
"873 -33 LINE",
"161 822 LINE",
"126 793 LINE",
"838 -62 LINE"
);
},
{
closed = 1;
nodes = (
"873 793 LINE",
"838 822 LINE",
"126 -33 LINE",
"161 -62 LINE"
);
},
{
closed = 1;
nodes = (
"170 785 LINE",
"829 785 LINE",
"829 -25 LINE",
"170 -25 LINE"
);
}
);
vertWidth = 1000;
width = 1000;
},
{
associatedMasterId = "BE1754C0-A605-45AC-AA12-D3A1FC0C380B";
hints = (
{
horizontal = 1;
place = "{-96, 40}";
type = Stem;
},
{
horizontal = 1;
place = "{664, 40}";
type = Stem;
},
{
place = "{80, 40}";
type = Stem;
},
{
place = "{680, 40}";
type = Stem;
},
{
horizontal = 1;
place = "{631.2, 72.8}";
type = Stem;
}
);
layerId = "50639781-45F7-44BB-90CB-1A2425705211";
name = M;
paths = (
{
closed = 1;
nodes = (
"875 -70 LINE",
"875 830 LINE",
"125 830 LINE",
"125 -70 LINE"
);
},
{
closed = 1;
nodes = (
"873 -33 LINE",
"161 822 LINE",
"126 793 LINE",
"838 -62 LINE"
);
},
{
closed = 1;
nodes = (
"873 793 LINE",
"838 822 LINE",
"126 -33 LINE",
"161 -62 LINE"
);
},
{
closed = 1;
nodes = (
"170 785 LINE",
"829 785 LINE",
"829 -25 LINE",
"170 -25 LINE"
);
}
);
vertWidth = 1000;
width = 1000;
},
{
associatedMasterId = "BE1754C0-A605-45AC-AA12-D3A1FC0C380B";
hints = (
{
horizontal = 1;
place = "{-72, 30}";
type = Stem;
},
{
horizontal = 1;
place = "{498, 30}";
type = Stem;
},
{
place = "{60, 30}";
type = Stem;
},
{
place = "{510, 30}";
type = Stem;
},
{
horizontal = 1;
place = "{473.4, 54.6}";
type = Stem;
}
);
layerId = "8F95FC53-393D-46E7-B373-56CFCCC74A43";
name = D;
paths = (
{
closed = 1;
nodes = (
"875 -70 LINE",
"875 830 LINE",
"125 830 LINE",
"125 -70 LINE"
);
},
{
closed = 1;
nodes = (
"873 -33 LINE",
"161 822 LINE",
"126 793 LINE",
"838 -62 LINE"
);
},
{
closed = 1;
nodes = (
"873 793 LINE",
"838 822 LINE",
"126 -33 LINE",
"161 -62 LINE"
);
},
{
closed = 1;
nodes = (
"170 785 LINE",
"829 785 LINE",
"829 -25 LINE",
"170 -25 LINE"
);
}
);
vertWidth = 1000;
width = 1000;
},
{
associatedMasterId = "BE1754C0-A605-45AC-AA12-D3A1FC0C380B";
hints = (
{
horizontal = 1;
place = "{-48, 20}";
type = Stem;
},
{
horizontal = 1;
place = "{332, 20}";
type = Stem;
},
{
place = "{40, 20}";
type = Stem;
},
{
place = "{340, 20}";
type = Stem;
},
{
horizontal = 1;
place = "{315.6, 36.4}";
type = Stem;
}
);
layerId = "479F3D7D-B043-41C8-943F-3141743CF422";
name = B;
paths = (
{
closed = 1;
nodes = (
"875 -70 LINE",
"875 830 LINE",
"125 830 LINE",
"125 -70 LINE"
);
},
{
closed = 1;
nodes = (
"873 -33 LINE",
"161 822 LINE",
"126 793 LINE",
"838 -62 LINE"
);
},
{
closed = 1;
nodes = (
"873 793 LINE",
"838 822 LINE",
"126 -33 LINE",
"161 -62 LINE"
);
},
{
closed = 1;
nodes = (
"170 785 LINE",
"829 785 LINE",
"829 -25 LINE",
"170 -25 LINE"
);
}
);
vertWidth = 1000;
width = 1000;
}
);
note = .notdef;
},
{
glyphname = A;
lastChange = "2020-04-22 08:59:39 +0000";
layers = (
{
layerId = "BE1754C0-A605-45AC-AA12-D3A1FC0C380B";
paths = (
{
closed = 1;
nodes = (
"702 0 LINE",
"421 733 LINE",
"312 733 LINE",
"581 0 LINE"
);
},
{
closed = 1;
nodes = (
"121 0 LINE",
"390 733 LINE",
"281 733 LINE",
"0 0 LINE"
);
},
{
closed = 1;
nodes = (
"554 218 LINE",
"554 315 LINE",
"149 315 LINE",
"149 218 LINE"
);
}
);
width = 702;
}
);
unicode = 0041;
},
{
glyphname = B;
lastChange = "2020-04-22 08:59:58 +0000";
layers = (
{
layerId = "BE1754C0-A605-45AC-AA12-D3A1FC0C380B";
paths = (
{
closed = 1;
nodes = (
"139 0 OFFCURVE",
"436 -2 OFFCURVE",
"488 0 CURVE SMOOTH",
"699 9 OFFCURVE",
"732 129 OFFCURVE",
"732 214 CURVE SMOOTH",
"732 341 OFFCURVE",
"625 391 OFFCURVE",
"543 391 CURVE",
"543 372 LINE",
"673 372 OFFCURVE",
"712 478 OFFCURVE",
"712 543 CURVE SMOOTH",
"712 691 OFFCURVE",
"606 727 OFFCURVE",
"451 733 CURVE SMOOTH",
"397 734 OFFCURVE",
"139 733 OFFCURVE",
"139 733 CURVE",
"139 637 LINE",
"139 637 OFFCURVE",
"390 640 OFFCURVE",
"451 637 CURVE SMOOTH",
"512 633 OFFCURVE",
"593 628 OFFCURVE",
"593 532 CURVE SMOOTH",
"593 482 OFFCURVE",
"580 429 OFFCURVE",
"451 428 CURVE SMOOTH",
"322 427 OFFCURVE",
"139 428 OFFCURVE",
"139 428 CURVE",
"139 332 LINE",
"139 332 OFFCURVE",
"393 333 OFFCURVE",
"451 332 CURVE SMOOTH",
"509 331 OFFCURVE",
"612 331 OFFCURVE",
"612 214 CURVE SMOOTH",
"612 97 OFFCURVE",
"510 96 OFFCURVE",
"433 96 CURVE SMOOTH",
"139 96 LINE",
"139 0 LINE"
);
},
{
closed = 1;
nodes = (
"198 0 LINE",
"198 733 LINE",
"89 733 LINE",
"89 0 LINE"
);
}
);
width = 774;
}
);
unicode = 0042;
},
{
glyphname = C;
lastChange = "2020-04-22 09:00:20 +0000";
layers = (
{
layerId = "BE1754C0-A605-45AC-AA12-D3A1FC0C380B";
paths = (
{
closed = 1;
nodes = (
"598 -12 OFFCURVE",
"710 72 OFFCURVE",
"766 241 CURVE",
"648 257 LINE",
"617 137 OFFCURVE",
"526 88 OFFCURVE",
"421 88 CURVE SMOOTH",
"245 88 OFFCURVE",
"175 226 OFFCURVE",
"175 366 CURVE SMOOTH",
"175 506 OFFCURVE",
"245 645 OFFCURVE",
"421 645 CURVE SMOOTH",
"526 645 OFFCURVE",
"591 599 OFFCURVE",
"628 527 CURVE",
"744 556 LINE",
"689 670 OFFCURVE",
"579 744 OFFCURVE",
"421 744 CURVE SMOOTH",
"186 744 OFFCURVE",
"57 581 OFFCURVE",
"57 366 CURVE SMOOTH",
"57 151 OFFCURVE",
"186 -12 OFFCURVE",
"421 -12 CURVE SMOOTH"
);
}
);
width = 799;
}
);
unicode = 0043;
},
{
glyphname = D;
lastChange = "2020-04-22 09:00:47 +0000";
layers = (
{
layerId = "BE1754C0-A605-45AC-AA12-D3A1FC0C380B";
paths = (
{
closed = 1;
nodes = (
"147 0 OFFCURVE",
"334 -2 OFFCURVE",
"416 0 CURVE SMOOTH",
"675 6 OFFCURVE",
"736 201 OFFCURVE",
"736 366 CURVE SMOOTH",
"736 531 OFFCURVE",
"675 727 OFFCURVE",
"416 733 CURVE SMOOTH",
"334 734 OFFCURVE",
"147 733 OFFCURVE",
"147 733 CURVE",
"147 637 LINE",
"386 637 LINE SMOOTH",
"494 637 OFFCURVE",
"618 606 OFFCURVE",
"618 366 CURVE SMOOTH",
"618 127 OFFCURVE",
"494 96 OFFCURVE",
"386 96 CURVE SMOOTH",
"147 96 LINE",
"147 0 LINE"
);
},
{
closed = 1;
nodes = (
"198 0 LINE",
"198 733 LINE",
"89 733 LINE",
"89 0 LINE"
);
}
);
width = 792;
}
);
unicode = 0044;
},
{
glyphname = E;
lastChange = "2020-04-22 09:01:00 +0000";
layers = (
{
layerId = "BE1754C0-A605-45AC-AA12-D3A1FC0C380B";
paths = (
{
closed = 1;
nodes = (
"198 0 LINE",
"198 733 LINE",
"89 733 LINE",
"89 0 LINE"
);
},
{
closed = 1;
nodes = (
"662 0 LINE",
"662 96 LINE",
"126 96 LINE",
"126 0 LINE"
);
},
{
closed = 1;
nodes = (
"490 332 LINE",
"490 428 LINE",
"145 428 LINE",
"145 332 LINE"
);
},
{
closed = 1;
nodes = (
"662 637 LINE",
"662 733 LINE",
"126 733 LINE",
"126 637 LINE"
);
}
);
width = 716;
}
);
unicode = 0045;
},
{
glyphname = F;
lastChange = "2020-04-22 09:01:48 +0000";
layers = (
{
layerId = "BE1754C0-A605-45AC-AA12-D3A1FC0C380B";
paths = (
{
closed = 1;
nodes = (
"198 0 LINE",
"198 732 LINE",
"89 732 LINE",
"89 0 LINE"
);
},
{
closed = 1;
nodes = (
"489 332 LINE",
"489 428 LINE",
"145 428 LINE",
"145 332 LINE"
);
},
{
closed = 1;
nodes = (
"651 636 LINE",
"651 732 LINE",
"126 732 LINE",
"126 636 LINE"
);
}
);
width = 671;
}
);
unicode = 0046;
},
{
glyphname = G;
lastChange = "2020-04-22 09:01:27 +0000";
layers = (
{
layerId = "BE1754C0-A605-45AC-AA12-D3A1FC0C380B";
paths = (
{
closed = 1;
nodes = (
"619 -12 OFFCURVE",
"710 119 OFFCURVE",
"734 302 CURVE",
"661 302 LINE",
"642 185 OFFCURVE",
"559 87 OFFCURVE",
"420 87 CURVE SMOOTH",
"245 87 OFFCURVE",
"179 226 OFFCURVE",
"179 366 CURVE SMOOTH",
"179 507 OFFCURVE",
"245 646 OFFCURVE",
"420 646 CURVE SMOOTH",
"524 646 OFFCURVE",
"585 597 OFFCURVE",
"622 526 CURVE",
"741 560 LINE",
"685 672 OFFCURVE",
"577 745 OFFCURVE",
"420 745 CURVE SMOOTH",
"185 745 OFFCURVE",
"57 582 OFFCURVE",
"57 366 CURVE SMOOTH",
"57 151 OFFCURVE",
"185 -12 OFFCURVE",
"420 -12 CURVE SMOOTH"
);
},
{
closed = 1;
nodes = (
"710 297 LINE",
"710 393 LINE",
"406 393 LINE",
"406 297 LINE"
);
},
{
closed = 1;
nodes = (
"757 0 LINE",
"757 393 LINE",
"657 393 LINE",
"657 0 LINE"
);
}
);
width = 828;
}
);
unicode = 0047;
},
{
glyphname = H;
lastChange = "2020-04-22 09:02:15 +0000";
layers = (
{
layerId = "BE1754C0-A605-45AC-AA12-D3A1FC0C380B";
paths = (
{
closed = 1;
nodes = (
"711 0 LINE",
"711 733 LINE",
"602 733 LINE",
"602 0 LINE"
);
},
{
closed = 1;
nodes = (
"206 0 LINE",
"206 733 LINE",
"97 733 LINE",
"97 0 LINE"
);
},
{
closed = 1;
nodes = (
"645 332 LINE",
"645 428 LINE",
"162 428 LINE",
"162 332 LINE"
);
}
);
width = 807;
}
);
unicode = 0048;
},
{
glyphname = I;
lastChange = "2020-04-22 09:02:28 +0000";
layers = (
{
layerId = "BE1754C0-A605-45AC-AA12-D3A1FC0C380B";
paths = (
{
closed = 1;
nodes = (
"206 0 LINE",
"206 733 LINE",
"97 733 LINE",
"97 0 LINE"
);
}
);
width = 302;
}
);
unicode = 0049;
},
{
glyphname = J;
lastChange = "2020-05-03 15:46:44 +0000";
layers = (
{
layerId = "BE1754C0-A605-45AC-AA12-D3A1FC0C380B";
paths = (
{
closed = 1;
nodes = (
"665 392 OFFCURVE",
"662 741 OFFCURVE",
"662 741 CURVE",
"552 741 LINE",
"552 741 OFFCURVE",
"555 354 OFFCURVE",
"552 293 CURVE SMOOTH",
"549 229 OFFCURVE",
"538 185 OFFCURVE",
"509 150 CURVE SMOOTH",
"473 107 OFFCURVE",
"422 88 OFFCURVE",
"355 88 CURVE",
"258 88 OFFCURVE",
"161 159 OFFCURVE",
"134 297 CURVE",
"30 257 LINE",
"56 130 OFFCURVE",
"155 -13 OFFCURVE",
"352 -13 CURVE",
"459 -13 OFFCURVE",
"548 18 OFFCURVE",
"602 81 CURVE SMOOTH",
"638 123 OFFCURVE",
"659 179 OFFCURVE",
"661 250 CURVE SMOOTH"
);
}
);
width = 758;
}
);
unicode = 004A;
},
{
glyphname = K;
lastChange = "2020-04-22 09:02:55 +0000";
layers = (
{
layerId = "BE1754C0-A605-45AC-AA12-D3A1FC0C380B";
paths = (
{
closed = 1;
nodes = (
"710 733 LINE",
"573 733 LINE",
"180 309 LINE",
"180 170 LINE"
);
},
{
closed = 1;
nodes = (
"206 0 LINE",
"206 733 LINE",
"97 733 LINE",
"97 0 LINE"
);
},
{
closed = 1;
nodes = (
"716 0 LINE",
"382 462 LINE",
"315 382 LINE",
"588 0 LINE"
);
}
);
width = 716;
}
);
unicode = 004B;
},
{
glyphname = L;
lastChange = "2020-04-22 09:07:29 +0000";
layers = (
{
layerId = "BE1754C0-A605-45AC-AA12-D3A1FC0C380B";
paths = (
{
closed = 1;
nodes = (
"198 0 LINE",
"198 733 LINE",
"89 733 LINE",
"89 0 LINE"
);
},
{
closed = 1;
nodes = (
"691 0 LINE",
"691 97 LINE",
"145 97 LINE",
"145 0 LINE"
);
}
);
width = 721;
}
);
unicode = 004C;
},
{
glyphname = M;
lastChange = "2020-04-22 09:03:23 +0000";
layers = (
{
layerId = "BE1754C0-A605-45AC-AA12-D3A1FC0C380B";
paths = (
{
closed = 1;
nodes = (
"506 0 LINE",
"493 98 LINE",
"230 733 LINE",
"117 733 LINE",
"424 0 LINE"
);
},
{
closed = 1;
nodes = (
"191 0 LINE",
"191 733 LINE",
"87 733 LINE",
"87 0 LINE"
);
},
{
closed = 1;
nodes = (
"506 0 LINE",
"812 733 LINE",
"700 733 LINE",
"436 98 LINE",
"424 0 LINE"
);
},
{
closed = 1;
nodes = (
"842 0 LINE",
"842 733 LINE",
"738 733 LINE",
"738 0 LINE"
);
}
);
width = 922;
}
);
unicode = 004D;
},
{
glyphname = N;
lastChange = "2020-04-22 09:03:35 +0000";
layers = (
{
layerId = "BE1754C0-A605-45AC-AA12-D3A1FC0C380B";
paths = (
{
closed = 1;
nodes = (
"192 0 LINE",
"192 733 LINE",
"87 733 LINE",
"87 0 LINE"
);
},
{
closed = 1;
nodes = (
"707 0 LINE",
"707 733 LINE",
"603 733 LINE",
"603 0 LINE"
);
},
{
closed = 1;
nodes = (
"197 733 LINE",
"87 733 LINE",
"87 709 LINE",
"600 0 LINE",
"707 0 LINE",
"707 24 LINE"
);
}
);
width = 796;
}
);
unicode = 004E;
},
{
glyphname = O;
lastChange = "2020-04-22 09:03:48 +0000";
layers = (
{
layerId = "BE1754C0-A605-45AC-AA12-D3A1FC0C380B";
paths = (
{
closed = 1;
nodes = (
"649 -12 OFFCURVE",
"776 151 OFFCURVE",
"776 367 CURVE SMOOTH",
"776 582 OFFCURVE",
"649 745 OFFCURVE",
"416 745 CURVE SMOOTH",
"184 745 OFFCURVE",
"57 582 OFFCURVE",
"57 367 CURVE SMOOTH",
"57 151 OFFCURVE",
"184 -12 OFFCURVE",
"416 -12 CURVE SMOOTH"
);
},
{
closed = 1;
nodes = (
"243 87 OFFCURVE",
"173 226 OFFCURVE",
"173 367 CURVE SMOOTH",
"173 507 OFFCURVE",
"243 646 OFFCURVE",
"416 646 CURVE SMOOTH",
"590 646 OFFCURVE",
"660 507 OFFCURVE",
"660 367 CURVE SMOOTH",
"660 226 OFFCURVE",
"590 87 OFFCURVE",
"416 87 CURVE SMOOTH"
);
}
);
width = 833;
}
);
unicode = 004F;
},
{
glyphname = P;
lastChange = "2020-04-22 09:04:00 +0000";
layers = (
{
layerId = "BE1754C0-A605-45AC-AA12-D3A1FC0C380B";
paths = (
{
closed = 1;
nodes = (
"148 307 OFFCURVE",
"375 305 OFFCURVE",
"441 307 CURVE SMOOTH",
"565 310 OFFCURVE",
"673 364 OFFCURVE",
"673 520 CURVE SMOOTH",
"673 676 OFFCURVE",
"565 730 OFFCURVE",
"441 733 CURVE SMOOTH",
"375 735 OFFCURVE",
"148 733 OFFCURVE",
"148 733 CURVE",
"148 637 LINE",
"379 637 LINE SMOOTH",
"462 636 OFFCURVE",
"563 635 OFFCURVE",
"563 520 CURVE SMOOTH",
"563 405 OFFCURVE",
"462 404 OFFCURVE",
"379 403 CURVE SMOOTH",
"148 403 LINE",
"148 307 LINE"
);
},
{
closed = 1;
nodes = (
"198 0 LINE",
"198 733 LINE",
"89 733 LINE",
"89 0 LINE"
);
}
);
width = 719;
}
);
unicode = 0050;
},
{
glyphname = Q;
lastChange = "2020-05-03 21:39:15 +0000";
layers = (
{
layerId = "BE1754C0-A605-45AC-AA12-D3A1FC0C380B";
paths = (
{
closed = 1;
nodes = (
"649 -12 OFFCURVE",
"776 151 OFFCURVE",
"776 367 CURVE SMOOTH",
"776 582 OFFCURVE",
"649 745 OFFCURVE",
"417 745 CURVE SMOOTH",
"184 745 OFFCURVE",
"57 582 OFFCURVE",
"57 367 CURVE SMOOTH",
"57 151 OFFCURVE",
"184 -12 OFFCURVE",
"417 -12 CURVE SMOOTH"
);
},
{
closed = 1;
nodes = (
"822 53 LINE",
"694 95 OFFCURVE",
"664 213 OFFCURVE",
"534 247 CURVE",
"469 168 LINE",
"581 148 OFFCURVE",
"633 9 OFFCURVE",
"754 -34 CURVE"
);
},
{
closed = 1;
nodes = (
"243 87 OFFCURVE",
"173 226 OFFCURVE",
"173 367 CURVE SMOOTH",
"173 507 OFFCURVE",
"243 646 OFFCURVE",
"417 646 CURVE SMOOTH",
"590 646 OFFCURVE",
"660 507 OFFCURVE",
"660 367 CURVE SMOOTH",
"660 226 OFFCURVE",
"590 87 OFFCURVE",
"417 87 CURVE SMOOTH"
);
}
);
width = 855;
}
);
unicode = 0051;
},
{
glyphname = R;
lastChange = "2020-05-03 22:22:56 +0000";
layers = (
{
layerId = "BE1754C0-A605-45AC-AA12-D3A1FC0C380B";
paths = (
{
closed = 1;
nodes = (
"198 0 LINE",
"198 733 LINE",
"89 733 LINE",
"89 0 LINE"
);
},
{
closed = 1;
nodes = (
"725 0 LINE",
"471 377 LINE",
"342 377 LINE",
"590 0 LINE"
);
},
{
closed = 1;
nodes = (
"149 307 OFFCURVE",
"396 305 OFFCURVE",
"462 307 CURVE SMOOTH",
"586 310 OFFCURVE",
"694 364 OFFCURVE",
"694 520 CURVE SMOOTH",
"694 676 OFFCURVE",
"586 730 OFFCURVE",
"462 733 CURVE SMOOTH",
"396 735 OFFCURVE",
"149 733 OFFCURVE",
"149 733 CURVE",
"149 637 LINE",
"400 637 LINE SMOOTH",
"483 636 OFFCURVE",
"584 635 OFFCURVE",
"584 520 CURVE SMOOTH",
"584 405 OFFCURVE",
"483 404 OFFCURVE",
"400 403 CURVE SMOOTH",
"149 403 LINE",
"149 307 LINE"
);
}
);
width = 750;
}
);
unicode = 0052;
},
{
glyphname = S;
lastChange = "2020-04-22 09:04:42 +0000";
layers = (
{
layerId = "BE1754C0-A605-45AC-AA12-D3A1FC0C380B";
paths = (
{
closed = 1;
nodes = (
"345 443 OFFCURVE",
"197 458 OFFCURVE",
"197 546 CURVE",
"197 566 OFFCURVE",
"210 647 OFFCURVE",
"343 647 CURVE",
"414 647 OFFCURVE",
"476 626 OFFCURVE",
"521 564 CURVE",
"622 631 LINE",
"542 712 OFFCURVE",
"465 745 OFFCURVE",
"334 745 CURVE",
"146 745 OFFCURVE",
"79 611 OFFCURVE",
"79 537 CURVE",
"79 490 OFFCURVE",
"87 396 OFFCURVE",
"237 353 CURVE",
"363 316 OFFCURVE",
"532 297 OFFCURVE",
"538 198 CURVE",
"543 95 OFFCURVE",
"416 86 OFFCURVE",
"375 86 CURVE",
"316 86 OFFCURVE",
"194 98 OFFCURVE",
"136 216 CURVE",
"45 147 LINE",
"90 60 OFFCURVE",
"170 -12 OFFCURVE",
"368 -12 CURVE",
"610 -12 OFFCURVE",
"659 122 OFFCURVE",
"654 218 CURVE",
"649 303 OFFCURVE",
"577 374 OFFCURVE",
"478 402 CURVE"
);
}
);
width = 696;
}
);
unicode = 0053;
},
{
glyphname = T;
lastChange = "2020-04-22 09:05:00 +0000";
layers = (
{
layerId = "BE1754C0-A605-45AC-AA12-D3A1FC0C380B";
paths = (
{
closed = 1;
nodes = (
"398 0 LINE",
"398 733 LINE",
"289 733 LINE",
"289 0 LINE"
);
},
{
closed = 1;
nodes = (
"660 637 LINE",
"660 733 LINE",
"27 733 LINE",
"27 637 LINE"
);
}
);
width = 687;
}
);
unicode = 0054;
},
{
glyphname = U;
lastChange = "2020-04-22 09:07:59 +0000";
layers = (
{
layerId = "BE1754C0-A605-45AC-AA12-D3A1FC0C380B";
paths = (
{
closed = 1;
nodes = (
"596 -12 OFFCURVE",
"690 108 OFFCURVE",
"690 265 CURVE SMOOTH",
"689 733 LINE",
"581 733 LINE",
"581 733 OFFCURVE",
"582 309 OFFCURVE",
"581 274 CURVE SMOOTH",
"580 191 OFFCURVE",
"549 87 OFFCURVE",
"391 87 CURVE SMOOTH",
"234 87 OFFCURVE",
"203 191 OFFCURVE",
"202 274 CURVE SMOOTH",
"201 309 OFFCURVE",
"202 733 OFFCURVE",
"202 733 CURVE",
"94 733 LINE",
"93 265 LINE SMOOTH",
"93 108 OFFCURVE",
"187 -12 OFFCURVE",
"391 -12 CURVE SMOOTH"
);
}
);
width = 783;
}
);
unicode = 0055;
},
{
glyphname = V;
lastChange = "2020-04-22 09:05:39 +0000";
layers = (
{
layerId = "BE1754C0-A605-45AC-AA12-D3A1FC0C380B";
paths = (
{
closed = 1;
nodes = (
"385 0 LINE",
"658 733 LINE",
"549 733 LINE",
"271 0 LINE"
);
},
{
closed = 1;
nodes = (
"385 0 LINE",
"107 733 LINE",
"-2 733 LINE",
"271 0 LINE"
);
}
);
width = 658;
}
);
unicode = 0056;
},
{
glyphname = W;
lastChange = "2020-04-22 09:05:52 +0000";
layers = (
{
layerId = "BE1754C0-A605-45AC-AA12-D3A1FC0C380B";
paths = (
{
closed = 1;
nodes = (
"757 0 LINE",
"550 733 LINE",
"440 733 LINE",
"651 0 LINE"
);
},
{
closed = 1;
nodes = (
"339 0 LINE",
"132 733 LINE",
"22 733 LINE",
"233 0 LINE"
);
},
{
closed = 1;
nodes = (
"339 0 LINE",
"549 733 LINE",
"440 733 LINE",
"233 0 LINE"
);
},
{
closed = 1;
nodes = (
"757 0 LINE",
"967 733 LINE",
"858 733 LINE",
"651 0 LINE"
);
}
);
width = 989;
}
);
unicode = 0057;
},
{
glyphname = X;
lastChange = "2020-04-22 09:06:09 +0000";
layers = (
{
layerId = "BE1754C0-A605-45AC-AA12-D3A1FC0C380B";
paths = (
{
closed = 1;
nodes = (
"682 0 LINE",
"173 733 LINE",
"39 733 LINE",
"552 0 LINE"
);
},
{
closed = 1;
nodes = (
"149 0 LINE",
"658 733 LINE",
"528 733 LINE",
"16 0 LINE"
);
}
);
width = 698;
}
);
unicode = 0058;
},
{
glyphname = Y;
lastChange = "2020-04-22 09:06:21 +0000";
layers = (
{
layerId = "BE1754C0-A605-45AC-AA12-D3A1FC0C380B";
paths = (
{
closed = 1;
nodes = (
"680 733 LINE",
"550 733 LINE",
"338 430 LINE",
"338 241 LINE"
);
},
{
closed = 1;
nodes = (
"393 0 LINE",
"393 395 LINE",
"284 395 LINE",
"284 0 LINE"
);
},
{
closed = 1;
nodes = (
"338 434 LINE",
"131 733 LINE",
"-3 733 LINE",
"338 245 LINE"
);
}
);
width = 677;
}
);
unicode = 0059;
},
{
glyphname = Z;
lastChange = "2020-04-22 09:06:36 +0000";
layers = (
{
layerId = "BE1754C0-A605-45AC-AA12-D3A1FC0C380B";
paths = (
{
closed = 1;
nodes = (
"145 63 LINE",
"625 637 LINE",
"517 666 LINE",
"47 96 LINE"
);
},
{
closed = 1;
nodes = (
"638 0 LINE",
"638 96 LINE",
"47 96 LINE",
"47 0 LINE"
);
},
{
closed = 1;
nodes = (
"625 637 LINE",
"625 733 LINE",
"82 733 LINE",
"82 637 LINE"
);
}
);
width = 679;
}
);
unicode = 005A;
},
{
glyphname = A.full;
lastChange = "2020-05-01 17:47:56 +0000";
layers = (
{
anchors = (
{
name = LSB;
position = "{79, 380}";
},
{
name = RSB;
position = "{921, 380}";
}
);
layerId = "BE1754C0-A605-45AC-AA12-D3A1FC0C380B";
paths = (
{
closed = 1;
nodes = (
"851 0 LINE",
"570 733 LINE",
"461 733 LINE",
"730 0 LINE"
);
},
{
closed = 1;
nodes = (
"270 0 LINE",
"539 733 LINE",
"430 733 LINE",
"149 0 LINE"
);
},
{
closed = 1;
nodes = (
"703 218 LINE",
"703 315 LINE",
"298 315 LINE",
"298 218 LINE"
);
}
);
width = 1000;
}
);
unicode = FF21;
},
{
glyphname = B.full;
lastChange = "2020-04-23 09:20:11 +0000";
layers = (
{
anchors = (
{
name = LSB;
position = "{122, 380}";
},
{
name = RSB;
position = "{905, 380}";
}
);
layerId = "BE1754C0-A605-45AC-AA12-D3A1FC0C380B";
paths = (
{
closed = 1;
nodes = (
"242 0 OFFCURVE",
"539 -2 OFFCURVE",
"591 0 CURVE SMOOTH",
"802 8 OFFCURVE",
"835 129 OFFCURVE",
"835 214 CURVE SMOOTH",
"835 341 OFFCURVE",
"728 391 OFFCURVE",
"646 391 CURVE",
"646 372 LINE",
"776 372 OFFCURVE",
"815 478 OFFCURVE",
"815 543 CURVE SMOOTH",
"815 691 OFFCURVE",
"709 727 OFFCURVE",
"554 733 CURVE SMOOTH",
"500 735 OFFCURVE",
"242 733 OFFCURVE",
"242 733 CURVE",
"242 637 LINE",
"242 637 OFFCURVE",
"493 640 OFFCURVE",
"554 637 CURVE SMOOTH",
"615 634 OFFCURVE",
"696 628 OFFCURVE",
"696 532 CURVE SMOOTH",
"696 482 OFFCURVE",
"683 429 OFFCURVE",
"554 428 CURVE SMOOTH",
"425 427 OFFCURVE",
"242 428 OFFCURVE",
"242 428 CURVE",
"242 332 LINE",
"242 332 OFFCURVE",
"496 333 OFFCURVE",
"554 332 CURVE SMOOTH",
"612 331 OFFCURVE",
"715 331 OFFCURVE",
"715 214 CURVE SMOOTH",
"715 97 OFFCURVE",
"613 96 OFFCURVE",
"536 96 CURVE SMOOTH",
"242 96 LINE",
"242 0 LINE"
);
},
{
closed = 1;
nodes = (
"301 0 LINE",
"301 733 LINE",
"192 733 LINE",
"192 0 LINE"
);
}
);
width = 1000;
}
);
unicode = FF22;
},
{
glyphname = C.full;
lastChange = "2020-04-23 09:20:11 +0000";
layers = (
{
anchors = (
{
name = LSB;
position = "{80, 380}";
},
{
name = RSB;
position = "{929, 380}";
}
);
layerId = "BE1754C0-A605-45AC-AA12-D3A1FC0C380B";
paths = (
{
closed = 1;
nodes = (
"691 -12 OFFCURVE",
"803 72 OFFCURVE",
"859 241 CURVE",
"741 257 LINE",
"710 137 OFFCURVE",
"619 88 OFFCURVE",
"514 88 CURVE SMOOTH",
"338 88 OFFCURVE",
"268 226 OFFCURVE",
"268 366 CURVE SMOOTH",
"268 506 OFFCURVE",
"338 645 OFFCURVE",
"514 645 CURVE SMOOTH",
"619 645 OFFCURVE",
"684 599 OFFCURVE",
"721 527 CURVE",
"837 556 LINE",
"782 670 OFFCURVE",
"672 744 OFFCURVE",
"514 744 CURVE SMOOTH",
"279 744 OFFCURVE",
"150 581 OFFCURVE",
"150 366 CURVE SMOOTH",
"150 151 OFFCURVE",
"279 -12 OFFCURVE",
"514 -12 CURVE SMOOTH"
);
}
);
width = 1000;
}
);
unicode = FF23;
},
{
glyphname = D.full;
lastChange = "2020-04-23 09:20:11 +0000";
layers = (
{
anchors = (
{
name = LSB;
position = "{132, 380}";
},
{
name = RSB;
position = "{919, 380}";
}
);
layerId = "BE1754C0-A605-45AC-AA12-D3A1FC0C380B";
paths = (
{
closed = 1;
nodes = (
"260 0 OFFCURVE",
"447 -2 OFFCURVE",
"529 0 CURVE SMOOTH",
"788 6 OFFCURVE",
"849 201 OFFCURVE",
"849 366 CURVE SMOOTH",
"849 531 OFFCURVE",
"788 727 OFFCURVE",
"529 733 CURVE SMOOTH",
"447 735 OFFCURVE",
"260 733 OFFCURVE",
"260 733 CURVE",
"260 637 LINE",
"499 637 LINE SMOOTH",
"607 637 OFFCURVE",
"731 606 OFFCURVE",
"731 366 CURVE SMOOTH",
"731 127 OFFCURVE",
"607 96 OFFCURVE",
"499 96 CURVE SMOOTH",
"260 96 LINE",
"260 0 LINE"
);
},
{
closed = 1;
nodes = (
"311 0 LINE",
"311 733 LINE",
"202 733 LINE",
"202 0 LINE"
);
}
);
width = 1000;
}
);
unicode = FF24;
},
{
glyphname = E.full;
lastChange = "2020-04-23 09:20:11 +0000";
layers = (
{
anchors = (
{
name = LSB;
position = "{143, 380}";
},
{
name = RSB;
position = "{856, 380}";
}
);
layerId = "BE1754C0-A605-45AC-AA12-D3A1FC0C380B";
paths = (
{
closed = 1;
nodes = (
"322 0 LINE",
"322 733 LINE",
"213 733 LINE",
"213 0 LINE"
);
},
{
closed = 1;
nodes = (
"786 0 LINE",
"786 96 LINE",
"250 96 LINE",
"250 0 LINE"
);
},
{
closed = 1;
nodes = (
"614 332 LINE",
"614 428 LINE",
"269 428 LINE",
"269 332 LINE"
);
},
{
closed = 1;
nodes = (
"786 637 LINE",
"786 733 LINE",
"250 733 LINE",
"250 637 LINE"
);
}
);
width = 1000;
}
);
unicode = FF25;
},
{
glyphname = F.full;
lastChange = "2020-04-23 09:20:11 +0000";
layers = (
{
anchors = (
{
name = LSB;
position = "{149, 380}";
},
{
name = RSB;
position = "{851, 380}";
}
);
layerId = "BE1754C0-A605-45AC-AA12-D3A1FC0C380B";
paths = (
{
closed = 1;
nodes = (
"328 0 LINE",
"328 732 LINE",
"219 732 LINE",
"219 0 LINE"
);
},
{
closed = 1;
nodes = (
"619 332 LINE",
"619 428 LINE",
"275 428 LINE",
"275 332 LINE"
);
},
{
closed = 1;
nodes = (
"781 636 LINE",
"781 732 LINE",
"256 732 LINE",
"256 636 LINE"
);
}
);
width = 1000;
}
);
unicode = FF26;
},
{
glyphname = G.full;
lastChange = "2020-04-23 09:20:11 +0000";
layers = (
{
anchors = (
{
name = LSB;
position = "{70, 380}";
},
{
name = RSB;
position = "{910, 380}";
}
);
layerId = "BE1754C0-A605-45AC-AA12-D3A1FC0C380B";
paths = (
{
closed = 1;
nodes = (
"702 -12 OFFCURVE",
"793 119 OFFCURVE",
"817 302 CURVE",
"744 302 LINE",
"725 185 OFFCURVE",
"642 87 OFFCURVE",
"503 87 CURVE SMOOTH",
"328 87 OFFCURVE",
"262 226 OFFCURVE",
"262 366 CURVE SMOOTH",
"262 507 OFFCURVE",
"328 646 OFFCURVE",
"503 646 CURVE SMOOTH",
"607 646 OFFCURVE",
"668 597 OFFCURVE",
"705 526 CURVE",
"824 560 LINE",
"768 672 OFFCURVE",
"660 745 OFFCURVE",
"503 745 CURVE SMOOTH",
"268 745 OFFCURVE",
"140 582 OFFCURVE",
"140 366 CURVE SMOOTH",
"140 151 OFFCURVE",
"268 -12 OFFCURVE",
"503 -12 CURVE SMOOTH"
);
},
{
closed = 1;
nodes = (
"793 297 LINE",
"793 393 LINE",
"489 393 LINE",
"489 297 LINE"
);
},
{
closed = 1;
nodes = (
"840 0 LINE",
"840 393 LINE",
"740 393 LINE",
"740 0 LINE"
);
}
);
width = 1000;
}
);
unicode = FF27;
},
{
glyphname = H.full;
lastChange = "2020-04-23 09:20:11 +0000";
layers = (
{
anchors = (
{
name = LSB;
position = "{123, 380}";
},
{
name = RSB;
position = "{877, 380}";
}
);
layerId = "BE1754C0-A605-45AC-AA12-D3A1FC0C380B";
paths = (
{
closed = 1;
nodes = (
"807 0 LINE",
"807 733 LINE",
"698 733 LINE",
"698 0 LINE"
);
},
{
closed = 1;
nodes = (
"302 0 LINE",
"302 733 LINE",
"193 733 LINE",
"193 0 LINE"
);
},
{
closed = 1;
nodes = (
"741 332 LINE",
"741 428 LINE",
"258 428 LINE",
"258 332 LINE"
);
}
);
width = 1000;
}
);
unicode = FF28;
},
{
glyphname = I.full;
lastChange = "2020-04-23 09:20:11 +0000";
layers = (
{
anchors = (
{
name = LSB;
position = "{375, 380}";
},
{
name = RSB;
position = "{624, 380}";
}
);
layerId = "BE1754C0-A605-45AC-AA12-D3A1FC0C380B";
paths = (
{
closed = 1;
nodes = (
"554 0 LINE",
"554 733 LINE",
"445 733 LINE",
"445 0 LINE"
);
}
);
width = 1000;
}
);
unicode = FF29;
},
{
glyphname = J.full;
lastChange = "2020-05-03 12:57:07 +0000";
layers = (
{
anchors = (
{
name = LSB;
position = "{104, 380}";
},
{
name = RSB;
position = "{879, 380}";
}
);
layerId = "BE1754C0-A605-45AC-AA12-D3A1FC0C380B";
paths = (
{
closed = 1;
nodes = (
"812 348 OFFCURVE",
"806 741 OFFCURVE",
"806 741 CURVE",
"696 741 LINE",
"696 741 OFFCURVE",
"702 409 OFFCURVE",
"696 293 CURVE",
"690 155 OFFCURVE",
"611 88 OFFCURVE",
"495 88 CURVE",
"392 88 OFFCURVE",
"314 145 OFFCURVE",
"279 297 CURVE",
"174 257 LINE",
"200 130 OFFCURVE",
"297 -13 OFFCURVE",
"494 -13 CURVE",
"671 -13 OFFCURVE",
"797 70 OFFCURVE",
"807 250 CURVE"
);
}
);
width = 1001;
}
);
unicode = FF2A;
},
{
glyphname = K.full;
lastChange = "2020-04-23 09:20:11 +0000";
layers = (
{
anchors = (
{
name = LSB;
position = "{139, 380}";
},
{
name = RSB;
position = "{898, 380}";
}
);
layerId = "BE1754C0-A605-45AC-AA12-D3A1FC0C380B";
paths = (
{
closed = 1;
nodes = (
"822 733 LINE",
"685 733 LINE",
"292 309 LINE",
"292 170 LINE"
);
},
{
closed = 1;
nodes = (
"318 0 LINE",
"318 733 LINE",
"209 733 LINE",
"209 0 LINE"
);
},
{
closed = 1;
nodes = (
"828 0 LINE",
"494 462 LINE",
"427 382 LINE",
"700 0 LINE"
);
}
);
width = 1000;
}
);
unicode = FF2B;
},
{
glyphname = L.full;
lastChange = "2020-04-23 09:20:11 +0000";
layers = (
{
anchors = (
{
name = LSB;
position = "{129, 380}";
},
{
name = RSB;
position = "{871, 380}";
}
);
layerId = "BE1754C0-A605-45AC-AA12-D3A1FC0C380B";
paths = (
{
closed = 1;
nodes = (
"308 0 LINE",
"308 733 LINE",
"199 733 LINE",
"199 0 LINE"
);
},
{
closed = 1;
nodes = (
"801 0 LINE",
"801 97 LINE",
"255 97 LINE",
"255 0 LINE"
);
}
);
width = 1000;
}
);
unicode = FF2C;
},
{
glyphname = M.full;
lastChange = "2020-04-23 09:20:11 +0000";
layers = (
{
anchors = (
{
name = LSB;
position = "{52, 380}";
},
{
name = RSB;
position = "{947, 380}";
}
);
layerId = "BE1754C0-A605-45AC-AA12-D3A1FC0C380B";
paths = (
{
closed = 1;
nodes = (
"541 0 LINE",
"528 98 LINE",
"265 733 LINE",
"152 733 LINE",
"459 0 LINE"
);
},
{
closed = 1;
nodes = (
"226 0 LINE",
"226 733 LINE",
"122 733 LINE",
"122 0 LINE"
);
},
{
closed = 1;
nodes = (
"541 0 LINE",
"847 733 LINE",
"735 733 LINE",
"471 98 LINE",
"459 0 LINE"
);
},
{
closed = 1;
nodes = (
"877 0 LINE",
"877 733 LINE",
"773 733 LINE",
"773 0 LINE"
);
}
);
width = 1000;
}
);
unicode = FF2D;
},
{
glyphname = N.full;
lastChange = "2020-04-23 09:20:11 +0000";
layers = (
{
anchors = (
{
name = LSB;
position = "{120, 380}";
},
{
name = RSB;
position = "{880, 380}";
}
);
layerId = "BE1754C0-A605-45AC-AA12-D3A1FC0C380B";
paths = (
{
closed = 1;
nodes = (
"295 0 LINE",
"295 733 LINE",
"190 733 LINE",
"190 0 LINE"
);
},
{
closed = 1;
nodes = (
"810 0 LINE",
"810 733 LINE",
"706 733 LINE",
"706 0 LINE"
);
},
{
closed = 1;
nodes = (
"300 733 LINE",
"190 733 LINE",
"190 709 LINE",
"703 0 LINE",
"810 0 LINE",
"810 24 LINE"
);
}
);
width = 1000;
}
);
unicode = FF2E;
},
{
glyphname = O.full;
lastChange = "2020-04-23 09:20:11 +0000";
layers = (
{
anchors = (
{
name = LSB;
position = "{70, 380}";
},
{
name = RSB;
position = "{929, 380}";
}
);
layerId = "BE1754C0-A605-45AC-AA12-D3A1FC0C380B";
paths = (
{
closed = 1;
nodes = (
"732 -12 OFFCURVE",
"859 151 OFFCURVE",
"859 367 CURVE SMOOTH",
"859 582 OFFCURVE",
"732 745 OFFCURVE",
"499 745 CURVE SMOOTH",
"267 745 OFFCURVE",
"140 582 OFFCURVE",
"140 367 CURVE SMOOTH",
"140 151 OFFCURVE",
"267 -12 OFFCURVE",
"499 -12 CURVE SMOOTH"
);
},
{
closed = 1;
nodes = (
"326 87 OFFCURVE",
"256 226 OFFCURVE",
"256 367 CURVE SMOOTH",
"256 507 OFFCURVE",
"326 646 OFFCURVE",
"499 646 CURVE SMOOTH",
"673 646 OFFCURVE",
"743 507 OFFCURVE",
"743 367 CURVE SMOOTH",
"743 226 OFFCURVE",
"673 87 OFFCURVE",
"499 87 CURVE SMOOTH"
);
}
);
width = 1000;
}
);
unicode = FF2F;
},
{
glyphname = P.full;
lastChange = "2020-04-23 09:20:11 +0000";
layers = (
{
anchors = (
{
name = LSB;
position = "{145, 380}";
},
{
name = RSB;
position = "{869, 380}";
}
);
layerId = "BE1754C0-A605-45AC-AA12-D3A1FC0C380B";
paths = (
{
closed = 1;
nodes = (
"274 307 OFFCURVE",
"501 305 OFFCURVE",
"567 307 CURVE SMOOTH",
"691 311 OFFCURVE",
"799 364 OFFCURVE",
"799 520 CURVE SMOOTH",
"799 676 OFFCURVE",
"691 729 OFFCURVE",
"567 733 CURVE SMOOTH",
"501 735 OFFCURVE",
"274 733 OFFCURVE",
"274 733 CURVE",
"274 637 LINE",
"505 637 LINE SMOOTH",
"588 637 OFFCURVE",
"689 635 OFFCURVE",
"689 520 CURVE SMOOTH",
"689 405 OFFCURVE",
"588 403 OFFCURVE",
"505 403 CURVE SMOOTH",
"274 403 LINE",
"274 307 LINE"
);
},
{
closed = 1;
nodes = (
"324 0 LINE",
"324 733 LINE",
"215 733 LINE",
"215 0 LINE"
);
}
);
width = 1000;
}
);
unicode = FF30;
},
{
glyphname = Q.full;
lastChange = "2020-05-04 09:09:08 +0000";
layers = (
{
anchors = (
{
name = LSB;
position = "{70, 380}";
},
{
name = RSB;
position = "{975, 380}";
}
);
layerId = "BE1754C0-A605-45AC-AA12-D3A1FC0C380B";
paths = (
{
closed = 1;
nodes = (
"732 -12 OFFCURVE",
"859 151 OFFCURVE",
"859 367 CURVE SMOOTH",
"859 582 OFFCURVE",
"732 745 OFFCURVE",
"500 745 CURVE SMOOTH",
"267 745 OFFCURVE",
"140 582 OFFCURVE",
"140 367 CURVE SMOOTH",
"140 151 OFFCURVE",
"267 -12 OFFCURVE",
"500 -12 CURVE SMOOTH"
);
},
{
closed = 1;
nodes = (
"905 53 LINE",
"777 95 OFFCURVE",
"747 213 OFFCURVE",
"617 247 CURVE",
"552 168 LINE",
"664 148 OFFCURVE",
"716 9 OFFCURVE",
"837 -34 CURVE"
);
},
{
closed = 1;
nodes = (
"326 87 OFFCURVE",
"256 226 OFFCURVE",
"256 367 CURVE SMOOTH",
"256 507 OFFCURVE",
"326 646 OFFCURVE",
"500 646 CURVE SMOOTH",
"673 646 OFFCURVE",
"743 507 OFFCURVE",
"743 367 CURVE SMOOTH",
"743 226 OFFCURVE",
"673 87 OFFCURVE",
"500 87 CURVE SMOOTH"
);
}
);
width = 1000;
}
);
unicode = FF31;
},
{
glyphname = R.full;
lastChange = "2020-04-23 09:20:11 +0000";
layers = (
{
anchors = (
{
name = LSB;
position = "{128, 380}";
},
{
name = RSB;
position = "{904, 380}";
}
);
layerId = "BE1754C0-A605-45AC-AA12-D3A1FC0C380B";
paths = (
{
closed = 1;
nodes = (
"258 307 OFFCURVE",
"505 305 OFFCURVE",
"571 307 CURVE SMOOTH",
"695 311 OFFCURVE",
"803 364 OFFCURVE",
"803 520 CURVE SMOOTH",
"803 676 OFFCURVE",
"695 729 OFFCURVE",
"571 733 CURVE SMOOTH",
"505 735 OFFCURVE",
"258 733 OFFCURVE",
"258 733 CURVE",
"258 637 LINE",
"509 637 LINE SMOOTH",
"592 637 OFFCURVE",
"693 635 OFFCURVE",
"693 520 CURVE SMOOTH",
"693 405 OFFCURVE",
"592 403 OFFCURVE",
"509 403 CURVE SMOOTH",
"258 403 LINE",
"258 307 LINE"
);
},
{
closed = 1;
nodes = (
"307 0 LINE",
"307 733 LINE",
"198 733 LINE",
"198 0 LINE"
);
},
{
closed = 1;
nodes = (
"834 0 LINE",
"580 377 LINE",
"451 377 LINE",
"699 0 LINE"
);
}
);
width = 1000;
}
);
unicode = FF32;
},
{
glyphname = S.full;
lastChange = "2020-04-23 09:20:11 +0000";
layers = (
{
anchors = (
{
name = LSB;
position = "{125, 380}";
},
{
name = RSB;
position = "{874.335, 380}";
}
);
layerId = "BE1754C0-A605-45AC-AA12-D3A1FC0C380B";
paths = (
{
closed = 1;
nodes = (
"495 443 OFFCURVE",
"347 458 OFFCURVE",
"347 546 CURVE",
"347 566 OFFCURVE",
"360 647 OFFCURVE",
"493 647 CURVE",
"564 647 OFFCURVE",
"626 626 OFFCURVE",
"671 564 CURVE",
"772 631 LINE",
"692 712 OFFCURVE",
"615 745 OFFCURVE",
"484 745 CURVE",
"296 745 OFFCURVE",
"229 611 OFFCURVE",
"229 537 CURVE",
"229 490 OFFCURVE",
"237 396 OFFCURVE",
"387 353 CURVE",
"513 316 OFFCURVE",
"682 297 OFFCURVE",
"688 198 CURVE",
"693 95 OFFCURVE",
"566 86 OFFCURVE",
"525 86 CURVE",
"466 86 OFFCURVE",
"344 98 OFFCURVE",
"286 216 CURVE",
"195 147 LINE",
"240 60 OFFCURVE",
"320 -12 OFFCURVE",
"518 -12 CURVE",
"760 -12 OFFCURVE",
"809 122 OFFCURVE",
"804 218 CURVE",
"799 303 OFFCURVE",
"727 374 OFFCURVE",
"628 402 CURVE"
);
}
);
width = 1000;
}
);
unicode = FF33;
},
{
glyphname = T.full;
lastChange = "2020-04-23 09:20:11 +0000";
layers = (
{
anchors = (
{
name = LSB;
position = "{113, 380}";
},
{
name = RSB;
position = "{886, 380}";
}
);
layerId = "BE1754C0-A605-45AC-AA12-D3A1FC0C380B";
paths = (
{
closed = 1;
nodes = (
"554 0 LINE",
"554 733 LINE",
"445 733 LINE",
"445 0 LINE"
);
},
{
closed = 1;
nodes = (
"816 637 LINE",
"816 733 LINE",
"183 733 LINE",
"183 637 LINE"
);
}
);
width = 1000;
}
);
unicode = FF34;
},
{
glyphname = U.full;
lastChange = "2020-04-23 09:20:11 +0000";
layers = (
{
anchors = (
{
name = LSB;
position = "{131, 380}";
},
{
name = RSB;
position = "{868, 380}";
}
);
layerId = "BE1754C0-A605-45AC-AA12-D3A1FC0C380B";
paths = (
{
closed = 1;
nodes = (
"704 -12 OFFCURVE",
"798 108 OFFCURVE",
"798 265 CURVE SMOOTH",
"797 733 LINE",
"689 733 LINE",
"689 733 OFFCURVE",
"690 309 OFFCURVE",
"689 274 CURVE SMOOTH",
"687 191 OFFCURVE",
"657 87 OFFCURVE",
"499 87 CURVE SMOOTH",
"342 87 OFFCURVE",
"310 191 OFFCURVE",
"310 274 CURVE SMOOTH",
"310 309 OFFCURVE",
"310 733 OFFCURVE",
"310 733 CURVE",
"202 733 LINE",
"201 265 LINE SMOOTH",
"201 108 OFFCURVE",
"295 -12 OFFCURVE",
"499 -12 CURVE SMOOTH"
);
}
);
width = 1000;
}
);
unicode = FF35;
},
{
glyphname = V.full;
lastChange = "2020-04-23 09:20:11 +0000";
layers = (
{
anchors = (
{
name = LSB;
position = "{100, 380}";
},
{
name = RSB;
position = "{900, 380}";
}
);
layerId = "BE1754C0-A605-45AC-AA12-D3A1FC0C380B";
paths = (
{
closed = 1;
nodes = (
"557 0 LINE",
"830 733 LINE",
"721 733 LINE",
"443 0 LINE"
);
},
{
closed = 1;
nodes = (
"557 0 LINE",
"279 733 LINE",
"170 733 LINE",
"443 0 LINE"
);
}
);
width = 1000;
}
);
unicode = FF36;
},
{
glyphname = W.full;
lastChange = "2020-04-23 09:20:11 +0000";
layers = (
{
anchors = (
{
name = LSB;
position = "{-43, 380}";
},
{
name = RSB;
position = "{1042, 380}";
}
);
layerId = "BE1754C0-A605-45AC-AA12-D3A1FC0C380B";
paths = (
{
closed = 1;
nodes = (
"762 0 LINE",
"555 733 LINE",
"445 733 LINE",
"656 0 LINE"
);
},
{
closed = 1;
nodes = (
"344 0 LINE",
"137 733 LINE",
"27 733 LINE",
"238 0 LINE"
);
},
{
closed = 1;
nodes = (
"344 0 LINE",
"554 733 LINE",
"445 733 LINE",
"238 0 LINE"
);
},
{
closed = 1;
nodes = (
"762 0 LINE",
"972 733 LINE",
"863 733 LINE",
"656 0 LINE"
);
}
);
width = 1000;
}
);
unicode = FF37;
},
{
glyphname = X.full;
lastChange = "2020-04-23 09:20:11 +0000";
layers = (
{
anchors = (
{
name = LSB;
position = "{97, 380}";
},
{
name = RSB;
position = "{903, 380}";
}
);
layerId = "BE1754C0-A605-45AC-AA12-D3A1FC0C380B";
paths = (
{
closed = 1;
nodes = (
"833 0 LINE",
"324 733 LINE",
"190 733 LINE",
"703 0 LINE"
);
},
{
closed = 1;
nodes = (
"300 0 LINE",
"809 733 LINE",
"679 733 LINE",
"167 0 LINE"
);
}
);
width = 1000;
}
);
unicode = FF38;
},
{
glyphname = Y.full;
lastChange = "2020-04-23 09:20:11 +0000";
layers = (
{
anchors = (
{
name = LSB;
position = "{88, 380}";
},
{
name = RSB;
position = "{911, 380}";
}
);
layerId = "BE1754C0-A605-45AC-AA12-D3A1FC0C380B";
paths = (
{
closed = 1;
nodes = (
"841 733 LINE",
"711 733 LINE",
"499 430 LINE",
"499 241 LINE"
);
},
{
closed = 1;
nodes = (
"554 0 LINE",
"554 395 LINE",
"445 395 LINE",
"445 0 LINE"
);
},
{
closed = 1;
nodes = (
"499 434 LINE",
"292 733 LINE",
"158 733 LINE",
"499 245 LINE"
);
}
);
width = 1000;
}
);
unicode = FF39;
},
{
glyphname = Z.full;
lastChange = "2020-04-23 09:20:11 +0000";
layers = (
{
anchors = (
{
name = LSB;
position = "{134, 380}";
},
{
name = RSB;
position = "{865, 380}";
}
);
layerId = "BE1754C0-A605-45AC-AA12-D3A1FC0C380B";
paths = (
{
closed = 1;
nodes = (
"302 63 LINE",
"782 637 LINE",
"674 666 LINE",
"204 96 LINE"
);
},
{
closed = 1;
nodes = (
"795 0 LINE",
"795 96 LINE",
"204 96 LINE",
"204 0 LINE"
);
},
{
closed = 1;
nodes = (
"782 637 LINE",
"782 733 LINE",
"239 733 LINE",
"239 637 LINE"
);
}
);
width = 1000;
}
);
unicode = FF3A;
},
{
glyphname = J.ss01;
lastChange = "2020-05-03 12:53:18 +0000";
layers = (
{
layerId = "BE1754C0-A605-45AC-AA12-D3A1FC0C380B";
paths = (
{
closed = 1;
nodes = (
"48 1 OFFCURVE",
"91 -10 OFFCURVE",
"139 -10 CURVE SMOOTH",
"228 -10 OFFCURVE",
"338 30 OFFCURVE",
"345 191 CURVE SMOOTH",
"346 206 OFFCURVE",
"346 271 OFFCURVE",
"346 352 CURVE SMOOTH",
"346 512 OFFCURVE",
"345 733 OFFCURVE",
"345 733 CURVE",
"236 733 LINE",
"236 733 OFFCURVE",
"236 622 OFFCURVE",
"236 505 CURVE SMOOTH",
"236 388 OFFCURVE",
"236 266 OFFCURVE",
"235 245 CURVE SMOOTH",
"231 166 OFFCURVE",
"218 103 OFFCURVE",
"132 103 CURVE SMOOTH",
"105 103 OFFCURVE",
"64 110 OFFCURVE",
"30 129 CURVE",
"31 12 LINE"
);
}
);
width = 439;
}
);
},
{
glyphname = J.full.ss01;
lastChange = "2020-05-03 12:55:45 +0000";
layers = (
{
anchors = (
{
name = LSB;
position = "{169, 380}";
},
{
name = RSB;
position = "{625, 380}";
}
);
layerId = "BE1754C0-A605-45AC-AA12-D3A1FC0C380B";
paths = (
{
closed = 1;
nodes = (
"257 1 OFFCURVE",
"300 -10 OFFCURVE",
"348 -10 CURVE SMOOTH",
"437 -10 OFFCURVE",
"543 30 OFFCURVE",
"554 191 CURVE SMOOTH",
"555 206 OFFCURVE",
"555 271 OFFCURVE",
"555 352 CURVE SMOOTH",
"555 512 OFFCURVE",
"554 733 OFFCURVE",
"554 733 CURVE",
"445 733 LINE",
"445 733 OFFCURVE",
"445 622 OFFCURVE",
"445 505 CURVE SMOOTH",
"445 388 OFFCURVE",
"445 266 OFFCURVE",
"444 245 CURVE SMOOTH",
"440 166 OFFCURVE",
"427 103 OFFCURVE",
"341 103 CURVE SMOOTH",
"314 103 OFFCURVE",
"273 110 OFFCURVE",
"239 129 CURVE",
"240 12 LINE"
);
}
);
width = 1001;
}
);
},
{
glyphname = Q.ss01;
lastChange = "2020-05-03 22:30:45 +0000";
layers = (
{
layerId = "BE1754C0-A605-45AC-AA12-D3A1FC0C380B";
paths = (
{
closed = 1;
nodes = (
"649 -12 OFFCURVE",
"776 151 OFFCURVE",
"776 367 CURVE SMOOTH",
"776 582 OFFCURVE",
"649 745 OFFCURVE",
"417 745 CURVE SMOOTH",
"184 745 OFFCURVE",
"57 582 OFFCURVE",
"57 367 CURVE SMOOTH",
"57 151 OFFCURVE",
"184 -12 OFFCURVE",
"417 -12 CURVE SMOOTH"
);
},
{
closed = 1;
nodes = (
"782 0 LINE",
"754 257 OFFCURVE",
"545 349 OFFCURVE",
"302 268 CURVE",
"344 175 LINE",
"509 236 OFFCURVE",
"650 165 OFFCURVE",
"674 0 CURVE"
);
},
{
closed = 1;
nodes = (
"243 87 OFFCURVE",
"173 226 OFFCURVE",
"173 367 CURVE SMOOTH",
"173 507 OFFCURVE",
"243 646 OFFCURVE",
"417 646 CURVE SMOOTH",
"590 646 OFFCURVE",
"660 507 OFFCURVE",
"660 367 CURVE SMOOTH",
"660 226 OFFCURVE",
"590 87 OFFCURVE",
"417 87 CURVE SMOOTH"
);
}
);
width = 855;
}
);
},
{
glyphname = Q.full.ss01;
lastChange = "2020-05-04 09:09:29 +0000";
layers = (
{
layerId = "BE1754C0-A605-45AC-AA12-D3A1FC0C380B";
paths = (
{
closed = 1;
nodes = (
"732 -12 OFFCURVE",
"859 151 OFFCURVE",
"859 367 CURVE SMOOTH",
"859 582 OFFCURVE",
"732 745 OFFCURVE",
"500 745 CURVE SMOOTH",
"267 745 OFFCURVE",
"140 582 OFFCURVE",
"140 367 CURVE SMOOTH",
"140 151 OFFCURVE",
"267 -12 OFFCURVE",
"500 -12 CURVE SMOOTH"
);
},
{
closed = 1;
nodes = (
"865 0 LINE",
"837 257 OFFCURVE",
"628 349 OFFCURVE",
"385 268 CURVE",
"427 175 LINE",
"592 236 OFFCURVE",
"733 165 OFFCURVE",
"757 0 CURVE"
);
},
{
closed = 1;
nodes = (
"326 87 OFFCURVE",
"256 226 OFFCURVE",
"256 367 CURVE SMOOTH",
"256 507 OFFCURVE",
"326 646 OFFCURVE",
"500 646 CURVE SMOOTH",
"673 646 OFFCURVE",
"743 507 OFFCURVE",
"743 367 CURVE SMOOTH",
"743 226 OFFCURVE",
"673 87 OFFCURVE",
"500 87 CURVE SMOOTH"
);
}
);
width = 1000;
}
);
},
{
glyphname = R.ss01;
lastChange = "2020-05-04 11:06:42 +0000";
layers = (
{
layerId = "BE1754C0-A605-45AC-AA12-D3A1FC0C380B";
paths = (
{
closed = 1;
nodes = (
"462 343 LINE",
"586 347 OFFCURVE",
"694 364 OFFCURVE",
"694 520 CURVE SMOOTH",
"694 676 OFFCURVE",
"586 729 OFFCURVE",
"462 733 CURVE SMOOTH",
"396 735 OFFCURVE",
"149 733 OFFCURVE",
"149 733 CURVE",
"149 637 LINE",
"400 637 LINE SMOOTH",
"483 637 OFFCURVE",
"584 635 OFFCURVE",
"584 520 CURVE SMOOTH",
"584 405 OFFCURVE",
"483 403 OFFCURVE",
"400 403 CURVE SMOOTH",
"149 403 LINE",
"149 343 LINE"
);
},
{
closed = 1;
nodes = (
"198 0 LINE",
"198 733 LINE",
"89 733 LINE",
"89 0 LINE"
);
},
{
closed = 1;
nodes = (
"708 0 LINE",
"650 63 OFFCURVE",
"684 204 OFFCURVE",
"658 278 CURVE SMOOTH",
"649 304 OFFCURVE",
"627 356 OFFCURVE",
"540 356 CURVE SMOOTH",
"172 356 LINE",
"172 306 LINE",
"461 306 LINE SMOOTH",
"501 306 OFFCURVE",
"533 293 OFFCURVE",
"547 248 CURVE SMOOTH",
"569 179 OFFCURVE",
"546 51 OFFCURVE",
"584 0 CURVE"
);
}
);
width = 750;
}
);
},
{
glyphname = R.full.ss01;
lastChange = "2020-05-04 11:07:11 +0000";
layers = (
{
anchors = (
{
name = LSB;
position = "{128, 380}";
},
{
name = RSB;
position = "{887, 380}";
}
);
layerId = "BE1754C0-A605-45AC-AA12-D3A1FC0C380B";
paths = (
{
closed = 1;
nodes = (
"571 343 LINE",
"695 347 OFFCURVE",
"803 364 OFFCURVE",
"803 520 CURVE SMOOTH",
"803 676 OFFCURVE",
"695 729 OFFCURVE",
"571 733 CURVE SMOOTH",
"505 735 OFFCURVE",
"258 733 OFFCURVE",
"258 733 CURVE",
"258 637 LINE",
"509 637 LINE SMOOTH",
"592 637 OFFCURVE",
"693 635 OFFCURVE",
"693 520 CURVE SMOOTH",
"693 405 OFFCURVE",
"592 403 OFFCURVE",
"509 403 CURVE SMOOTH",
"258 403 LINE",
"258 343 LINE"
);
},
{
closed = 1;
nodes = (
"307 0 LINE",
"307 733 LINE",
"198 733 LINE",
"198 0 LINE"
);
},
{
closed = 1;
nodes = (
"817 0 LINE",
"759 63 OFFCURVE",
"793 204 OFFCURVE",
"767 278 CURVE SMOOTH",
"758 304 OFFCURVE",
"736 356 OFFCURVE",
"649 356 CURVE SMOOTH",
"281 356 LINE",
"281 306 LINE",
"570 306 LINE SMOOTH",
"610 306 OFFCURVE",
"642 293 OFFCURVE",
"656 248 CURVE SMOOTH",
"678 179 OFFCURVE",
"655 51 OFFCURVE",
"693 0 CURVE"
);
}
);
width = 1000;
}
);
},
{
glyphname = J.full.vert.ss01;
lastChange = "2020-05-03 12:55:35 +0000";
layers = (
{
anchors = (
{
name = BSB;
position = "{500, -80.322}";
},
{
name = TSB;
position = "{500, 803}";
}
);
layerId = "BE1754C0-A605-45AC-AA12-D3A1FC0C380B";
paths = (
{
closed = 1;
nodes = (
"333 -19 OFFCURVE",
"586 -56 OFFCURVE",
"597 191 CURVE SMOOTH",
"599 236 OFFCURVE",
"597 733 OFFCURVE",
"597 733 CURVE",
"488 733 LINE",
"488 733 OFFCURVE",
"489 287 OFFCURVE",
"487 245 CURVE SMOOTH",
"484 188 OFFCURVE",
"479 107 OFFCURVE",
"397 104 CURVE SMOOTH",
"370 103 OFFCURVE",
"314 110 OFFCURVE",
"282 136 CURVE",
"283 12 LINE"
);
}
);
width = 1000;
}
);
},
{
glyphname = Q.full.vert.ss01;
lastChange = "2020-05-04 09:10:18 +0000";
layers = (
{
layerId = "BE1754C0-A605-45AC-AA12-D3A1FC0C380B";
paths = (
{
closed = 1;
nodes = (
"732 -12 OFFCURVE",
"859 151 OFFCURVE",
"859 367 CURVE SMOOTH",
"859 582 OFFCURVE",
"732 745 OFFCURVE",
"500 745 CURVE SMOOTH",
"267 745 OFFCURVE",
"140 582 OFFCURVE",
"140 367 CURVE SMOOTH",
"140 151 OFFCURVE",
"267 -12 OFFCURVE",
"500 -12 CURVE SMOOTH"
);
},
{
closed = 1;
nodes = (
"865 0 LINE",
"837 257 OFFCURVE",
"628 349 OFFCURVE",
"385 268 CURVE",
"427 175 LINE",
"592 236 OFFCURVE",
"733 165 OFFCURVE",
"757 0 CURVE"
);
},
{
closed = 1;
nodes = (
"326 87 OFFCURVE",
"256 226 OFFCURVE",
"256 367 CURVE SMOOTH",
"256 507 OFFCURVE",
"326 646 OFFCURVE",
"500 646 CURVE SMOOTH",
"673 646 OFFCURVE",
"743 507 OFFCURVE",
"743 367 CURVE SMOOTH",
"743 226 OFFCURVE",
"673 87 OFFCURVE",
"500 87 CURVE SMOOTH"
);
}
);
width = 1000;
}
);
},
{
glyphname = R.full.vert.ss01;
lastChange = "2020-05-04 11:07:20 +0000";
layers = (
{
anchors = (
{
name = BSB;
position = "{500, -70}";
},
{
name = TSB;
position = "{500, 803.889}";
}
);
layerId = "BE1754C0-A605-45AC-AA12-D3A1FC0C380B";
paths = (
{
closed = 1;
nodes = (
"571 343 LINE",
"695 347 OFFCURVE",
"803 364 OFFCURVE",
"803 520 CURVE SMOOTH",
"803 676 OFFCURVE",
"695 729 OFFCURVE",
"571 733 CURVE SMOOTH",
"505 735 OFFCURVE",
"258 733 OFFCURVE",
"258 733 CURVE",
"258 637 LINE",
"509 637 LINE SMOOTH",
"592 637 OFFCURVE",
"693 635 OFFCURVE",
"693 520 CURVE SMOOTH",
"693 405 OFFCURVE",
"592 403 OFFCURVE",
"509 403 CURVE SMOOTH",
"258 403 LINE",
"258 343 LINE"
);
},
{
closed = 1;
nodes = (
"307 0 LINE",
"307 733 LINE",
"198 733 LINE",
"198 0 LINE"
);
},
{
closed = 1;
nodes = (
"817 0 LINE",
"759 63 OFFCURVE",
"793 204 OFFCURVE",
"767 278 CURVE SMOOTH",
"758 304 OFFCURVE",
"736 356 OFFCURVE",
"649 356 CURVE SMOOTH",
"281 356 LINE",
"281 306 LINE",
"570 306 LINE SMOOTH",
"610 306 OFFCURVE",
"642 293 OFFCURVE",
"656 248 CURVE SMOOTH",
"678 179 OFFCURVE",
"655 51 OFFCURVE",
"693 0 CURVE"
);
}
);
width = 1000;
}
);
},
{
glyphname = A.full.vert;
lastChange = "2020-04-23 09:20:25 +0000";
layers = (
{
anchors = (
{
name = BSB;
position = "{500, -70}";
},
{
name = TSB;
position = "{500, 803}";
}
);
layerId = "BE1754C0-A605-45AC-AA12-D3A1FC0C380B";
paths = (
{
closed = 1;
nodes = (
"851 0 LINE",
"570 733 LINE",
"461 733 LINE",
"730 0 LINE"
);
},
{
closed = 1;
nodes = (
"270 0 LINE",
"539 733 LINE",
"430 733 LINE",
"149 0 LINE"
);
},
{
closed = 1;
nodes = (
"703 218 LINE",
"703 315 LINE",
"298 315 LINE",
"298 218 LINE"
);
}
);
width = 1000;
}
);
},
{
glyphname = B.full.vert;
lastChange = "2020-04-23 09:20:25 +0000";
layers = (
{
anchors = (
{
name = BSB;
position = "{500, -70.889}";
},
{
name = TSB;
position = "{500, 803.889}";
}
);
layerId = "BE1754C0-A605-45AC-AA12-D3A1FC0C380B";
paths = (
{
closed = 1;
nodes = (
"242 0 OFFCURVE",
"539 -2 OFFCURVE",
"591 0 CURVE SMOOTH",
"802 8 OFFCURVE",
"835 129 OFFCURVE",
"835 214 CURVE SMOOTH",
"835 341 OFFCURVE",
"728 391 OFFCURVE",
"646 391 CURVE",
"646 372 LINE",
"776 372 OFFCURVE",
"815 478 OFFCURVE",
"815 543 CURVE SMOOTH",
"815 691 OFFCURVE",
"709 727 OFFCURVE",
"554 733 CURVE SMOOTH",
"500 735 OFFCURVE",
"242 733 OFFCURVE",
"242 733 CURVE",
"242 637 LINE",
"242 637 OFFCURVE",
"493 640 OFFCURVE",
"554 637 CURVE SMOOTH",
"615 634 OFFCURVE",
"696 628 OFFCURVE",
"696 532 CURVE SMOOTH",
"696 482 OFFCURVE",
"683 429 OFFCURVE",
"554 428 CURVE SMOOTH",
"425 427 OFFCURVE",
"242 428 OFFCURVE",
"242 428 CURVE",
"242 332 LINE",
"242 332 OFFCURVE",
"496 333 OFFCURVE",
"554 332 CURVE SMOOTH",
"612 331 OFFCURVE",
"715 331 OFFCURVE",
"715 214 CURVE SMOOTH",
"715 97 OFFCURVE",
"613 96 OFFCURVE",
"536 96 CURVE SMOOTH",
"242 96 LINE",
"242 0 LINE"
);
},
{
closed = 1;
nodes = (
"301 0 LINE",
"301 733 LINE",
"192 733 LINE",
"192 0 LINE"
);
}
);
width = 1000;
}
);
},
{
glyphname = C.full.vert;
lastChange = "2020-04-23 09:20:25 +0000";
layers = (
{
anchors = (
{
name = BSB;
position = "{500, -82}";
},
{
name = TSB;
position = "{500, 814}";
}
);
layerId = "BE1754C0-A605-45AC-AA12-D3A1FC0C380B";
paths = (
{
closed = 1;
nodes = (
"691 -12 OFFCURVE",
"803 72 OFFCURVE",
"859 241 CURVE",
"741 257 LINE",
"710 137 OFFCURVE",
"619 88 OFFCURVE",
"514 88 CURVE SMOOTH",
"338 88 OFFCURVE",
"268 226 OFFCURVE",
"268 366 CURVE SMOOTH",
"268 506 OFFCURVE",
"338 645 OFFCURVE",
"514 645 CURVE SMOOTH",
"619 645 OFFCURVE",
"684 599 OFFCURVE",
"721 527 CURVE",
"837 556 LINE",
"782 670 OFFCURVE",
"672 744 OFFCURVE",
"514 744 CURVE SMOOTH",
"279 744 OFFCURVE",
"150 581 OFFCURVE",
"150 366 CURVE SMOOTH",
"150 151 OFFCURVE",
"279 -12 OFFCURVE",
"514 -12 CURVE SMOOTH"
);
}
);
width = 1000;
}
);
},
{
glyphname = D.full.vert;
lastChange = "2020-04-23 09:20:25 +0000";
layers = (
{
anchors = (
{
name = BSB;
position = "{500, -70.889}";
},
{
name = TSB;
position = "{500, 803.889}";
}
);
layerId = "BE1754C0-A605-45AC-AA12-D3A1FC0C380B";
paths = (
{
closed = 1;
nodes = (
"260 0 OFFCURVE",
"447 -2 OFFCURVE",
"529 0 CURVE SMOOTH",
"788 6 OFFCURVE",
"849 201 OFFCURVE",
"849 366 CURVE SMOOTH",
"849 531 OFFCURVE",
"788 727 OFFCURVE",
"529 733 CURVE SMOOTH",
"447 735 OFFCURVE",
"260 733 OFFCURVE",
"260 733 CURVE",
"260 637 LINE",
"499 637 LINE SMOOTH",
"607 637 OFFCURVE",
"731 606 OFFCURVE",
"731 366 CURVE SMOOTH",
"731 127 OFFCURVE",
"607 96 OFFCURVE",
"499 96 CURVE SMOOTH",
"260 96 LINE",
"260 0 LINE"
);
},
{
closed = 1;
nodes = (
"311 0 LINE",
"311 733 LINE",
"202 733 LINE",
"202 0 LINE"
);
}
);
width = 1000;
}
);
},
{
glyphname = E.full.vert;
lastChange = "2020-04-23 09:20:25 +0000";
layers = (
{
anchors = (
{
name = BSB;
position = "{500, -70}";
},
{
name = TSB;
position = "{500, 803}";
}
);
layerId = "BE1754C0-A605-45AC-AA12-D3A1FC0C380B";
paths = (
{
closed = 1;
nodes = (
"322 0 LINE",
"322 733 LINE",
"213 733 LINE",
"213 0 LINE"
);
},
{
closed = 1;
nodes = (
"786 0 LINE",
"786 96 LINE",
"250 96 LINE",
"250 0 LINE"
);
},
{
closed = 1;
nodes = (
"614 332 LINE",
"614 428 LINE",
"269 428 LINE",
"269 332 LINE"
);
},
{
closed = 1;
nodes = (
"786 637 LINE",
"786 733 LINE",
"250 733 LINE",
"250 637 LINE"
);
}
);
width = 1000;
}
);
},
{
glyphname = F.full.vert;
lastChange = "2020-04-23 09:20:25 +0000";
layers = (
{
anchors = (
{
name = BSB;
position = "{500, -70}";
},
{
name = TSB;
position = "{500, 802}";
}
);
layerId = "BE1754C0-A605-45AC-AA12-D3A1FC0C380B";
paths = (
{
closed = 1;
nodes = (
"328 0 LINE",
"328 732 LINE",
"219 732 LINE",
"219 0 LINE"
);
},
{
closed = 1;
nodes = (
"619 332 LINE",
"619 428 LINE",
"275 428 LINE",
"275 332 LINE"
);
},
{
closed = 1;
nodes = (
"781 636 LINE",
"781 732 LINE",
"256 732 LINE",
"256 636 LINE"
);
}
);
width = 1000;
}
);
},
{
glyphname = G.full.vert;
lastChange = "2020-04-23 09:20:25 +0000";
layers = (
{
anchors = (
{
name = BSB;
position = "{500, -82}";
},
{
name = TSB;
position = "{500, 815}";
}
);
layerId = "BE1754C0-A605-45AC-AA12-D3A1FC0C380B";
paths = (
{
closed = 1;
nodes = (
"702 -12 OFFCURVE",
"793 119 OFFCURVE",
"817 302 CURVE",
"744 302 LINE",
"725 185 OFFCURVE",
"642 87 OFFCURVE",
"503 87 CURVE SMOOTH",
"328 87 OFFCURVE",
"262 226 OFFCURVE",
"262 366 CURVE SMOOTH",
"262 507 OFFCURVE",
"328 646 OFFCURVE",
"503 646 CURVE SMOOTH",
"607 646 OFFCURVE",
"668 597 OFFCURVE",
"705 526 CURVE",
"824 560 LINE",
"768 672 OFFCURVE",
"660 745 OFFCURVE",
"503 745 CURVE SMOOTH",
"268 745 OFFCURVE",
"140 582 OFFCURVE",
"140 366 CURVE SMOOTH",
"140 151 OFFCURVE",
"268 -12 OFFCURVE",
"503 -12 CURVE SMOOTH"
);
},
{
closed = 1;
nodes = (
"793 297 LINE",
"793 393 LINE",
"489 393 LINE",
"489 297 LINE"
);
},
{
closed = 1;
nodes = (
"840 0 LINE",
"840 393 LINE",
"740 393 LINE",
"740 0 LINE"
);
}
);
width = 1000;
}
);
},
{
glyphname = H.full.vert;
lastChange = "2020-04-23 09:20:25 +0000";
layers = (
{
anchors = (
{
name = BSB;
position = "{500, -70}";
},
{
name = TSB;
position = "{500, 803}";
}
);
layerId = "BE1754C0-A605-45AC-AA12-D3A1FC0C380B";
paths = (
{
closed = 1;
nodes = (
"807 0 LINE",
"807 733 LINE",
"698 733 LINE",
"698 0 LINE"
);
},
{
closed = 1;
nodes = (
"302 0 LINE",
"302 733 LINE",
"193 733 LINE",
"193 0 LINE"
);
},
{
closed = 1;
nodes = (
"741 332 LINE",
"741 428 LINE",
"258 428 LINE",
"258 332 LINE"
);
}
);
width = 1000;
}
);
},
{
glyphname = I.full.vert;
lastChange = "2020-04-23 09:20:25 +0000";
layers = (
{
anchors = (
{
name = BSB;
position = "{500, -70}";
},
{
name = TSB;
position = "{500, 803}";
}
);
layerId = "BE1754C0-A605-45AC-AA12-D3A1FC0C380B";
paths = (
{
closed = 1;
nodes = (
"554 0 LINE",
"554 733 LINE",
"445 733 LINE",
"445 0 LINE"
);
}
);
width = 1000;
}
);
},
{
glyphname = J.full.vert;
lastChange = "2020-05-03 12:57:24 +0000";
layers = (
{
anchors = (
{
name = BSB;
position = "{500, -83}";
},
{
name = TSB;
position = "{500, 811}";
}
);
layerId = "BE1754C0-A605-45AC-AA12-D3A1FC0C380B";
paths = (
{
closed = 1;
nodes = (
"812 348 OFFCURVE",
"806 741 OFFCURVE",
"806 741 CURVE",
"696 741 LINE",
"696 741 OFFCURVE",
"702 409 OFFCURVE",
"696 293 CURVE",
"690 155 OFFCURVE",
"611 88 OFFCURVE",
"495 88 CURVE",
"392 88 OFFCURVE",
"314 145 OFFCURVE",
"279 297 CURVE",
"174 257 LINE",
"200 130 OFFCURVE",
"297 -13 OFFCURVE",
"494 -13 CURVE",
"671 -13 OFFCURVE",
"797 70 OFFCURVE",
"807 250 CURVE"
);
}
);
width = 1000;
}
);
},
{
glyphname = K.full.vert;
lastChange = "2020-04-23 09:20:25 +0000";
layers = (
{
anchors = (
{
name = BSB;
position = "{500, -70}";
},
{
name = TSB;
position = "{500, 803}";
}
);
layerId = "BE1754C0-A605-45AC-AA12-D3A1FC0C380B";
paths = (
{
closed = 1;
nodes = (
"822 733 LINE",
"685 733 LINE",
"292 309 LINE",
"292 170 LINE"
);
},
{
closed = 1;
nodes = (
"318 0 LINE",
"318 733 LINE",
"209 733 LINE",
"209 0 LINE"
);
},
{
closed = 1;
nodes = (
"828 0 LINE",
"494 462 LINE",
"427 382 LINE",
"700 0 LINE"
);
}
);
width = 1000;
}
);
},
{
glyphname = L.full.vert;
lastChange = "2020-04-23 09:20:25 +0000";
layers = (
{
anchors = (
{
name = BSB;
position = "{500, -70}";
},
{
name = TSB;
position = "{500, 803}";
}
);
layerId = "BE1754C0-A605-45AC-AA12-D3A1FC0C380B";
paths = (
{
closed = 1;
nodes = (
"308 0 LINE",
"308 733 LINE",
"199 733 LINE",
"199 0 LINE"
);
},
{
closed = 1;
nodes = (
"801 0 LINE",
"801 97 LINE",
"255 97 LINE",
"255 0 LINE"
);
}
);
width = 1000;
}
);
},
{
glyphname = M.full.vert;
lastChange = "2020-04-23 09:20:25 +0000";
layers = (
{
anchors = (
{
name = BSB;
position = "{500, -70}";
},
{
name = TSB;
position = "{500, 803}";
}
);
layerId = "BE1754C0-A605-45AC-AA12-D3A1FC0C380B";
paths = (
{
closed = 1;
nodes = (
"541 0 LINE",
"528 98 LINE",
"265 733 LINE",
"152 733 LINE",
"459 0 LINE"
);
},
{
closed = 1;
nodes = (
"226 0 LINE",
"226 733 LINE",
"122 733 LINE",
"122 0 LINE"
);
},
{
closed = 1;
nodes = (
"541 0 LINE",
"847 733 LINE",
"735 733 LINE",
"471 98 LINE",
"459 0 LINE"
);
},
{
closed = 1;
nodes = (
"877 0 LINE",
"877 733 LINE",
"773 733 LINE",
"773 0 LINE"
);
}
);
width = 1000;
}
);
},
{
glyphname = N.full.vert;
lastChange = "2020-04-23 09:20:25 +0000";
layers = (
{
anchors = (
{
name = BSB;
position = "{500, -70}";
},
{
name = TSB;
position = "{500, 803}";
}
);
layerId = "BE1754C0-A605-45AC-AA12-D3A1FC0C380B";
paths = (
{
closed = 1;
nodes = (
"295 0 LINE",
"295 733 LINE",
"190 733 LINE",
"190 0 LINE"
);
},
{
closed = 1;
nodes = (
"810 0 LINE",
"810 733 LINE",
"706 733 LINE",
"706 0 LINE"
);
},
{
closed = 1;
nodes = (
"300 733 LINE",
"190 733 LINE",
"190 709 LINE",
"703 0 LINE",
"810 0 LINE",
"810 24 LINE"
);
}
);
width = 1000;
}
);
},
{
glyphname = O.full.vert;
lastChange = "2020-04-23 09:20:25 +0000";
layers = (
{
anchors = (
{
name = BSB;
position = "{500, -82}";
},
{
name = TSB;
position = "{500, 815}";
}
);
layerId = "BE1754C0-A605-45AC-AA12-D3A1FC0C380B";
paths = (
{
closed = 1;
nodes = (
"732 -12 OFFCURVE",
"859 151 OFFCURVE",
"859 367 CURVE SMOOTH",
"859 582 OFFCURVE",
"732 745 OFFCURVE",
"499 745 CURVE SMOOTH",
"267 745 OFFCURVE",
"140 582 OFFCURVE",
"140 367 CURVE SMOOTH",
"140 151 OFFCURVE",
"267 -12 OFFCURVE",
"499 -12 CURVE SMOOTH"
);
},
{
closed = 1;
nodes = (
"326 87 OFFCURVE",
"256 226 OFFCURVE",
"256 367 CURVE SMOOTH",
"256 507 OFFCURVE",
"326 646 OFFCURVE",
"499 646 CURVE SMOOTH",
"673 646 OFFCURVE",
"743 507 OFFCURVE",
"743 367 CURVE SMOOTH",
"743 226 OFFCURVE",
"673 87 OFFCURVE",
"499 87 CURVE SMOOTH"
);
}
);
width = 1000;
}
);
},
{
glyphname = P.full.vert;
lastChange = "2020-04-23 09:20:25 +0000";
layers = (
{
anchors = (
{
name = BSB;
position = "{500, -70}";
},
{
name = TSB;
position = "{500, 803.889}";
}
);
layerId = "BE1754C0-A605-45AC-AA12-D3A1FC0C380B";
paths = (
{
closed = 1;
nodes = (
"274 307 OFFCURVE",
"501 305 OFFCURVE",
"567 307 CURVE SMOOTH",
"691 311 OFFCURVE",
"799 364 OFFCURVE",
"799 520 CURVE SMOOTH",
"799 676 OFFCURVE",
"691 729 OFFCURVE",
"567 733 CURVE SMOOTH",
"501 735 OFFCURVE",
"274 733 OFFCURVE",
"274 733 CURVE",
"274 637 LINE",
"505 637 LINE SMOOTH",
"588 637 OFFCURVE",
"689 635 OFFCURVE",
"689 520 CURVE SMOOTH",
"689 405 OFFCURVE",
"588 403 OFFCURVE",
"505 403 CURVE SMOOTH",
"274 403 LINE",
"274 307 LINE"
);
},
{
closed = 1;
nodes = (
"324 0 LINE",
"324 733 LINE",
"215 733 LINE",
"215 0 LINE"
);
}
);
width = 1000;
}
);
},
{
glyphname = Q.full.vert;
lastChange = "2020-05-04 09:09:44 +0000";
layers = (
{
anchors = (
{
name = BSB;
position = "{517, -104}";
},
{
name = TSB;
position = "{517, 815}";
}
);
layerId = "BE1754C0-A605-45AC-AA12-D3A1FC0C380B";
paths = (
{
closed = 1;
nodes = (
"732 -12 OFFCURVE",
"859 151 OFFCURVE",
"859 367 CURVE SMOOTH",
"859 582 OFFCURVE",
"732 745 OFFCURVE",
"500 745 CURVE SMOOTH",
"267 745 OFFCURVE",
"140 582 OFFCURVE",
"140 367 CURVE SMOOTH",
"140 151 OFFCURVE",
"267 -12 OFFCURVE",
"500 -12 CURVE SMOOTH"
);
},
{
closed = 1;
nodes = (
"905 53 LINE",
"777 95 OFFCURVE",
"747 213 OFFCURVE",
"617 247 CURVE",
"552 168 LINE",
"664 148 OFFCURVE",
"716 9 OFFCURVE",
"837 -34 CURVE"
);
},
{
closed = 1;
nodes = (
"326 87 OFFCURVE",
"256 226 OFFCURVE",
"256 367 CURVE SMOOTH",
"256 507 OFFCURVE",
"326 646 OFFCURVE",
"500 646 CURVE SMOOTH",
"673 646 OFFCURVE",
"743 507 OFFCURVE",
"743 367 CURVE SMOOTH",
"743 226 OFFCURVE",
"673 87 OFFCURVE",
"500 87 CURVE SMOOTH"
);
}
);
width = 1000;
}
);
},
{
glyphname = R.full.vert;
lastChange = "2020-04-23 09:20:25 +0000";
layers = (
{
anchors = (
{
name = BSB;
position = "{500, -70}";
},
{
name = TSB;
position = "{500, 803.889}";
}
);
layerId = "BE1754C0-A605-45AC-AA12-D3A1FC0C380B";
paths = (
{
closed = 1;
nodes = (
"258 307 OFFCURVE",
"505 305 OFFCURVE",
"571 307 CURVE SMOOTH",
"695 311 OFFCURVE",
"803 364 OFFCURVE",
"803 520 CURVE SMOOTH",
"803 676 OFFCURVE",
"695 729 OFFCURVE",
"571 733 CURVE SMOOTH",
"505 735 OFFCURVE",
"258 733 OFFCURVE",
"258 733 CURVE",
"258 637 LINE",
"509 637 LINE SMOOTH",
"592 637 OFFCURVE",
"693 635 OFFCURVE",
"693 520 CURVE SMOOTH",
"693 405 OFFCURVE",
"592 403 OFFCURVE",
"509 403 CURVE SMOOTH",
"258 403 LINE",
"258 307 LINE"
);
},
{
closed = 1;
nodes = (
"307 0 LINE",
"307 733 LINE",
"198 733 LINE",
"198 0 LINE"
);
},
{
closed = 1;
nodes = (
"834 0 LINE",
"580 377 LINE",
"451 377 LINE",
"699 0 LINE"
);
}
);
width = 1000;
}
);
},
{
glyphname = S.full.vert;
lastChange = "2020-04-23 09:20:25 +0000";
layers = (
{
anchors = (
{
name = BSB;
position = "{500, -82}";
},
{
name = TSB;
position = "{500, 815}";
}
);
layerId = "BE1754C0-A605-45AC-AA12-D3A1FC0C380B";
paths = (
{
closed = 1;
nodes = (
"495 443 OFFCURVE",
"347 458 OFFCURVE",
"347 546 CURVE",
"347 566 OFFCURVE",
"360 647 OFFCURVE",
"493 647 CURVE",
"564 647 OFFCURVE",
"626 626 OFFCURVE",
"671 564 CURVE",
"772 631 LINE",
"692 712 OFFCURVE",
"615 745 OFFCURVE",
"484 745 CURVE",
"296 745 OFFCURVE",
"229 611 OFFCURVE",
"229 537 CURVE",
"229 490 OFFCURVE",
"237 396 OFFCURVE",
"387 353 CURVE",
"513 316 OFFCURVE",
"682 297 OFFCURVE",
"688 198 CURVE",
"693 95 OFFCURVE",
"566 86 OFFCURVE",
"525 86 CURVE",
"466 86 OFFCURVE",
"344 98 OFFCURVE",
"286 216 CURVE",
"195 147 LINE",
"240 60 OFFCURVE",
"320 -12 OFFCURVE",
"518 -12 CURVE",
"760 -12 OFFCURVE",
"809 122 OFFCURVE",
"804 218 CURVE",
"799 303 OFFCURVE",
"727 374 OFFCURVE",
"628 402 CURVE"
);
}
);
width = 1000;
}
);
},
{
glyphname = T.full.vert;
lastChange = "2020-04-23 09:20:25 +0000";
layers = (
{
anchors = (
{
name = BSB;
position = "{500, -70}";
},
{
name = TSB;
position = "{500, 803}";
}
);
layerId = "BE1754C0-A605-45AC-AA12-D3A1FC0C380B";
paths = (
{
closed = 1;
nodes = (
"554 0 LINE",
"554 733 LINE",
"445 733 LINE",
"445 0 LINE"
);
},
{
closed = 1;
nodes = (
"816 637 LINE",
"816 733 LINE",
"183 733 LINE",
"183 637 LINE"
);
}
);
width = 1000;
}
);
},
{
glyphname = U.full.vert;
lastChange = "2020-04-23 09:20:25 +0000";
layers = (
{
anchors = (
{
name = BSB;
position = "{500, -82}";
},
{
name = TSB;
position = "{500, 803}";
}
);
layerId = "BE1754C0-A605-45AC-AA12-D3A1FC0C380B";
paths = (
{
closed = 1;
nodes = (
"704 -12 OFFCURVE",
"798 108 OFFCURVE",
"798 265 CURVE SMOOTH",
"797 733 LINE",
"689 733 LINE",
"689 733 OFFCURVE",
"690 309 OFFCURVE",
"689 274 CURVE SMOOTH",
"687 191 OFFCURVE",
"657 87 OFFCURVE",
"499 87 CURVE SMOOTH",
"342 87 OFFCURVE",
"310 191 OFFCURVE",
"310 274 CURVE SMOOTH",
"310 309 OFFCURVE",
"310 733 OFFCURVE",
"310 733 CURVE",
"202 733 LINE",
"201 265 LINE SMOOTH",
"201 108 OFFCURVE",
"295 -12 OFFCURVE",
"499 -12 CURVE SMOOTH"
);
}
);
width = 1000;
}
);
},
{
glyphname = V.full.vert;
lastChange = "2020-04-23 09:20:25 +0000";
layers = (
{
anchors = (
{
name = BSB;
position = "{500, -70}";
},
{
name = TSB;
position = "{500, 803}";
}
);
layerId = "BE1754C0-A605-45AC-AA12-D3A1FC0C380B";
paths = (
{
closed = 1;
nodes = (
"557 0 LINE",
"830 733 LINE",
"721 733 LINE",
"443 0 LINE"
);
},
{
closed = 1;
nodes = (
"557 0 LINE",
"279 733 LINE",
"170 733 LINE",
"443 0 LINE"
);
}
);
width = 1000;
}
);
},
{
glyphname = W.full.vert;
lastChange = "2020-04-23 09:20:25 +0000";
layers = (
{
anchors = (
{
name = BSB;
position = "{500, -70}";
},
{
name = TSB;
position = "{500, 803}";
}
);
layerId = "BE1754C0-A605-45AC-AA12-D3A1FC0C380B";
paths = (
{
closed = 1;
nodes = (
"762 0 LINE",
"555 733 LINE",
"445 733 LINE",
"656 0 LINE"
);
},
{
closed = 1;
nodes = (
"344 0 LINE",
"137 733 LINE",
"27 733 LINE",
"238 0 LINE"
);
},
{
closed = 1;
nodes = (
"344 0 LINE",
"554 733 LINE",
"445 733 LINE",
"238 0 LINE"
);
},
{
closed = 1;
nodes = (
"762 0 LINE",
"972 733 LINE",
"863 733 LINE",
"656 0 LINE"
);
}
);
width = 1000;
}
);
},
{
glyphname = X.full.vert;
lastChange = "2020-04-23 09:20:25 +0000";
layers = (
{
anchors = (
{
name = BSB;
position = "{500, -70}";
},
{
name = TSB;
position = "{500, 803}";
}
);
layerId = "BE1754C0-A605-45AC-AA12-D3A1FC0C380B";
paths = (
{
closed = 1;
nodes = (
"833 0 LINE",
"324 733 LINE",
"190 733 LINE",
"703 0 LINE"
);
},
{
closed = 1;
nodes = (
"300 0 LINE",
"809 733 LINE",
"679 733 LINE",
"167 0 LINE"
);
}
);
width = 1000;
}
);
},
{
glyphname = Y.full.vert;
lastChange = "2020-04-23 09:20:25 +0000";
layers = (
{
anchors = (
{
name = BSB;
position = "{500, -70}";
},
{
name = TSB;
position = "{500, 803}";
}
);
layerId = "BE1754C0-A605-45AC-AA12-D3A1FC0C380B";
paths = (
{
closed = 1;
nodes = (
"841 733 LINE",
"711 733 LINE",
"499 430 LINE",
"499 241 LINE"
);
},
{
closed = 1;
nodes = (
"554 0 LINE",
"554 395 LINE",
"445 395 LINE",
"445 0 LINE"
);
},
{
closed = 1;
nodes = (
"499 434 LINE",
"292 733 LINE",
"158 733 LINE",
"499 245 LINE"
);
}
);
width = 1000;
}
);
},
{
glyphname = Z.full.vert;
lastChange = "2020-04-23 09:20:25 +0000";
layers = (
{
anchors = (
{
name = BSB;
position = "{500, -70}";
},
{
name = TSB;
position = "{500, 803}";
}
);
layerId = "BE1754C0-A605-45AC-AA12-D3A1FC0C380B";
paths = (
{
closed = 1;
nodes = (
"302 63 LINE",
"782 637 LINE",
"674 666 LINE",
"204 96 LINE"
);
},
{
closed = 1;
nodes = (
"795 0 LINE",
"795 96 LINE",
"204 96 LINE",
"204 0 LINE"
);
},
{
closed = 1;
nodes = (
"782 637 LINE",
"782 733 LINE",
"239 733 LINE",
"239 637 LINE"
);
}
);
width = 1000;
}
);
},
{
glyphname = a;
lastChange = "2020-05-03 13:00:07 +0000";
layers = (
{
layerId = "BE1754C0-A605-45AC-AA12-D3A1FC0C380B";
paths = (
{
closed = 1;
nodes = (
"584 80 LINE",
"522 91 OFFCURVE",
"518 121 OFFCURVE",
"516 158 CURVE SMOOTH",
"513 221 OFFCURVE",
"518 263 OFFCURVE",
"514 362 CURVE SMOOTH",
"509 479 OFFCURVE",
"412 535 OFFCURVE",
"304 535 CURVE SMOOTH",
"169 535 OFFCURVE",
"100 469 OFFCURVE",
"75 388 CURVE",
"176 359 LINE",
"197 431 OFFCURVE",
"260 447 OFFCURVE",
"305 447 CURVE SMOOTH",
"418 447 OFFCURVE",
"418 357 OFFCURVE",
"418 294 CURVE SMOOTH",
"418 259 OFFCURVE",
"420 214 OFFCURVE",
"420 172 CURVE SMOOTH",
"420 77 OFFCURVE",
"430 0 OFFCURVE",
"537 -13 CURVE"
);
},
{
closed = 1;
nodes = (
"416 -13 OFFCURVE",
"461 80 OFFCURVE",
"461 205 CURVE",
"416 244 LINE",
"416 104 OFFCURVE",
"313 73 OFFCURVE",
"266 73 CURVE SMOOTH",
"227 73 OFFCURVE",
"150 81 OFFCURVE",
"151 145 CURVE SMOOTH",
"153 253 OFFCURVE",
"388 223 OFFCURVE",
"466 254 CURVE",
"466 343 LINE",
"395 308 OFFCURVE",
"283 322 OFFCURVE",
"189 298 CURVE SMOOTH",
"94 274 OFFCURVE",
"55 207 OFFCURVE",
"55 141 CURVE SMOOTH",
"55 85 OFFCURVE",
"96 -13 OFFCURVE",
"249 -13 CURVE SMOOTH"
);
}
);
width = 610;
}
);
unicode = 0061;
},
{
glyphname = b;
lastChange = "2020-04-22 09:09:15 +0000";
layers = (
{
layerId = "BE1754C0-A605-45AC-AA12-D3A1FC0C380B";
paths = (
{
closed = 1;
nodes = (
"551 -13 OFFCURVE",
"584 168 OFFCURVE",
"584 262 CURVE SMOOTH",
"584 356 OFFCURVE",
"551 537 OFFCURVE",
"343 537 CURVE SMOOTH",
"173 537 OFFCURVE",
"128 389 OFFCURVE",
"128 262 CURVE SMOOTH",
"128 135 OFFCURVE",
"173 -13 OFFCURVE",
"343 -13 CURVE SMOOTH"
);
},
{
closed = 1;
nodes = (
"189 0 LINE",
"189 94 LINE",
"151 262 LINE",
"189 435 LINE",
"189 736 LINE",
"87 736 LINE",
"87 0 LINE"
);
},
{
closed = 1;
nodes = (
"224 79 OFFCURVE",
"188 170 OFFCURVE",
"188 262 CURVE SMOOTH",
"188 354 OFFCURVE",
"224 445 OFFCURVE",
"333 445 CURVE SMOOTH",
"443 445 OFFCURVE",
"483 354 OFFCURVE",
"483 262 CURVE SMOOTH",
"483 170 OFFCURVE",
"443 79 OFFCURVE",
"333 79 CURVE SMOOTH"
);
}
);
width = 633;
}
);
unicode = 0062;
},
{
glyphname = c;
lastChange = "2020-04-22 09:09:27 +0000";
layers = (
{
layerId = "BE1754C0-A605-45AC-AA12-D3A1FC0C380B";
paths = (
{
closed = 1;
nodes = (
"444 133 OFFCURVE",
"397 79 OFFCURVE",
"308 79 CURVE",
"192 79 OFFCURVE",
"149 170 OFFCURVE",
"149 262 CURVE",
"149 354 OFFCURVE",
"192 445 OFFCURVE",
"308 445 CURVE",
"397 445 OFFCURVE",
"444 391 OFFCURVE",
"461 324 CURVE",
"553 359 LINE",
"528 446 OFFCURVE",
"461 537 OFFCURVE",
"308 537 CURVE",
"91 537 OFFCURVE",
"48 356 OFFCURVE",
"48 262 CURVE",
"48 168 OFFCURVE",
"91 -13 OFFCURVE",
"308 -13 CURVE",
"461 -13 OFFCURVE",
"528 78 OFFCURVE",
"553 165 CURVE",
"461 200 LINE"
);
}
);
width = 581;
}
);
unicode = 0063;
},
{
glyphname = d;
lastChange = "2020-04-22 09:09:43 +0000";
layers = (
{
layerId = "BE1754C0-A605-45AC-AA12-D3A1FC0C380B";
paths = (
{
closed = 1;
nodes = (
"461 -13 OFFCURVE",
"506 135 OFFCURVE",
"506 262 CURVE SMOOTH",
"506 389 OFFCURVE",
"461 537 OFFCURVE",
"290 537 CURVE SMOOTH",
"83 537 OFFCURVE",
"50 356 OFFCURVE",
"50 262 CURVE SMOOTH",
"50 168 OFFCURVE",
"83 -13 OFFCURVE",
"290 -13 CURVE SMOOTH"
);
},
{
closed = 1;
nodes = (
"191 79 OFFCURVE",
"150 170 OFFCURVE",
"150 262 CURVE SMOOTH",
"150 354 OFFCURVE",
"191 445 OFFCURVE",
"301 445 CURVE SMOOTH",
"410 445 OFFCURVE",
"446 354 OFFCURVE",
"446 262 CURVE SMOOTH",
"446 170 OFFCURVE",
"410 79 OFFCURVE",
"301 79 CURVE SMOOTH"
);
},
{
closed = 1;
nodes = (
"547 0 LINE",
"547 736 LINE",
"445 736 LINE",
"445 435 LINE",
"483 262 LINE",
"445 94 LINE",
"445 0 LINE"
);
}
);
width = 633;
}
);
unicode = 0064;
},
{
glyphname = e;
lastChange = "2020-04-22 09:09:56 +0000";
layers = (
{
layerId = "BE1754C0-A605-45AC-AA12-D3A1FC0C380B";
paths = (
{
closed = 1;
nodes = (
"436 -13 OFFCURVE",
"504 62 OFFCURVE",
"533 140 CURVE",
"433 172 LINE",
"403 106 OFFCURVE",
"371 79 OFFCURVE",
"300 79 CURVE SMOOTH",
"192 79 OFFCURVE",
"152 170 OFFCURVE",
"152 262 CURVE SMOOTH",
"152 354 OFFCURVE",
"192 445 OFFCURVE",
"300 445 CURVE SMOOTH",
"409 445 OFFCURVE",
"449 354 OFFCURVE",
"449 262 CURVE SMOOTH",
"449 253 OFFCURVE",
"449 245 OFFCURVE",
"448 236 CURVE",
"552 235 LINE",
"553 245 OFFCURVE",
"553 254 OFFCURVE",
"553 262 CURVE SMOOTH",
"553 356 OFFCURVE",
"511 537 OFFCURVE",
"300 537 CURVE SMOOTH",
"90 537 OFFCURVE",
"48 356 OFFCURVE",
"48 262 CURVE SMOOTH",
"48 168 OFFCURVE",
"90 -13 OFFCURVE",
"300 -13 CURVE SMOOTH"
);
},
{
closed = 1;
nodes = (
"477 235 LINE",
"477 319 LINE",
"113 319 LINE",
"49 235 LINE"
);
},
{
closed = 1;
nodes = (
"552 235 LINE",
"487 319 LINE",
"124 319 LINE",
"124 235 LINE"
);
}
);
width = 595;
}
);
unicode = 0065;
},
{
glyphname = f;
lastChange = "2020-04-22 09:16:43 +0000";
layers = (
{
layerId = "BE1754C0-A605-45AC-AA12-D3A1FC0C380B";
paths = (
{
closed = 1;
nodes = (
"227 0 LINE",
"227 584 LINE SMOOTH",
"227 670 OFFCURVE",
"269 658 OFFCURVE",
"336 646 CURVE",
"336 743 LINE",
"140 787 OFFCURVE",
"120 656 OFFCURVE",
"120 591 CURVE SMOOTH",
"120 0 LINE"
);
},
{
closed = 1;
nodes = (
"334 440 LINE",
"334 524 LINE",
"31 524 LINE",
"31 440 LINE"
);
}
);
width = 336;
}
);
unicode = 0066;
},
{
glyphname = g;
lastChange = "2020-04-22 09:10:31 +0000";
layers = (
{
layerId = "BE1754C0-A605-45AC-AA12-D3A1FC0C380B";
paths = (
{
closed = 1;
nodes = (
"486 -237 OFFCURVE",
"579 -179 OFFCURVE",
"579 -78 CURVE SMOOTH",
"579 23 OFFCURVE",
"510 62 OFFCURVE",
"429 79 CURVE SMOOTH",
"334 98 OFFCURVE",
"192 96 OFFCURVE",
"169 120 CURVE SMOOTH",
"141 148 OFFCURVE",
"210 188 OFFCURVE",
"283 187 CURVE",
"200 225 LINE",
"126 200 OFFCURVE",
"67 157 OFFCURVE",
"67 107 CURVE SMOOTH",
"67 56 OFFCURVE",
"106 19 OFFCURVE",
"242 7 CURVE SMOOTH",
"377 -4 OFFCURVE",
"472 -7 OFFCURVE",
"472 -73 CURVE SMOOTH",
"472 -122 OFFCURVE",
"414 -154 OFFCURVE",
"312 -153 CURVE SMOOTH",
"198 -152 OFFCURVE",
"147 -111 OFFCURVE",
"147 -76 CURVE SMOOTH",
"147 -43 OFFCURVE",
"171 7 OFFCURVE",
"286 12 CURVE",
"208 53 LINE",
"136 34 OFFCURVE",
"47 -6 OFFCURVE",
"47 -94 CURVE SMOOTH",
"47 -199 OFFCURVE",
"146 -237 OFFCURVE",
"316 -237 CURVE SMOOTH"
);
},
{
closed = 1;
nodes = (
"368 167 OFFCURVE",
"516 198 OFFCURVE",
"516 352 CURVE SMOOTH",
"516 506 OFFCURVE",
"368 537 OFFCURVE",
"291 537 CURVE SMOOTH",
"214 537 OFFCURVE",
"65 506 OFFCURVE",
"65 352 CURVE SMOOTH",
"65 198 OFFCURVE",
"214 167 OFFCURVE",
"291 167 CURVE SMOOTH"
);
},
{
closed = 1;
nodes = (
"230 250 OFFCURVE",
"170 277 OFFCURVE",
"170 352 CURVE SMOOTH",
"170 427 OFFCURVE",
"230 455 OFFCURVE",
"291 455 CURVE SMOOTH",
"352 455 OFFCURVE",
"413 427 OFFCURVE",
"413 352 CURVE SMOOTH",
"413 277 OFFCURVE",
"352 250 OFFCURVE",
"291 250 CURVE SMOOTH"
);
},
{
closed = 1;
nodes = (
"477 544 OFFCURVE",
"565 516 OFFCURVE",
"590 495 CURVE",
"591 595 LINE",
"572 602 OFFCURVE",
"550 607 OFFCURVE",
"528 607 CURVE SMOOTH",
"444 607 OFFCURVE",
"400 547 OFFCURVE",
"375 495 CURVE",
"440 431 LINE"
);
}
);
width = 606;
}
);
unicode = 0067;
},
{
glyphname = h;
lastChange = "2020-04-22 09:10:52 +0000";
layers = (
{
layerId = "BE1754C0-A605-45AC-AA12-D3A1FC0C380B";
paths = (
{
closed = 1;
nodes = (
"549 0 LINE",
"549 0 OFFCURVE",
"551 268 OFFCURVE",
"549 334 CURVE SMOOTH",
"544 511 OFFCURVE",
"413 537 OFFCURVE",
"346 537 CURVE SMOOTH",
"299 537 OFFCURVE",
"232 509 OFFCURVE",
"194 454 CURVE",
"194 257 LINE SMOOTH",
"194 385 OFFCURVE",
"272 440 OFFCURVE",
"337 440 CURVE SMOOTH",
"396 440 OFFCURVE",
"437 394 OFFCURVE",
"442 317 CURVE SMOOTH",
"444 283 OFFCURVE",
"442 0 OFFCURVE",
"442 0 CURVE"
);
},
{
closed = 1;
nodes = (
"194 0 LINE",
"194 736 LINE",
"87 736 LINE",
"87 0 LINE"
);
}
);
width = 627;
}
);
unicode = 0068;
},
{
glyphname = i;
lastChange = "2020-04-22 09:11:15 +0000";
layers = (
{
layerId = "BE1754C0-A605-45AC-AA12-D3A1FC0C380B";
paths = (
{
closed = 1;
nodes = (
"191 0 LINE",
"191 524 LINE",
"84 524 LINE",
"84 0 LINE"
);
},
{
closed = 1;
nodes = (
"174 628 OFFCURVE",
"203 657 OFFCURVE",
"203 693 CURVE SMOOTH",
"203 729 OFFCURVE",
"174 758 OFFCURVE",
"138 758 CURVE SMOOTH",
"102 758 OFFCURVE",
"73 729 OFFCURVE",
"73 693 CURVE SMOOTH",
"73 657 OFFCURVE",
"102 628 OFFCURVE",
"138 628 CURVE SMOOTH"
);
}
);
width = 276;
}
);
unicode = 0069;
},
{
glyphname = j;
lastChange = "2020-04-22 09:12:00 +0000";
layers = (
{
layerId = "BE1754C0-A605-45AC-AA12-D3A1FC0C380B";
paths = (
{
closed = 1;
nodes = (
"175 -274 OFFCURVE",
"195 -143 OFFCURVE",
"195 -78 CURVE SMOOTH",
"195 524 LINE",
"89 524 LINE",
"89 -71 LINE SMOOTH",
"89 -157 OFFCURVE",
"46 -146 OFFCURVE",
"-20 -133 CURVE",
"-20 -230 LINE"
);
},
{
closed = 1;
nodes = (
"178 628 OFFCURVE",
"207 657 OFFCURVE",
"207 693 CURVE SMOOTH",
"207 729 OFFCURVE",
"178 758 OFFCURVE",
"142 758 CURVE SMOOTH",
"106 758 OFFCURVE",
"77 729 OFFCURVE",
"77 693 CURVE SMOOTH",
"77 657 OFFCURVE",
"106 628 OFFCURVE",
"142 628 CURVE SMOOTH"
);
}
);
width = 280;
}
);
unicode = 006A;
},
{
glyphname = k;
lastChange = "2020-04-22 09:12:17 +0000";
layers = (
{
layerId = "BE1754C0-A605-45AC-AA12-D3A1FC0C380B";
paths = (
{
closed = 1;
nodes = (
"550 524 LINE",
"419 524 LINE",
"144 261 LINE",
"144 135 LINE"
);
},
{
closed = 1;
nodes = (
"190 0 LINE",
"190 736 LINE",
"87 736 LINE",
"87 0 LINE"
);
},
{
closed = 1;
nodes = (
"543 0 LINE",
"308 356 LINE",
"242 284 LINE",
"426 0 LINE"
);
}
);
width = 559;
}
);
unicode = 006B;
},
{
glyphname = l;
lastChange = "2020-04-22 09:12:40 +0000";
layers = (
{
layerId = "BE1754C0-A605-45AC-AA12-D3A1FC0C380B";
paths = (
{
closed = 1;
nodes = (
"194 0 LINE",
"194 736 LINE",
"87 736 LINE",
"87 0 LINE"
);
}
);
width = 281;
}
);
unicode = 006C;
},
{
glyphname = m;
lastChange = "2020-04-22 09:12:54 +0000";
layers = (
{
layerId = "BE1754C0-A605-45AC-AA12-D3A1FC0C380B";
paths = (
{
closed = 1;
nodes = (
"796 0 LINE",
"796 0 OFFCURVE",
"798 268 OFFCURVE",
"796 334 CURVE SMOOTH",
"792 511 OFFCURVE",
"690 537 OFFCURVE",
"619 537 CURVE SMOOTH",
"525 537 OFFCURVE",
"475 457 OFFCURVE",
"436 386 CURVE",
"495 269 LINE",
"495 404 OFFCURVE",
"565 444 OFFCURVE",
"611 440 CURVE SMOOTH",
"663 436 OFFCURVE",
"690 394 OFFCURVE",
"694 317 CURVE SMOOTH",
"695 283 OFFCURVE",
"694 0 OFFCURVE",
"694 0 CURVE"
);
},
{
closed = 1;
nodes = (
"193 0 LINE",
"193 524 LINE",
"87 524 LINE",
"87 0 LINE"
);
},
{
closed = 1;
nodes = (
"497 0 LINE",
"497 0 OFFCURVE",
"498 268 OFFCURVE",
"497 334 CURVE SMOOTH",
"492 511 OFFCURVE",
"386 537 OFFCURVE",
"316 537 CURVE SMOOTH",
"278 537 OFFCURVE",
"221 518 OFFCURVE",
"192 463 CURVE",
"192 269 LINE SMOOTH",
"192 397 OFFCURVE",
"261 444 OFFCURVE",
"308 440 CURVE SMOOTH",
"359 436 OFFCURVE",
"387 394 OFFCURVE",
"390 317 CURVE SMOOTH",
"392 283 OFFCURVE",
"390 0 OFFCURVE",
"390 0 CURVE"
);
}
);
width = 876;
}
);
unicode = 006D;
},
{
glyphname = n;
lastChange = "2020-04-22 09:13:06 +0000";
layers = (
{
layerId = "BE1754C0-A605-45AC-AA12-D3A1FC0C380B";
paths = (
{
closed = 1;
nodes = (
"549 0 LINE",
"549 0 OFFCURVE",
"551 268 OFFCURVE",
"549 334 CURVE SMOOTH",
"544 511 OFFCURVE",
"413 537 OFFCURVE",
"346 537 CURVE SMOOTH",
"298 537 OFFCURVE",
"232 509 OFFCURVE",
"194 454 CURVE",
"194 257 LINE SMOOTH",
"194 385 OFFCURVE",
"272 440 OFFCURVE",
"337 440 CURVE SMOOTH",
"396 440 OFFCURVE",
"438 394 OFFCURVE",
"442 317 CURVE SMOOTH",
"444 283 OFFCURVE",
"442 0 OFFCURVE",
"442 0 CURVE"
);
},
{
closed = 1;
nodes = (
"194 0 LINE",
"194 524 LINE",
"87 524 LINE",
"87 0 LINE"
);
}
);
width = 630;
}
);
unicode = 006E;
},
{
glyphname = o;
lastChange = "2020-04-26 11:37:40 +0000";
layers = (
{
layerId = "BE1754C0-A605-45AC-AA12-D3A1FC0C380B";
paths = (
{
closed = 1;
nodes = (
"524 -13 OFFCURVE",
"568 168 OFFCURVE",
"568 262 CURVE SMOOTH",
"568 356 OFFCURVE",
"524 537 OFFCURVE",
"308 537 CURVE SMOOTH",
"91 537 OFFCURVE",
"48 356 OFFCURVE",
"48 262 CURVE SMOOTH",
"48 168 OFFCURVE",
"91 -13 OFFCURVE",
"308 -13 CURVE SMOOTH"
);
},
{
closed = 1;
nodes = (
"192 79 OFFCURVE",
"149 170 OFFCURVE",
"149 262 CURVE SMOOTH",
"149 354 OFFCURVE",
"192 445 OFFCURVE",
"308 445 CURVE SMOOTH",
"424 445 OFFCURVE",
"467 354 OFFCURVE",
"467 262 CURVE SMOOTH",
"467 170 OFFCURVE",
"424 79 OFFCURVE",
"308 79 CURVE SMOOTH"
);
}
);
width = 616;
}
);
unicode = 006F;
},
{
glyphname = p;
lastChange = "2020-04-22 09:13:28 +0000";
layers = (
{
layerId = "BE1754C0-A605-45AC-AA12-D3A1FC0C380B";
paths = (
{
closed = 1;
nodes = (
"551 -13 OFFCURVE",
"583 168 OFFCURVE",
"583 262 CURVE SMOOTH",
"583 356 OFFCURVE",
"551 537 OFFCURVE",
"343 537 CURVE SMOOTH",
"173 537 OFFCURVE",
"128 389 OFFCURVE",
"128 262 CURVE SMOOTH",
"128 135 OFFCURVE",
"173 -13 OFFCURVE",
"343 -13 CURVE SMOOTH"
);
},
{
closed = 1;
nodes = (
"189 -212 LINE",
"189 89 LINE",
"151 262 LINE",
"189 430 LINE",
"189 524 LINE",
"87 524 LINE",
"87 -212 LINE"
);
},
{
closed = 1;
nodes = (
"224 79 OFFCURVE",
"188 170 OFFCURVE",
"188 262 CURVE SMOOTH",
"188 354 OFFCURVE",
"224 445 OFFCURVE",
"333 445 CURVE SMOOTH",
"443 445 OFFCURVE",
"483 354 OFFCURVE",
"483 262 CURVE SMOOTH",
"483 170 OFFCURVE",
"443 79 OFFCURVE",
"333 79 CURVE SMOOTH"
);
}
);
width = 633;
}
);
unicode = 0070;
},
{
glyphname = q;
lastChange = "2020-04-22 09:13:41 +0000";
layers = (
{
layerId = "BE1754C0-A605-45AC-AA12-D3A1FC0C380B";
paths = (
{
closed = 1;
nodes = (
"469 -13 OFFCURVE",
"514 135 OFFCURVE",
"514 262 CURVE SMOOTH",
"514 389 OFFCURVE",
"469 537 OFFCURVE",
"299 537 CURVE SMOOTH",
"92 537 OFFCURVE",
"59 356 OFFCURVE",
"59 262 CURVE SMOOTH",
"59 168 OFFCURVE",
"92 -13 OFFCURVE",
"299 -13 CURVE SMOOTH"
);
},
{
closed = 1;
nodes = (
"200 79 OFFCURVE",
"159 170 OFFCURVE",
"159 262 CURVE SMOOTH",
"159 354 OFFCURVE",
"200 445 OFFCURVE",
"310 445 CURVE SMOOTH",
"418 445 OFFCURVE",
"454 354 OFFCURVE",
"454 262 CURVE SMOOTH",
"454 170 OFFCURVE",
"418 79 OFFCURVE",
"310 79 CURVE SMOOTH"
);
},
{
closed = 1;
nodes = (
"556 -212 LINE",
"556 524 LINE",
"453 524 LINE",
"453 430 LINE",
"492 262 LINE",
"453 89 LINE",
"453 -212 LINE"
);
}
);
width = 643;
}
);
unicode = 0071;
},
{
glyphname = r;
lastChange = "2020-04-22 09:30:02 +0000";
layers = (
{
layerId = "BE1754C0-A605-45AC-AA12-D3A1FC0C380B";
paths = (
{
closed = 1;
nodes = (
"180 2 LINE",
"180 526 LINE",
"73 526 LINE",
"73 2 LINE"
);
},
{
closed = 1;
nodes = (
"180 377 OFFCURVE",
"286 434 OFFCURVE",
"361 420 CURVE",
"361 532 LINE",
"259 532 OFFCURVE",
"208 476 OFFCURVE",
"180 432 CURVE",
"180 286 LINE"
);
}
);
width = 391;
}
);
unicode = 0072;
},
{
glyphname = s;
lastChange = "2020-04-22 09:27:48 +0000";
layers = (
{
layerId = "BE1754C0-A605-45AC-AA12-D3A1FC0C380B";
paths = (
{
closed = 1;
nodes = (
"436 -15 OFFCURVE",
"501 74 OFFCURVE",
"501 152 CURVE SMOOTH",
"501 282 OFFCURVE",
"339 297 OFFCURVE",
"220 330 CURVE SMOOTH",
"166 345 OFFCURVE",
"152 361 OFFCURVE",
"152 382 CURVE SMOOTH",
"152 425 OFFCURVE",
"202 449 OFFCURVE",
"254 449 CURVE SMOOTH",
"314 449 OFFCURVE",
"364 424 OFFCURVE",
"383 369 CURVE",
"477 415 LINE",
"444 505 OFFCURVE",
"348 539 OFFCURVE",
"260 539 CURVE SMOOTH",
"151 539 OFFCURVE",
"49 483 OFFCURVE",
"49 378 CURVE SMOOTH",
"49 254 OFFCURVE",
"183 244 OFFCURVE",
"313 208 CURVE SMOOTH",
"357 196 OFFCURVE",
"394 181 OFFCURVE",
"394 146 CURVE SMOOTH",
"394 105 OFFCURVE",
"347 79 OFFCURVE",
"267 79 CURVE SMOOTH",
"189 79 OFFCURVE",
"137 126 OFFCURVE",
"128 167 CURVE",
"32 114 LINE",
"65 34 OFFCURVE",
"144 -15 OFFCURVE",
"268 -15 CURVE SMOOTH"
);
}
);
width = 533;
}
);
unicode = 0073;
},
{
glyphname = t;
lastChange = "2020-04-22 09:28:27 +0000";
layers = (
{
layerId = "BE1754C0-A605-45AC-AA12-D3A1FC0C380B";
paths = (
{
closed = 1;
nodes = (
"317 111 LINE",
"238 85 OFFCURVE",
"227 92 OFFCURVE",
"227 157 CURVE SMOOTH",
"227 673 LINE",
"121 673 LINE",
"121 104 LINE SMOOTH",
"121 38 OFFCURVE",
"121 -45 OFFCURVE",
"317 -1 CURVE"
);
},
{
closed = 1;
nodes = (
"328 440 LINE",
"328 524 LINE",
"25 524 LINE",
"25 440 LINE"
);
}
);
width = 373;
}
);
unicode = 0074;
},
{
glyphname = u;
lastChange = "2020-04-22 09:18:40 +0000";
layers = (
{
layerId = "BE1754C0-A605-45AC-AA12-D3A1FC0C380B";
paths = (
{
closed = 1;
nodes = (
"331 -8 OFFCURVE",
"398 20 OFFCURVE",
"436 75 CURVE",
"436 272 LINE SMOOTH",
"436 144 OFFCURVE",
"358 89 OFFCURVE",
"293 89 CURVE SMOOTH",
"234 89 OFFCURVE",
"192 135 OFFCURVE",
"188 212 CURVE SMOOTH",
"186 246 OFFCURVE",
"188 529 OFFCURVE",
"188 529 CURVE",
"81 529 LINE",
"81 529 OFFCURVE",
"79 261 OFFCURVE",
"81 195 CURVE SMOOTH",
"86 18 OFFCURVE",
"217 -8 OFFCURVE",
"284 -8 CURVE SMOOTH"
);
},
{
closed = 1;
nodes = (
"543 5 LINE",
"543 529 LINE",
"436 529 LINE",
"436 5 LINE"
);
}
);
width = 630;
}
);
unicode = 0075;
},
{
glyphname = v;
lastChange = "2020-04-22 09:14:42 +0000";
layers = (
{
layerId = "BE1754C0-A605-45AC-AA12-D3A1FC0C380B";
paths = (
{
closed = 1;
nodes = (
"309 6 LINE",
"498 530 LINE",
"392 530 LINE",
"202 6 LINE"
);
},
{
closed = 1;
nodes = (
"309 6 LINE",
"120 530 LINE",
"13 530 LINE",
"202 6 LINE"
);
}
);
width = 511;
}
);
unicode = 0076;
},
{
glyphname = w;
lastChange = "2020-04-22 09:14:59 +0000";
layers = (
{
layerId = "BE1754C0-A605-45AC-AA12-D3A1FC0C380B";
paths = (
{
closed = 1;
nodes = (
"584 0 LINE",
"746 524 LINE",
"644 524 LINE",
"517 114 LINE",
"517 0 LINE"
);
},
{
closed = 1;
nodes = (
"256 0 LINE",
"256 114 LINE",
"129 524 LINE",
"27 524 LINE",
"190 0 LINE"
);
},
{
closed = 1;
nodes = (
"278 0 LINE",
"413 435 LINE",
"413 524 LINE",
"343 524 LINE",
"216 114 LINE",
"216 0 LINE"
);
},
{
closed = 1;
nodes = (
"558 0 LINE",
"558 114 LINE",
"431 524 LINE",
"361 524 LINE",
"361 435 LINE",
"496 0 LINE"
);
}
);
width = 773;
}
);
unicode = 0077;
},
{
glyphname = x;
lastChange = "2020-04-22 09:15:10 +0000";
layers = (
{
layerId = "BE1754C0-A605-45AC-AA12-D3A1FC0C380B";
paths = (
{
closed = 1;
nodes = (
"485 -4 LINE",
"131 520 LINE",
"15 520 LINE",
"368 -4 LINE"
);
},
{
closed = 1;
nodes = (
"131 -4 LINE",
"480 520 LINE",
"363 520 LINE",
"15 -4 LINE"
);
}
);
width = 500;
}
);
unicode = 0078;
},
{
glyphname = y;
lastChange = "2020-04-22 09:15:20 +0000";
layers = (
{
layerId = "BE1754C0-A605-45AC-AA12-D3A1FC0C380B";
paths = (
{
closed = 1;
nodes = (
"187 -256 OFFCURVE",
"241 -204 OFFCURVE",
"281 -91 CURVE SMOOTH",
"321 23 OFFCURVE",
"509 524 OFFCURVE",
"509 524 CURVE",
"407 524 LINE",
"407 524 OFFCURVE",
"207 -15 OFFCURVE",
"188 -62 CURVE SMOOTH",
"173 -100 OFFCURVE",
"157 -195 OFFCURVE",
"33 -138 CURVE",
"33 -240 LINE",
"56 -250 OFFCURVE",
"90 -256 OFFCURVE",
"129 -256 CURVE SMOOTH"
);
},
{
closed = 1;
nodes = (
"312 0 LINE",
"115 524 LINE",
"13 524 LINE",
"210 0 LINE"
);
}
);
width = 522;
}
);
unicode = 0079;
},
{
glyphname = z;
lastChange = "2020-04-22 09:15:51 +0000";
layers = (
{
layerId = "BE1754C0-A605-45AC-AA12-D3A1FC0C380B";
paths = (
{
closed = 1;
nodes = (
"151 91 LINE",
"467 434 LINE",
"340 434 LINE",
"25 91 LINE"
);
},
{
closed = 1;
nodes = (
"467 0 LINE",
"467 91 LINE",
"25 91 LINE",
"25 0 LINE"
);
},
{
closed = 1;
nodes = (
"467 434 LINE",
"467 524 LINE",
"50 524 LINE",
"50 434 LINE"
);
}
);
width = 492;
}
);
unicode = 007A;
},
{
glyphname = a.full;
lastChange = "2020-05-03 13:03:35 +0000";
layers = (
{
anchors = (
{
name = LSB;
position = "{184, 380}";
},
{
name = RSB;
position = "{853, 380}";
}
);
layerId = "BE1754C0-A605-45AC-AA12-D3A1FC0C380B";
paths = (
{
closed = 1;
nodes = (
"783 80 LINE",
"721 91 OFFCURVE",
"717 121 OFFCURVE",
"715 158 CURVE SMOOTH",
"712 221 OFFCURVE",
"717 263 OFFCURVE",
"713 362 CURVE SMOOTH",
"708 479 OFFCURVE",
"611 535 OFFCURVE",
"503 535 CURVE SMOOTH",
"368 535 OFFCURVE",
"299 469 OFFCURVE",
"274 388 CURVE",
"375 359 LINE",
"396 431 OFFCURVE",
"459 447 OFFCURVE",
"504 447 CURVE SMOOTH",
"617 447 OFFCURVE",
"617 357 OFFCURVE",
"617 294 CURVE SMOOTH",
"617 259 OFFCURVE",
"619 214 OFFCURVE",
"619 172 CURVE SMOOTH",
"619 77 OFFCURVE",
"629 0 OFFCURVE",
"736 -13 CURVE"
);
},
{
closed = 1;
nodes = (
"615 -13 OFFCURVE",
"660 80 OFFCURVE",
"660 205 CURVE",
"615 244 LINE",
"615 104 OFFCURVE",
"512 73 OFFCURVE",
"465 73 CURVE SMOOTH",
"426 73 OFFCURVE",
"349 81 OFFCURVE",
"350 145 CURVE SMOOTH",
"352 253 OFFCURVE",
"587 223 OFFCURVE",
"665 254 CURVE",
"665 343 LINE",
"594 308 OFFCURVE",
"482 322 OFFCURVE",
"388 298 CURVE SMOOTH",
"293 274 OFFCURVE",
"254 207 OFFCURVE",
"254 141 CURVE SMOOTH",
"254 85 OFFCURVE",
"295 -13 OFFCURVE",
"448 -13 CURVE SMOOTH"
);
}
);
width = 1000;
}
);
unicode = FF41;
},
{
glyphname = b.full;
lastChange = "2020-04-23 09:20:11 +0000";
layers = (
{
anchors = (
{
name = LSB;
position = "{193, 380}";
},
{
name = RSB;
position = "{830, 380}";
}
);
layerId = "BE1754C0-A605-45AC-AA12-D3A1FC0C380B";
paths = (
{
closed = 1;
nodes = (
"727 -13 OFFCURVE",
"760 168 OFFCURVE",
"760 262 CURVE SMOOTH",
"760 356 OFFCURVE",
"727 537 OFFCURVE",
"519 537 CURVE SMOOTH",
"349 537 OFFCURVE",
"304 389 OFFCURVE",
"304 262 CURVE SMOOTH",
"304 135 OFFCURVE",
"349 -13 OFFCURVE",
"519 -13 CURVE SMOOTH"
);
},
{
closed = 1;
nodes = (
"365 0 LINE",
"365 94 LINE",
"327 262 LINE",
"365 435 LINE",
"365 736 LINE",
"263 736 LINE",
"263 0 LINE"
);
},
{
closed = 1;
nodes = (
"400 79 OFFCURVE",
"364 170 OFFCURVE",
"364 262 CURVE SMOOTH",
"364 354 OFFCURVE",
"400 445 OFFCURVE",
"509 445 CURVE SMOOTH",
"619 445 OFFCURVE",
"659 354 OFFCURVE",
"659 262 CURVE SMOOTH",
"659 170 OFFCURVE",
"619 79 OFFCURVE",
"509 79 CURVE SMOOTH"
);
}
);
width = 998;
}
);
unicode = FF42;
},
{
glyphname = c.full;
lastChange = "2020-04-23 09:20:11 +0000";
layers = (
{
anchors = (
{
name = LSB;
position = "{171, 380}";
},
{
name = RSB;
position = "{816, 380}";
}
);
layerId = "BE1754C0-A605-45AC-AA12-D3A1FC0C380B";
paths = (
{
closed = 1;
nodes = (
"637 133 OFFCURVE",
"590 79 OFFCURVE",
"501 79 CURVE",
"385 79 OFFCURVE",
"342 170 OFFCURVE",
"342 262 CURVE",
"342 354 OFFCURVE",
"385 445 OFFCURVE",
"501 445 CURVE",
"590 445 OFFCURVE",
"637 391 OFFCURVE",
"654 324 CURVE",
"746 359 LINE",
"721 446 OFFCURVE",
"654 537 OFFCURVE",
"501 537 CURVE",
"284 537 OFFCURVE",
"241 356 OFFCURVE",
"241 262 CURVE",
"241 168 OFFCURVE",
"284 -13 OFFCURVE",
"501 -13 CURVE",
"654 -13 OFFCURVE",
"721 78 OFFCURVE",
"746 165 CURVE",
"654 200 LINE"
);
}
);
width = 1000;
}
);
unicode = FF43;
},
{
glyphname = d.full;
lastChange = "2020-04-23 09:20:11 +0000";
layers = (
{
anchors = (
{
name = LSB;
position = "{168, 380}";
},
{
name = RSB;
position = "{805, 380}";
}
);
layerId = "BE1754C0-A605-45AC-AA12-D3A1FC0C380B";
paths = (
{
closed = 1;
nodes = (
"649 -13 OFFCURVE",
"694 135 OFFCURVE",
"694 262 CURVE SMOOTH",
"694 389 OFFCURVE",
"649 537 OFFCURVE",
"478 537 CURVE SMOOTH",
"271 537 OFFCURVE",
"238 356 OFFCURVE",
"238 262 CURVE SMOOTH",
"238 168 OFFCURVE",
"271 -13 OFFCURVE",
"478 -13 CURVE SMOOTH"
);
},
{
closed = 1;
nodes = (
"379 79 OFFCURVE",
"338 170 OFFCURVE",
"338 262 CURVE SMOOTH",
"338 354 OFFCURVE",
"379 445 OFFCURVE",
"489 445 CURVE SMOOTH",
"598 445 OFFCURVE",
"634 354 OFFCURVE",
"634 262 CURVE SMOOTH",
"634 170 OFFCURVE",
"598 79 OFFCURVE",
"489 79 CURVE SMOOTH"
);
},
{
closed = 1;
nodes = (
"735 0 LINE",
"735 736 LINE",
"633 736 LINE",
"633 435 LINE",
"671 262 LINE",
"633 94 LINE",
"633 0 LINE"
);
}
);
width = 1007;
}
);
unicode = FF44;
},
{
glyphname = e.full;
lastChange = "2020-04-23 09:20:11 +0000";
layers = (
{
anchors = (
{
name = LSB;
position = "{177, 380}";
},
{
name = RSB;
position = "{822, 380}";
}
);
layerId = "BE1754C0-A605-45AC-AA12-D3A1FC0C380B";
paths = (
{
closed = 1;
nodes = (
"635 -13 OFFCURVE",
"703 62 OFFCURVE",
"732 140 CURVE",
"632 172 LINE",
"602 106 OFFCURVE",
"570 79 OFFCURVE",
"499 79 CURVE SMOOTH",
"391 79 OFFCURVE",
"351 170 OFFCURVE",
"351 262 CURVE SMOOTH",
"351 354 OFFCURVE",
"391 445 OFFCURVE",
"499 445 CURVE SMOOTH",
"608 445 OFFCURVE",
"648 354 OFFCURVE",
"648 262 CURVE SMOOTH",
"648 253 OFFCURVE",
"648 245 OFFCURVE",
"647 236 CURVE",
"751 235 LINE",
"752 245 OFFCURVE",
"752 254 OFFCURVE",
"752 262 CURVE SMOOTH",
"752 356 OFFCURVE",
"710 537 OFFCURVE",
"499 537 CURVE SMOOTH",
"289 537 OFFCURVE",
"247 356 OFFCURVE",
"247 262 CURVE SMOOTH",
"247 168 OFFCURVE",
"289 -13 OFFCURVE",
"499 -13 CURVE SMOOTH"
);
},
{
closed = 1;
nodes = (
"676 235 LINE",
"676 319 LINE",
"312 319 LINE",
"248 235 LINE"
);
},
{
closed = 1;
nodes = (
"751 235 LINE",
"686 319 LINE",
"323 319 LINE",
"323 235 LINE"
);
}
);
width = 1000;
}
);
unicode = FF45;
},
{
glyphname = f.full;
lastChange = "2020-04-23 09:20:11 +0000";
layers = (
{
anchors = (
{
name = LSB;
position = "{270, 380}";
},
{
name = RSB;
position = "{715, 380}";
}
);
layerId = "BE1754C0-A605-45AC-AA12-D3A1FC0C380B";
paths = (
{
closed = 1;
nodes = (
"536 0 LINE",
"536 584 LINE SMOOTH",
"536 670 OFFCURVE",
"578 658 OFFCURVE",
"645 646 CURVE",
"645 743 LINE",
"449 787 OFFCURVE",
"429 656 OFFCURVE",
"429 591 CURVE SMOOTH",
"429 0 LINE"
);
},
{
closed = 1;
nodes = (
"643 440 LINE",
"643 524 LINE",
"340 524 LINE",
"340 440 LINE"
);
}
);
width = 1000;
}
);
unicode = FF46;
},
{
glyphname = g.full;
lastChange = "2020-04-23 09:20:11 +0000";
layers = (
{
anchors = (
{
name = LSB;
position = "{159, 380}";
},
{
name = RSB;
position = "{843, 380}";
}
);
layerId = "BE1754C0-A605-45AC-AA12-D3A1FC0C380B";
paths = (
{
closed = 1;
nodes = (
"668 -237 OFFCURVE",
"761 -179 OFFCURVE",
"761 -78 CURVE SMOOTH",
"761 23 OFFCURVE",
"692 62 OFFCURVE",
"611 79 CURVE SMOOTH",
"516 99 OFFCURVE",
"374 96 OFFCURVE",
"351 120 CURVE SMOOTH",
"324 149 OFFCURVE",
"392 188 OFFCURVE",
"465 187 CURVE",
"382 225 LINE",
"308 200 OFFCURVE",
"249 157 OFFCURVE",
"249 107 CURVE SMOOTH",
"249 56 OFFCURVE",
"288 19 OFFCURVE",
"424 7 CURVE SMOOTH",
"559 -5 OFFCURVE",
"654 -7 OFFCURVE",
"654 -73 CURVE SMOOTH",
"654 -122 OFFCURVE",
"596 -154 OFFCURVE",
"494 -153 CURVE SMOOTH",
"380 -152 OFFCURVE",
"329 -111 OFFCURVE",
"329 -76 CURVE SMOOTH",
"329 -43 OFFCURVE",
"353 7 OFFCURVE",
"468 12 CURVE",
"390 53 LINE",
"318 34 OFFCURVE",
"229 -6 OFFCURVE",
"229 -94 CURVE SMOOTH",
"229 -199 OFFCURVE",
"328 -237 OFFCURVE",
"498 -237 CURVE SMOOTH"
);
},
{
closed = 1;
nodes = (
"550 167 OFFCURVE",
"698 198 OFFCURVE",
"698 352 CURVE SMOOTH",
"698 506 OFFCURVE",
"550 537 OFFCURVE",
"473 537 CURVE SMOOTH",
"396 537 OFFCURVE",
"247 506 OFFCURVE",
"247 352 CURVE SMOOTH",
"247 198 OFFCURVE",
"396 167 OFFCURVE",
"473 167 CURVE SMOOTH"
);
},
{
closed = 1;
nodes = (
"412 250 OFFCURVE",
"352 277 OFFCURVE",
"352 352 CURVE SMOOTH",
"352 427 OFFCURVE",
"412 455 OFFCURVE",
"473 455 CURVE SMOOTH",
"534 455 OFFCURVE",
"595 427 OFFCURVE",
"595 352 CURVE SMOOTH",
"595 277 OFFCURVE",
"534 250 OFFCURVE",
"473 250 CURVE SMOOTH"
);
},
{
closed = 1;
nodes = (
"659 544 OFFCURVE",
"747 516 OFFCURVE",
"772 495 CURVE",
"773 595 LINE",
"754 602 OFFCURVE",
"732 607 OFFCURVE",
"710 607 CURVE SMOOTH",
"626 607 OFFCURVE",
"582 547 OFFCURVE",
"557 495 CURVE",
"622 431 LINE"
);
}
);
width = 1000;
}
);
unicode = FF47;
},
{
glyphname = h.full;
lastChange = "2020-04-23 09:20:11 +0000";
layers = (
{
anchors = (
{
name = LSB;
position = "{191, 380}";
},
{
name = RSB;
position = "{793.889, 380}";
}
);
layerId = "BE1754C0-A605-45AC-AA12-D3A1FC0C380B";
paths = (
{
closed = 1;
nodes = (
"723 0 LINE",
"723 0 OFFCURVE",
"725 268 OFFCURVE",
"723 334 CURVE SMOOTH",
"718 511 OFFCURVE",
"587 537 OFFCURVE",
"520 537 CURVE SMOOTH",
"473 537 OFFCURVE",
"406 509 OFFCURVE",
"368 454 CURVE",
"368 257 LINE",
"368 385 OFFCURVE",
"446 440 OFFCURVE",
"511 440 CURVE",
"570 440 OFFCURVE",
"611 394 OFFCURVE",
"616 317 CURVE SMOOTH",
"618 283 OFFCURVE",
"616 0 OFFCURVE",
"616 0 CURVE"
);
},
{
closed = 1;
nodes = (
"368 0 LINE",
"368 736 LINE",
"261 736 LINE",
"261 0 LINE"
);
}
);
width = 1000;
}
);
unicode = FF48;
},
{
glyphname = i.full;
lastChange = "2020-04-23 09:20:11 +0000";
layers = (
{
anchors = (
{
name = LSB;
position = "{365, 380}";
},
{
name = RSB;
position = "{635, 380}";
}
);
layerId = "BE1754C0-A605-45AC-AA12-D3A1FC0C380B";
paths = (
{
closed = 1;
nodes = (
"553 0 LINE",
"553 524 LINE",
"446 524 LINE",
"446 0 LINE"
);
},
{
closed = 1;
nodes = (
"536 628 OFFCURVE",
"565 657 OFFCURVE",
"565 693 CURVE SMOOTH",
"565 729 OFFCURVE",
"536 758 OFFCURVE",
"500 758 CURVE SMOOTH",
"464 758 OFFCURVE",
"435 729 OFFCURVE",
"435 693 CURVE SMOOTH",
"435 657 OFFCURVE",
"464 628 OFFCURVE",
"500 628 CURVE SMOOTH"
);
}
);
width = 1000;
}
);
unicode = FF49;
},
{
glyphname = j.full;
lastChange = "2020-04-23 09:20:11 +0000";
layers = (
{
anchors = (
{
name = LSB;
position = "{271, 380}";
},
{
name = RSB;
position = "{638, 380}";
}
);
layerId = "BE1754C0-A605-45AC-AA12-D3A1FC0C380B";
paths = (
{
closed = 1;
nodes = (
"536 -274 OFFCURVE",
"556 -143 OFFCURVE",
"556 -78 CURVE SMOOTH",
"556 524 LINE",
"450 524 LINE",
"450 -71 LINE SMOOTH",
"450 -157 OFFCURVE",
"407 -146 OFFCURVE",
"341 -133 CURVE",
"341 -230 LINE"
);
},
{
closed = 1;
nodes = (
"539 628 OFFCURVE",
"568 657 OFFCURVE",
"568 693 CURVE SMOOTH",
"568 729 OFFCURVE",
"539 758 OFFCURVE",
"503 758 CURVE SMOOTH",
"467 758 OFFCURVE",
"438 729 OFFCURVE",
"438 693 CURVE SMOOTH",
"438 657 OFFCURVE",
"467 628 OFFCURVE",
"503 628 CURVE SMOOTH"
);
}
);
width = 1000;
}
);
unicode = FF4A;
},
{
glyphname = k.full;
lastChange = "2020-04-23 09:20:11 +0000";
layers = (
{
anchors = (
{
name = LSB;
position = "{210, 380}";
},
{
name = RSB;
position = "{813, 380}";
}
);
layerId = "BE1754C0-A605-45AC-AA12-D3A1FC0C380B";
paths = (
{
closed = 1;
nodes = (
"743 524 LINE",
"612 524 LINE",
"337 261 LINE",
"337 135 LINE"
);
},
{
closed = 1;
nodes = (
"383 0 LINE",
"383 736 LINE",
"280 736 LINE",
"280 0 LINE"
);
},
{
closed = 1;
nodes = (
"736 0 LINE",
"501 356 LINE",
"435 284 LINE",
"619 0 LINE"
);
}
);
width = 1000;
}
);
unicode = FF4B;
},
{
glyphname = l.full;
lastChange = "2020-04-23 09:20:11 +0000";
layers = (
{
anchors = (
{
name = LSB;
position = "{376, 380}";
},
{
name = RSB;
position = "{623, 380}";
}
);
layerId = "BE1754C0-A605-45AC-AA12-D3A1FC0C380B";
paths = (
{
closed = 1;
nodes = (
"553 0 LINE",
"553 736 LINE",
"446 736 LINE",
"446 0 LINE"
);
}
);
width = 1000;
}
);
unicode = FF4C;
},
{
glyphname = m.full;
lastChange = "2020-04-23 09:20:11 +0000";
layers = (
{
anchors = (
{
name = LSB;
position = "{75, 380}";
},
{
name = RSB;
position = "{924.889, 380}";
}
);
layerId = "BE1754C0-A605-45AC-AA12-D3A1FC0C380B";
paths = (
{
closed = 1;
nodes = (
"854 0 LINE",
"854 0 OFFCURVE",
"856 268 OFFCURVE",
"854 334 CURVE SMOOTH",
"849 511 OFFCURVE",
"748 537 OFFCURVE",
"677 537 CURVE SMOOTH",
"583 537 OFFCURVE",
"533 457 OFFCURVE",
"494 386 CURVE",
"553 269 LINE",
"553 404 OFFCURVE",
"623 444 OFFCURVE",
"669 440 CURVE SMOOTH",
"721 435 OFFCURVE",
"747 394 OFFCURVE",
"752 317 CURVE SMOOTH",
"754 283 OFFCURVE",
"752 0 OFFCURVE",
"752 0 CURVE"
);
},
{
closed = 1;
nodes = (
"251 0 LINE",
"251 524 LINE",
"145 524 LINE",
"145 0 LINE"
);
},
{
closed = 1;
nodes = (
"555 0 LINE",
"555 0 OFFCURVE",
"556 268 OFFCURVE",
"555 334 CURVE SMOOTH",
"552 511 OFFCURVE",
"444 537 OFFCURVE",
"374 537 CURVE SMOOTH",
"336 537 OFFCURVE",
"279 518 OFFCURVE",
"250 463 CURVE",
"250 269 LINE",
"250 397 OFFCURVE",
"319 444 OFFCURVE",
"366 440 CURVE SMOOTH",
"417 436 OFFCURVE",
"446 394 OFFCURVE",
"448 317 CURVE SMOOTH",
"449 283 OFFCURVE",
"448 0 OFFCURVE",
"448 0 CURVE"
);
}
);
width = 1000;
}
);
unicode = FF4D;
},
{
glyphname = n.full;
lastChange = "2020-04-23 09:20:11 +0000";
layers = (
{
anchors = (
{
name = LSB;
position = "{191, 380}";
},
{
name = RSB;
position = "{793.889, 380}";
}
);
layerId = "BE1754C0-A605-45AC-AA12-D3A1FC0C380B";
paths = (
{
closed = 1;
nodes = (
"723 0 LINE",
"723 0 OFFCURVE",
"725 268 OFFCURVE",
"723 334 CURVE SMOOTH",
"718 511 OFFCURVE",
"587 537 OFFCURVE",
"520 537 CURVE SMOOTH",
"472 537 OFFCURVE",
"406 509 OFFCURVE",
"368 454 CURVE",
"368 257 LINE",
"368 385 OFFCURVE",
"446 440 OFFCURVE",
"511 440 CURVE SMOOTH",
"570 440 OFFCURVE",
"611 394 OFFCURVE",
"616 317 CURVE SMOOTH",
"618 283 OFFCURVE",
"616 0 OFFCURVE",
"616 0 CURVE"
);
},
{
closed = 1;
nodes = (
"368 0 LINE",
"368 524 LINE",
"261 524 LINE",
"261 0 LINE"
);
}
);
width = 1000;
}
);
unicode = FF4E;
},
{
glyphname = o.full;
lastChange = "2020-04-23 09:20:11 +0000";
layers = (
{
anchors = (
{
name = LSB;
position = "{170, 380}";
},
{
name = RSB;
position = "{830, 380}";
}
);
layerId = "BE1754C0-A605-45AC-AA12-D3A1FC0C380B";
paths = (
{
closed = 1;
nodes = (
"716 -13 OFFCURVE",
"760 168 OFFCURVE",
"760 262 CURVE SMOOTH",
"760 356 OFFCURVE",
"716 537 OFFCURVE",
"500 537 CURVE SMOOTH",
"283 537 OFFCURVE",
"240 356 OFFCURVE",
"240 262 CURVE SMOOTH",
"240 168 OFFCURVE",
"283 -13 OFFCURVE",
"500 -13 CURVE SMOOTH"
);
},
{
closed = 1;
nodes = (
"384 79 OFFCURVE",
"341 170 OFFCURVE",
"341 262 CURVE SMOOTH",
"341 354 OFFCURVE",
"384 445 OFFCURVE",
"500 445 CURVE SMOOTH",
"616 445 OFFCURVE",
"659 354 OFFCURVE",
"659 262 CURVE SMOOTH",
"659 170 OFFCURVE",
"616 79 OFFCURVE",
"500 79 CURVE SMOOTH"
);
}
);
width = 1000;
}
);
unicode = FF4F;
},
{
glyphname = p.full;
lastChange = "2020-04-23 09:20:11 +0000";
layers = (
{
anchors = (
{
name = LSB;
position = "{196, 380}";
},
{
name = RSB;
position = "{832, 380}";
}
);
layerId = "BE1754C0-A605-45AC-AA12-D3A1FC0C380B";
paths = (
{
closed = 1;
nodes = (
"730 -13 OFFCURVE",
"762 168 OFFCURVE",
"762 262 CURVE SMOOTH",
"762 356 OFFCURVE",
"730 537 OFFCURVE",
"522 537 CURVE SMOOTH",
"352 537 OFFCURVE",
"307 389 OFFCURVE",
"307 262 CURVE SMOOTH",
"307 135 OFFCURVE",
"352 -13 OFFCURVE",
"522 -13 CURVE SMOOTH"
);
},
{
closed = 1;
nodes = (
"368 -212 LINE",
"368 89 LINE",
"330 262 LINE",
"368 430 LINE",
"368 524 LINE",
"266 524 LINE",
"266 -212 LINE"
);
},
{
closed = 1;
nodes = (
"403 79 OFFCURVE",
"367 170 OFFCURVE",
"367 262 CURVE SMOOTH",
"367 354 OFFCURVE",
"403 445 OFFCURVE",
"512 445 CURVE SMOOTH",
"622 445 OFFCURVE",
"662 354 OFFCURVE",
"662 262 CURVE SMOOTH",
"662 170 OFFCURVE",
"622 79 OFFCURVE",
"512 79 CURVE SMOOTH"
);
}
);
width = 1000;
}
);
unicode = FF50;
},
{
glyphname = q.full;
lastChange = "2020-04-23 09:20:11 +0000";
layers = (
{
anchors = (
{
name = LSB;
position = "{168, 380}";
},
{
name = RSB;
position = "{805, 380}";
}
);
layerId = "BE1754C0-A605-45AC-AA12-D3A1FC0C380B";
paths = (
{
closed = 1;
nodes = (
"648 -13 OFFCURVE",
"693 135 OFFCURVE",
"693 262 CURVE SMOOTH",
"693 389 OFFCURVE",
"648 537 OFFCURVE",
"478 537 CURVE SMOOTH",
"271 537 OFFCURVE",
"238 356 OFFCURVE",
"238 262 CURVE SMOOTH",
"238 168 OFFCURVE",
"271 -13 OFFCURVE",
"478 -13 CURVE SMOOTH"
);
},
{
closed = 1;
nodes = (
"379 79 OFFCURVE",
"338 170 OFFCURVE",
"338 262 CURVE SMOOTH",
"338 354 OFFCURVE",
"379 445 OFFCURVE",
"489 445 CURVE SMOOTH",
"597 445 OFFCURVE",
"633 354 OFFCURVE",
"633 262 CURVE SMOOTH",
"633 170 OFFCURVE",
"597 79 OFFCURVE",
"489 79 CURVE SMOOTH"
);
},
{
closed = 1;
nodes = (
"735 -212 LINE",
"735 524 LINE",
"632 524 LINE",
"632 430 LINE",
"671 262 LINE",
"632 89 LINE",
"632 -212 LINE"
);
}
);
width = 1000;
}
);
unicode = FF51;
},
{
glyphname = r.full;
lastChange = "2020-04-23 09:20:11 +0000";
layers = (
{
anchors = (
{
name = LSB;
position = "{299, 380}";
},
{
name = RSB;
position = "{727, 380}";
}
);
layerId = "BE1754C0-A605-45AC-AA12-D3A1FC0C380B";
paths = (
{
closed = 1;
nodes = (
"476 2 LINE",
"476 526 LINE",
"369 526 LINE",
"369 2 LINE"
);
},
{
closed = 1;
nodes = (
"476 377 OFFCURVE",
"582 434 OFFCURVE",
"657 420 CURVE",
"657 532 LINE",
"555 532 OFFCURVE",
"504 476 OFFCURVE",
"476 432 CURVE",
"476 286 LINE"
);
}
);
width = 1000;
}
);
unicode = FF52;
},
{
glyphname = s.full;
lastChange = "2020-04-23 09:20:11 +0000";
layers = (
{
anchors = (
{
name = LSB;
position = "{195, 380}";
},
{
name = RSB;
position = "{804, 380}";
}
);
layerId = "BE1754C0-A605-45AC-AA12-D3A1FC0C380B";
paths = (
{
closed = 1;
nodes = (
"669 -15 OFFCURVE",
"734 74 OFFCURVE",
"734 152 CURVE SMOOTH",
"734 282 OFFCURVE",
"572 297 OFFCURVE",
"453 330 CURVE SMOOTH",
"399 345 OFFCURVE",
"385 361 OFFCURVE",
"385 382 CURVE SMOOTH",
"385 425 OFFCURVE",
"435 449 OFFCURVE",
"487 449 CURVE SMOOTH",
"547 449 OFFCURVE",
"597 424 OFFCURVE",
"616 369 CURVE",
"710 415 LINE",
"677 505 OFFCURVE",
"581 539 OFFCURVE",
"493 539 CURVE SMOOTH",
"384 539 OFFCURVE",
"282 483 OFFCURVE",
"282 378 CURVE SMOOTH",
"282 254 OFFCURVE",
"416 243 OFFCURVE",
"546 208 CURVE SMOOTH",
"590 196 OFFCURVE",
"627 181 OFFCURVE",
"627 146 CURVE SMOOTH",
"627 105 OFFCURVE",
"580 79 OFFCURVE",
"500 79 CURVE SMOOTH",
"422 79 OFFCURVE",
"370 126 OFFCURVE",
"361 167 CURVE",
"265 114 LINE",
"298 34 OFFCURVE",
"377 -15 OFFCURVE",
"501 -15 CURVE SMOOTH"
);
}
);
width = 1000;
}
);
unicode = FF53;
},
{
glyphname = g.ss01;
lastChange = "2020-04-22 09:10:39 +0000";
layers = (
{
layerId = "BE1754C0-A605-45AC-AA12-D3A1FC0C380B";
paths = (
{
closed = 1;
nodes = (
"483 -238 OFFCURVE",
"541 -121 OFFCURVE",
"544 25 CURVE SMOOTH",
"545 58 OFFCURVE",
"544 524 OFFCURVE",
"544 524 CURVE",
"441 524 LINE",
"441 430 LINE",
"480 262 LINE",
"441 89 LINE",
"441 29 LINE SMOOTH",
"441 -62 OFFCURVE",
"415 -153 OFFCURVE",
"304 -153 CURVE SMOOTH",
"190 -153 OFFCURVE",
"165 -91 OFFCURVE",
"160 -44 CURVE",
"62 -66 LINE",
"73 -150 OFFCURVE",
"125 -238 OFFCURVE",
"299 -238 CURVE SMOOTH"
);
},
{
closed = 1;
nodes = (
"435 -13 OFFCURVE",
"502 135 OFFCURVE",
"502 262 CURVE SMOOTH",
"502 389 OFFCURVE",
"435 537 OFFCURVE",
"287 537 CURVE SMOOTH",
"79 537 OFFCURVE",
"47 356 OFFCURVE",
"47 262 CURVE SMOOTH",
"47 168 OFFCURVE",
"79 -13 OFFCURVE",
"287 -13 CURVE SMOOTH"
);
},
{
closed = 1;
nodes = (
"190 78 OFFCURVE",
"151 170 OFFCURVE",
"151 262 CURVE SMOOTH",
"151 354 OFFCURVE",
"190 445 OFFCURVE",
"297 445 CURVE SMOOTH",
"396 445 OFFCURVE",
"438 354 OFFCURVE",
"438 262 CURVE SMOOTH",
"438 170 OFFCURVE",
"396 78 OFFCURVE",
"297 78 CURVE SMOOTH"
);
}
);
width = 591;
}
);
},
{
glyphname = g.full.ss01;
lastChange = "2020-04-23 09:20:11 +0000";
layers = (
{
anchors = (
{
name = LSB;
position = "{181, 380}";
},
{
name = RSB;
position = "{818.444, 380}";
}
);
layerId = "BE1754C0-A605-45AC-AA12-D3A1FC0C380B";
paths = (
{
closed = 1;
nodes = (
"687 -238 OFFCURVE",
"744 -121 OFFCURVE",
"748 25 CURVE SMOOTH",
"749 58 OFFCURVE",
"748 524 OFFCURVE",
"748 524 CURVE",
"645 524 LINE",
"645 430 LINE",
"684 262 LINE",
"645 89 LINE",
"645 29 LINE SMOOTH",
"645 -62 OFFCURVE",
"619 -153 OFFCURVE",
"508 -153 CURVE SMOOTH",
"394 -153 OFFCURVE",
"369 -91 OFFCURVE",
"364 -44 CURVE",
"266 -66 LINE",
"277 -150 OFFCURVE",
"329 -238 OFFCURVE",
"503 -238 CURVE SMOOTH"
);
},
{
closed = 1;
nodes = (
"639 -13 OFFCURVE",
"706 135 OFFCURVE",
"706 262 CURVE SMOOTH",
"706 389 OFFCURVE",
"639 537 OFFCURVE",
"491 537 CURVE SMOOTH",
"283 537 OFFCURVE",
"251 356 OFFCURVE",
"251 262 CURVE SMOOTH",
"251 168 OFFCURVE",
"283 -13 OFFCURVE",
"491 -13 CURVE SMOOTH"
);
},
{
closed = 1;
nodes = (
"394 78 OFFCURVE",
"355 170 OFFCURVE",
"355 262 CURVE SMOOTH",
"355 354 OFFCURVE",
"394 445 OFFCURVE",
"501 445 CURVE SMOOTH",
"600 445 OFFCURVE",
"642 354 OFFCURVE",
"642 262 CURVE SMOOTH",
"642 170 OFFCURVE",
"600 78 OFFCURVE",
"501 78 CURVE SMOOTH"
);
}
);
width = 1000;
}
);
},
{
glyphname = t.full;
lastChange = "2020-04-23 09:20:11 +0000";
layers = (
{
anchors = (
{
name = LSB;
position = "{262, 380}";
},
{
name = RSB;
position = "{705, 380}";
}
);
layerId = "BE1754C0-A605-45AC-AA12-D3A1FC0C380B";
paths = (
{
closed = 1;
nodes = (
"624 111 LINE",
"545 85 OFFCURVE",
"534 92 OFFCURVE",
"534 157 CURVE SMOOTH",
"534 673 LINE",
"428 673 LINE",
"428 104 LINE SMOOTH",
"428 38 OFFCURVE",
"428 -45 OFFCURVE",
"624 -1 CURVE"
);
},
{
closed = 1;
nodes = (
"635 440 LINE",
"635 524 LINE",
"332 524 LINE",
"332 440 LINE"
);
}
);
width = 1000;
}
);
unicode = FF54;
},
{
glyphname = u.full;
lastChange = "2020-04-23 09:20:11 +0000";
layers = (
{
anchors = (
{
name = LSB;
position = "{206.111, 380}";
},
{
name = RSB;
position = "{809, 380}";
}
);
layerId = "BE1754C0-A605-45AC-AA12-D3A1FC0C380B";
paths = (
{
closed = 1;
nodes = (
"527 -8 OFFCURVE",
"594 20 OFFCURVE",
"632 75 CURVE",
"632 272 LINE",
"632 144 OFFCURVE",
"554 89 OFFCURVE",
"489 89 CURVE SMOOTH",
"430 89 OFFCURVE",
"389 135 OFFCURVE",
"384 212 CURVE SMOOTH",
"382 246 OFFCURVE",
"384 529 OFFCURVE",
"384 529 CURVE",
"277 529 LINE",
"277 529 OFFCURVE",
"275 261 OFFCURVE",
"277 195 CURVE SMOOTH",
"282 18 OFFCURVE",
"413 -8 OFFCURVE",
"480 -8 CURVE SMOOTH"
);
},
{
closed = 1;
nodes = (
"739 5 LINE",
"739 529 LINE",
"632 529 LINE",
"632 5 LINE"
);
}
);
width = 1020;
}
);
unicode = FF55;
},
{
glyphname = v.full;
lastChange = "2020-04-23 09:20:11 +0000";
layers = (
{
anchors = (
{
name = LSB;
position = "{187, 380}";
},
{
name = RSB;
position = "{812, 380}";
}
);
layerId = "BE1754C0-A605-45AC-AA12-D3A1FC0C380B";
paths = (
{
closed = 1;
nodes = (
"553 6 LINE",
"742 530 LINE",
"636 530 LINE",
"446 6 LINE"
);
},
{
closed = 1;
nodes = (
"553 6 LINE",
"364 530 LINE",
"257 530 LINE",
"446 6 LINE"
);
}
);
width = 1000;
}
);
unicode = FF56;
},
{
glyphname = a.full.vert;
lastChange = "2020-05-03 13:03:46 +0000";
layers = (
{
anchors = (
{
name = BSB;
position = "{500, -83}";
},
{
name = TSB;
position = "{500, 605}";
}
);
layerId = "BE1754C0-A605-45AC-AA12-D3A1FC0C380B";
paths = (
{
closed = 1;
nodes = (
"783 80 LINE",
"721 91 OFFCURVE",
"717 121 OFFCURVE",
"715 158 CURVE SMOOTH",
"712 221 OFFCURVE",
"717 263 OFFCURVE",
"713 362 CURVE SMOOTH",
"708 479 OFFCURVE",
"611 535 OFFCURVE",
"503 535 CURVE SMOOTH",
"368 535 OFFCURVE",
"299 469 OFFCURVE",
"274 388 CURVE",
"375 359 LINE",
"396 431 OFFCURVE",
"459 447 OFFCURVE",
"504 447 CURVE SMOOTH",
"617 447 OFFCURVE",
"617 357 OFFCURVE",
"617 294 CURVE SMOOTH",
"617 259 OFFCURVE",
"619 214 OFFCURVE",
"619 172 CURVE SMOOTH",
"619 77 OFFCURVE",
"629 0 OFFCURVE",
"736 -13 CURVE"
);
},
{
closed = 1;
nodes = (
"615 -13 OFFCURVE",
"660 80 OFFCURVE",
"660 205 CURVE",
"615 244 LINE",
"615 104 OFFCURVE",
"512 73 OFFCURVE",
"465 73 CURVE SMOOTH",
"426 73 OFFCURVE",
"349 81 OFFCURVE",
"350 145 CURVE SMOOTH",
"352 253 OFFCURVE",
"587 223 OFFCURVE",
"665 254 CURVE",
"665 343 LINE",
"594 308 OFFCURVE",
"482 322 OFFCURVE",
"388 298 CURVE SMOOTH",
"293 274 OFFCURVE",
"254 207 OFFCURVE",
"254 141 CURVE SMOOTH",
"254 85 OFFCURVE",
"295 -13 OFFCURVE",
"448 -13 CURVE SMOOTH"
);
}
);
vertWidth = 610;
width = 1000;
}
);
},
{
glyphname = b.full.vert;
lastChange = "2020-04-23 09:20:25 +0000";
layers = (
{
anchors = (
{
name = BSB;
position = "{499, -83}";
},
{
name = TSB;
position = "{499, 806}";
}
);
layerId = "BE1754C0-A605-45AC-AA12-D3A1FC0C380B";
paths = (
{
closed = 1;
nodes = (
"727 -13 OFFCURVE",
"760 168 OFFCURVE",
"760 262 CURVE SMOOTH",
"760 356 OFFCURVE",
"727 537 OFFCURVE",
"519 537 CURVE SMOOTH",
"349 537 OFFCURVE",
"304 389 OFFCURVE",
"304 262 CURVE SMOOTH",
"304 135 OFFCURVE",
"349 -13 OFFCURVE",
"519 -13 CURVE SMOOTH"
);
},
{
closed = 1;
nodes = (
"365 0 LINE",
"365 94 LINE",
"327 262 LINE",
"365 435 LINE",
"365 736 LINE",
"263 736 LINE",
"263 0 LINE"
);
},
{
closed = 1;
nodes = (
"400 79 OFFCURVE",
"364 170 OFFCURVE",
"364 262 CURVE SMOOTH",
"364 354 OFFCURVE",
"400 445 OFFCURVE",
"509 445 CURVE SMOOTH",
"619 445 OFFCURVE",
"659 354 OFFCURVE",
"659 262 CURVE SMOOTH",
"659 170 OFFCURVE",
"619 79 OFFCURVE",
"509 79 CURVE SMOOTH"
);
}
);
width = 998;
}
);
},
{
glyphname = c.full.vert;
lastChange = "2020-04-23 09:20:25 +0000";
layers = (
{
anchors = (
{
name = BSB;
position = "{500, -83}";
},
{
name = TSB;
position = "{500, 607}";
}
);
layerId = "BE1754C0-A605-45AC-AA12-D3A1FC0C380B";
paths = (
{
closed = 1;
nodes = (
"637 133 OFFCURVE",
"590 79 OFFCURVE",
"501 79 CURVE",
"385 79 OFFCURVE",
"342 170 OFFCURVE",
"342 262 CURVE",
"342 354 OFFCURVE",
"385 445 OFFCURVE",
"501 445 CURVE",
"590 445 OFFCURVE",
"637 391 OFFCURVE",
"654 324 CURVE",
"746 359 LINE",
"721 446 OFFCURVE",
"654 537 OFFCURVE",
"501 537 CURVE",
"284 537 OFFCURVE",
"241 356 OFFCURVE",
"241 262 CURVE",
"241 168 OFFCURVE",
"284 -13 OFFCURVE",
"501 -13 CURVE",
"654 -13 OFFCURVE",
"721 78 OFFCURVE",
"746 165 CURVE",
"654 200 LINE"
);
}
);
width = 1000;
}
);
},
{
glyphname = d.full.vert;
lastChange = "2020-04-23 09:20:25 +0000";
layers = (
{
anchors = (
{
name = BSB;
position = "{503.5, -83}";
},
{
name = TSB;
position = "{503.5, 806}";
}
);
layerId = "BE1754C0-A605-45AC-AA12-D3A1FC0C380B";
paths = (
{
closed = 1;
nodes = (
"649 -13 OFFCURVE",
"694 135 OFFCURVE",
"694 262 CURVE SMOOTH",
"694 389 OFFCURVE",
"649 537 OFFCURVE",
"478 537 CURVE SMOOTH",
"271 537 OFFCURVE",
"238 356 OFFCURVE",
"238 262 CURVE SMOOTH",
"238 168 OFFCURVE",
"271 -13 OFFCURVE",
"478 -13 CURVE SMOOTH"
);
},
{
closed = 1;
nodes = (
"379 79 OFFCURVE",
"338 170 OFFCURVE",
"338 262 CURVE SMOOTH",
"338 354 OFFCURVE",
"379 445 OFFCURVE",
"489 445 CURVE SMOOTH",
"598 445 OFFCURVE",
"634 354 OFFCURVE",
"634 262 CURVE SMOOTH",
"634 170 OFFCURVE",
"598 79 OFFCURVE",
"489 79 CURVE SMOOTH"
);
},
{
closed = 1;
nodes = (
"735 0 LINE",
"735 736 LINE",
"633 736 LINE",
"633 435 LINE",
"671 262 LINE",
"633 94 LINE",
"633 0 LINE"
);
}
);
width = 1007;
}
);
},
{
glyphname = e.full.vert;
lastChange = "2020-04-23 09:20:25 +0000";
layers = (
{
anchors = (
{
name = BSB;
position = "{500, -83}";
},
{
name = TSB;
position = "{500, 607}";
}
);
layerId = "BE1754C0-A605-45AC-AA12-D3A1FC0C380B";
paths = (
{
closed = 1;
nodes = (
"635 -13 OFFCURVE",
"703 62 OFFCURVE",
"732 140 CURVE",
"632 172 LINE",
"602 106 OFFCURVE",
"570 79 OFFCURVE",
"499 79 CURVE SMOOTH",
"391 79 OFFCURVE",
"351 170 OFFCURVE",
"351 262 CURVE SMOOTH",
"351 354 OFFCURVE",
"391 445 OFFCURVE",
"499 445 CURVE SMOOTH",
"608 445 OFFCURVE",
"648 354 OFFCURVE",
"648 262 CURVE SMOOTH",
"648 253 OFFCURVE",
"648 245 OFFCURVE",
"647 236 CURVE",
"751 235 LINE",
"752 245 OFFCURVE",
"752 254 OFFCURVE",
"752 262 CURVE SMOOTH",
"752 356 OFFCURVE",
"710 537 OFFCURVE",
"499 537 CURVE SMOOTH",
"289 537 OFFCURVE",
"247 356 OFFCURVE",
"247 262 CURVE SMOOTH",
"247 168 OFFCURVE",
"289 -13 OFFCURVE",
"499 -13 CURVE SMOOTH"
);
},
{
closed = 1;
nodes = (
"676 235 LINE",
"676 319 LINE",
"312 319 LINE",
"248 235 LINE"
);
},
{
closed = 1;
nodes = (
"751 235 LINE",
"686 319 LINE",
"323 319 LINE",
"323 235 LINE"
);
}
);
width = 1000;
}
);
},
{
glyphname = f.full.vert;
lastChange = "2020-04-23 09:20:25 +0000";
layers = (
{
anchors = (
{
name = BSB;
position = "{500, -70}";
},
{
name = TSB;
position = "{500, 821.852}";
}
);
layerId = "BE1754C0-A605-45AC-AA12-D3A1FC0C380B";
paths = (
{
closed = 1;
nodes = (
"536 0 LINE",
"536 584 LINE SMOOTH",
"536 670 OFFCURVE",
"578 658 OFFCURVE",
"645 646 CURVE",
"645 743 LINE",
"449 787 OFFCURVE",
"429 656 OFFCURVE",
"429 591 CURVE SMOOTH",
"429 0 LINE"
);
},
{
closed = 1;
nodes = (
"643 440 LINE",
"643 524 LINE",
"340 524 LINE",
"340 440 LINE"
);
}
);
width = 1000;
}
);
},
{
glyphname = g.full.vert;
lastChange = "2020-04-23 09:20:25 +0000";
layers = (
{
anchors = (
{
name = BSB;
position = "{500, -307}";
},
{
name = TSB;
position = "{500, 677}";
}
);
layerId = "BE1754C0-A605-45AC-AA12-D3A1FC0C380B";
paths = (
{
closed = 1;
nodes = (
"668 -237 OFFCURVE",
"761 -179 OFFCURVE",
"761 -78 CURVE SMOOTH",
"761 23 OFFCURVE",
"692 62 OFFCURVE",
"611 79 CURVE SMOOTH",
"516 99 OFFCURVE",
"374 96 OFFCURVE",
"351 120 CURVE SMOOTH",
"324 149 OFFCURVE",
"392 188 OFFCURVE",
"465 187 CURVE",
"382 225 LINE",
"308 200 OFFCURVE",
"249 157 OFFCURVE",
"249 107 CURVE SMOOTH",
"249 56 OFFCURVE",
"288 19 OFFCURVE",
"424 7 CURVE SMOOTH",
"559 -5 OFFCURVE",
"654 -7 OFFCURVE",
"654 -73 CURVE SMOOTH",
"654 -122 OFFCURVE",
"596 -154 OFFCURVE",
"494 -153 CURVE SMOOTH",
"380 -152 OFFCURVE",
"329 -111 OFFCURVE",
"329 -76 CURVE SMOOTH",
"329 -43 OFFCURVE",
"353 7 OFFCURVE",
"468 12 CURVE",
"390 53 LINE",
"318 34 OFFCURVE",
"229 -6 OFFCURVE",
"229 -94 CURVE SMOOTH",
"229 -199 OFFCURVE",
"328 -237 OFFCURVE",
"498 -237 CURVE SMOOTH"
);
},
{
closed = 1;
nodes = (
"550 167 OFFCURVE",
"698 198 OFFCURVE",
"698 352 CURVE SMOOTH",
"698 506 OFFCURVE",
"550 537 OFFCURVE",
"473 537 CURVE SMOOTH",
"396 537 OFFCURVE",
"247 506 OFFCURVE",
"247 352 CURVE SMOOTH",
"247 198 OFFCURVE",
"396 167 OFFCURVE",
"473 167 CURVE SMOOTH"
);
},
{
closed = 1;
nodes = (
"412 250 OFFCURVE",
"352 277 OFFCURVE",
"352 352 CURVE SMOOTH",
"352 427 OFFCURVE",
"412 455 OFFCURVE",
"473 455 CURVE SMOOTH",
"534 455 OFFCURVE",
"595 427 OFFCURVE",
"595 352 CURVE SMOOTH",
"595 277 OFFCURVE",
"534 250 OFFCURVE",
"473 250 CURVE SMOOTH"
);
},
{
closed = 1;
nodes = (
"659 544 OFFCURVE",
"747 516 OFFCURVE",
"772 495 CURVE",
"773 595 LINE",
"754 602 OFFCURVE",
"732 607 OFFCURVE",
"710 607 CURVE SMOOTH",
"626 607 OFFCURVE",
"582 547 OFFCURVE",
"557 495 CURVE",
"622 431 LINE"
);
}
);
width = 1000;
}
);
},
{
glyphname = h.full.vert;
lastChange = "2020-04-23 09:20:25 +0000";
layers = (
{
anchors = (
{
name = BSB;
position = "{500, -70}";
},
{
name = TSB;
position = "{500, 806}";
}
);
layerId = "BE1754C0-A605-45AC-AA12-D3A1FC0C380B";
paths = (
{
closed = 1;
nodes = (
"723 0 LINE",
"723 0 OFFCURVE",
"725 268 OFFCURVE",
"723 334 CURVE SMOOTH",
"718 511 OFFCURVE",
"587 537 OFFCURVE",
"520 537 CURVE SMOOTH",
"473 537 OFFCURVE",
"406 509 OFFCURVE",
"368 454 CURVE",
"368 257 LINE",
"368 385 OFFCURVE",
"446 440 OFFCURVE",
"511 440 CURVE",
"570 440 OFFCURVE",
"611 394 OFFCURVE",
"616 317 CURVE SMOOTH",
"618 283 OFFCURVE",
"616 0 OFFCURVE",
"616 0 CURVE"
);
},
{
closed = 1;
nodes = (
"368 0 LINE",
"368 736 LINE",
"261 736 LINE",
"261 0 LINE"
);
}
);
width = 1000;
}
);
},
{
glyphname = i.full.vert;
lastChange = "2020-04-23 09:20:25 +0000";
layers = (
{
anchors = (
{
name = BSB;
position = "{500, -70}";
},
{
name = TSB;
position = "{500, 828}";
}
);
layerId = "BE1754C0-A605-45AC-AA12-D3A1FC0C380B";
paths = (
{
closed = 1;
nodes = (
"553 0 LINE",
"553 524 LINE",
"446 524 LINE",
"446 0 LINE"
);
},
{
closed = 1;
nodes = (
"536 628 OFFCURVE",
"565 657 OFFCURVE",
"565 693 CURVE SMOOTH",
"565 729 OFFCURVE",
"536 758 OFFCURVE",
"500 758 CURVE SMOOTH",
"464 758 OFFCURVE",
"435 729 OFFCURVE",
"435 693 CURVE SMOOTH",
"435 657 OFFCURVE",
"464 628 OFFCURVE",
"500 628 CURVE SMOOTH"
);
}
);
width = 1000;
}
);
},
{
glyphname = j.full.vert;
lastChange = "2020-04-23 09:20:25 +0000";
layers = (
{
anchors = (
{
name = BSB;
position = "{500, -308.852}";
},
{
name = TSB;
position = "{500, 828}";
}
);
layerId = "BE1754C0-A605-45AC-AA12-D3A1FC0C380B";
paths = (
{
closed = 1;
nodes = (
"536 -274 OFFCURVE",
"556 -143 OFFCURVE",
"556 -78 CURVE SMOOTH",
"556 524 LINE",
"450 524 LINE",
"450 -71 LINE SMOOTH",
"450 -157 OFFCURVE",
"407 -146 OFFCURVE",
"341 -133 CURVE",
"341 -230 LINE"
);
},
{
closed = 1;
nodes = (
"539 628 OFFCURVE",
"568 657 OFFCURVE",
"568 693 CURVE SMOOTH",
"568 729 OFFCURVE",
"539 758 OFFCURVE",
"503 758 CURVE SMOOTH",
"467 758 OFFCURVE",
"438 729 OFFCURVE",
"438 693 CURVE SMOOTH",
"438 657 OFFCURVE",
"467 628 OFFCURVE",
"503 628 CURVE SMOOTH"
);
}
);
width = 1000;
}
);
},
{
glyphname = k.full.vert;
lastChange = "2020-04-23 09:20:25 +0000";
layers = (
{
anchors = (
{
name = BSB;
position = "{500, -70}";
},
{
name = TSB;
position = "{500, 806}";
}
);
layerId = "BE1754C0-A605-45AC-AA12-D3A1FC0C380B";
paths = (
{
closed = 1;
nodes = (
"743 524 LINE",
"612 524 LINE",
"337 261 LINE",
"337 135 LINE"
);
},
{
closed = 1;
nodes = (
"383 0 LINE",
"383 736 LINE",
"280 736 LINE",
"280 0 LINE"
);
},
{
closed = 1;
nodes = (
"736 0 LINE",
"501 356 LINE",
"435 284 LINE",
"619 0 LINE"
);
}
);
width = 1000;
}
);
},
{
glyphname = l.full.vert;
lastChange = "2020-04-23 09:20:25 +0000";
layers = (
{
anchors = (
{
name = BSB;
position = "{500, -70}";
},
{
name = TSB;
position = "{500, 806}";
}
);
layerId = "BE1754C0-A605-45AC-AA12-D3A1FC0C380B";
paths = (
{
closed = 1;
nodes = (
"553 0 LINE",
"553 736 LINE",
"446 736 LINE",
"446 0 LINE"
);
}
);
width = 1000;
}
);
},
{
glyphname = m.full.vert;
lastChange = "2020-04-23 09:20:25 +0000";
layers = (
{
anchors = (
{
name = BSB;
position = "{500, -70}";
},
{
name = TSB;
position = "{500, 607}";
}
);
layerId = "BE1754C0-A605-45AC-AA12-D3A1FC0C380B";
paths = (
{
closed = 1;
nodes = (
"854 0 LINE",
"854 0 OFFCURVE",
"856 268 OFFCURVE",
"854 334 CURVE SMOOTH",
"849 511 OFFCURVE",
"748 537 OFFCURVE",
"677 537 CURVE SMOOTH",
"583 537 OFFCURVE",
"533 457 OFFCURVE",
"494 386 CURVE",
"553 269 LINE",
"553 404 OFFCURVE",
"623 444 OFFCURVE",
"669 440 CURVE SMOOTH",
"721 435 OFFCURVE",
"747 394 OFFCURVE",
"752 317 CURVE SMOOTH",
"754 283 OFFCURVE",
"752 0 OFFCURVE",
"752 0 CURVE"
);
},
{
closed = 1;
nodes = (
"251 0 LINE",
"251 524 LINE",
"145 524 LINE",
"145 0 LINE"
);
},
{
closed = 1;
nodes = (
"555 0 LINE",
"555 0 OFFCURVE",
"556 268 OFFCURVE",
"555 334 CURVE SMOOTH",
"552 511 OFFCURVE",
"444 537 OFFCURVE",
"374 537 CURVE SMOOTH",
"336 537 OFFCURVE",
"279 518 OFFCURVE",
"250 463 CURVE",
"250 269 LINE",
"250 397 OFFCURVE",
"319 444 OFFCURVE",
"366 440 CURVE SMOOTH",
"417 436 OFFCURVE",
"446 394 OFFCURVE",
"448 317 CURVE SMOOTH",
"449 283 OFFCURVE",
"448 0 OFFCURVE",
"448 0 CURVE"
);
}
);
width = 1000;
}
);
},
{
glyphname = n.full.vert;
lastChange = "2020-04-23 09:20:25 +0000";
layers = (
{
anchors = (
{
name = BSB;
position = "{500, -70}";
},
{
name = TSB;
position = "{500, 607}";
}
);
layerId = "BE1754C0-A605-45AC-AA12-D3A1FC0C380B";
paths = (
{
closed = 1;
nodes = (
"723 0 LINE",
"723 0 OFFCURVE",
"725 268 OFFCURVE",
"723 334 CURVE SMOOTH",
"718 511 OFFCURVE",
"587 537 OFFCURVE",
"520 537 CURVE SMOOTH",
"472 537 OFFCURVE",
"406 509 OFFCURVE",
"368 454 CURVE",
"368 257 LINE",
"368 385 OFFCURVE",
"446 440 OFFCURVE",
"511 440 CURVE SMOOTH",
"570 440 OFFCURVE",
"611 394 OFFCURVE",
"616 317 CURVE SMOOTH",
"618 283 OFFCURVE",
"616 0 OFFCURVE",
"616 0 CURVE"
);
},
{
closed = 1;
nodes = (
"368 0 LINE",
"368 524 LINE",
"261 524 LINE",
"261 0 LINE"
);
}
);
width = 1000;
}
);
},
{
glyphname = o.full.vert;
lastChange = "2020-04-23 09:20:25 +0000";
layers = (
{
anchors = (
{
name = BSB;
position = "{500, -83}";
},
{
name = TSB;
position = "{500, 607}";
}
);
layerId = "BE1754C0-A605-45AC-AA12-D3A1FC0C380B";
paths = (
{
closed = 1;
nodes = (
"716 -13 OFFCURVE",
"760 168 OFFCURVE",
"760 262 CURVE SMOOTH",
"760 356 OFFCURVE",
"716 537 OFFCURVE",
"500 537 CURVE SMOOTH",
"283 537 OFFCURVE",
"240 356 OFFCURVE",
"240 262 CURVE SMOOTH",
"240 168 OFFCURVE",
"283 -13 OFFCURVE",
"500 -13 CURVE SMOOTH"
);
},
{
closed = 1;
nodes = (
"384 79 OFFCURVE",
"341 170 OFFCURVE",
"341 262 CURVE SMOOTH",
"341 354 OFFCURVE",
"384 445 OFFCURVE",
"500 445 CURVE SMOOTH",
"616 445 OFFCURVE",
"659 354 OFFCURVE",
"659 262 CURVE SMOOTH",
"659 170 OFFCURVE",
"616 79 OFFCURVE",
"500 79 CURVE SMOOTH"
);
}
);
width = 1000;
}
);
},
{
glyphname = p.full.vert;
lastChange = "2020-04-23 09:20:25 +0000";
layers = (
{
anchors = (
{
name = BSB;
position = "{500, -282}";
},
{
name = TSB;
position = "{500, 607}";
}
);
layerId = "BE1754C0-A605-45AC-AA12-D3A1FC0C380B";
paths = (
{
closed = 1;
nodes = (
"730 -13 OFFCURVE",
"762 168 OFFCURVE",
"762 262 CURVE SMOOTH",
"762 356 OFFCURVE",
"730 537 OFFCURVE",
"522 537 CURVE SMOOTH",
"352 537 OFFCURVE",
"307 389 OFFCURVE",
"307 262 CURVE SMOOTH",
"307 135 OFFCURVE",
"352 -13 OFFCURVE",
"522 -13 CURVE SMOOTH"
);
},
{
closed = 1;
nodes = (
"368 -212 LINE",
"368 89 LINE",
"330 262 LINE",
"368 430 LINE",
"368 524 LINE",
"266 524 LINE",
"266 -212 LINE"
);
},
{
closed = 1;
nodes = (
"403 79 OFFCURVE",
"367 170 OFFCURVE",
"367 262 CURVE SMOOTH",
"367 354 OFFCURVE",
"403 445 OFFCURVE",
"512 445 CURVE SMOOTH",
"622 445 OFFCURVE",
"662 354 OFFCURVE",
"662 262 CURVE SMOOTH",
"662 170 OFFCURVE",
"622 79 OFFCURVE",
"512 79 CURVE SMOOTH"
);
}
);
width = 1000;
}
);
},
{
glyphname = q.full.vert;
lastChange = "2020-04-23 09:20:25 +0000";
layers = (
{
anchors = (
{
name = BSB;
position = "{500, -282}";
},
{
name = TSB;
position = "{500, 607}";
}
);
layerId = "BE1754C0-A605-45AC-AA12-D3A1FC0C380B";
paths = (
{
closed = 1;
nodes = (
"648 -13 OFFCURVE",
"693 135 OFFCURVE",
"693 262 CURVE SMOOTH",
"693 389 OFFCURVE",
"648 537 OFFCURVE",
"478 537 CURVE SMOOTH",
"271 537 OFFCURVE",
"238 356 OFFCURVE",
"238 262 CURVE SMOOTH",
"238 168 OFFCURVE",
"271 -13 OFFCURVE",
"478 -13 CURVE SMOOTH"
);
},
{
closed = 1;
nodes = (
"379 79 OFFCURVE",
"338 170 OFFCURVE",
"338 262 CURVE SMOOTH",
"338 354 OFFCURVE",
"379 445 OFFCURVE",
"489 445 CURVE SMOOTH",
"597 445 OFFCURVE",
"633 354 OFFCURVE",
"633 262 CURVE SMOOTH",
"633 170 OFFCURVE",
"597 79 OFFCURVE",
"489 79 CURVE SMOOTH"
);
},
{
closed = 1;
nodes = (
"735 -212 LINE",
"735 524 LINE",
"632 524 LINE",
"632 430 LINE",
"671 262 LINE",
"632 89 LINE",
"632 -212 LINE"
);
}
);
width = 1000;
}
);
},
{
glyphname = r.full.vert;
lastChange = "2020-04-23 09:20:25 +0000";
layers = (
{
anchors = (
{
name = BSB;
position = "{500, -68}";
},
{
name = TSB;
position = "{500, 602}";
}
);
layerId = "BE1754C0-A605-45AC-AA12-D3A1FC0C380B";
paths = (
{
closed = 1;
nodes = (
"476 2 LINE",
"476 526 LINE",
"369 526 LINE",
"369 2 LINE"
);
},
{
closed = 1;
nodes = (
"476 377 OFFCURVE",
"582 434 OFFCURVE",
"657 420 CURVE",
"657 532 LINE",
"555 532 OFFCURVE",
"504 476 OFFCURVE",
"476 432 CURVE",
"476 286 LINE"
);
}
);
width = 1000;
}
);
},
{
glyphname = s.full.vert;
lastChange = "2020-04-23 09:20:25 +0000";
layers = (
{
anchors = (
{
name = BSB;
position = "{500, -85}";
},
{
name = TSB;
position = "{500, 609}";
}
);
layerId = "BE1754C0-A605-45AC-AA12-D3A1FC0C380B";
paths = (
{
closed = 1;
nodes = (
"669 -15 OFFCURVE",
"734 74 OFFCURVE",
"734 152 CURVE SMOOTH",
"734 282 OFFCURVE",
"572 297 OFFCURVE",
"453 330 CURVE SMOOTH",
"399 345 OFFCURVE",
"385 361 OFFCURVE",
"385 382 CURVE SMOOTH",
"385 425 OFFCURVE",
"435 449 OFFCURVE",
"487 449 CURVE SMOOTH",
"547 449 OFFCURVE",
"597 424 OFFCURVE",
"616 369 CURVE",
"710 415 LINE",
"677 505 OFFCURVE",
"581 539 OFFCURVE",
"493 539 CURVE SMOOTH",
"384 539 OFFCURVE",
"282 483 OFFCURVE",
"282 378 CURVE SMOOTH",
"282 254 OFFCURVE",
"416 243 OFFCURVE",
"546 208 CURVE SMOOTH",
"590 196 OFFCURVE",
"627 181 OFFCURVE",
"627 146 CURVE SMOOTH",
"627 105 OFFCURVE",
"580 79 OFFCURVE",
"500 79 CURVE SMOOTH",
"422 79 OFFCURVE",
"370 126 OFFCURVE",
"361 167 CURVE",
"265 114 LINE",
"298 34 OFFCURVE",
"377 -15 OFFCURVE",
"501 -15 CURVE SMOOTH"
);
}
);
width = 1000;
}
);
},
{
glyphname = t.full.vert;
lastChange = "2020-04-23 09:20:25 +0000";
layers = (
{
anchors = (
{
name = BSB;
position = "{500, -83.32}";
},
{
name = TSB;
position = "{500, 743}";
}
);
layerId = "BE1754C0-A605-45AC-AA12-D3A1FC0C380B";
paths = (
{
closed = 1;
nodes = (
"624 111 LINE",
"545 85 OFFCURVE",
"534 92 OFFCURVE",
"534 157 CURVE SMOOTH",
"534 673 LINE",
"428 673 LINE",
"428 104 LINE SMOOTH",
"428 38 OFFCURVE",
"428 -45 OFFCURVE",
"624 -1 CURVE"
);
},
{
closed = 1;
nodes = (
"635 440 LINE",
"635 524 LINE",
"332 524 LINE",
"332 440 LINE"
);
}
);
width = 1000;
}
);
},
{
glyphname = u.full.vert;
lastChange = "2020-04-23 09:20:25 +0000";
layers = (
{
anchors = (
{
name = BSB;
position = "{510, -78}";
},
{
name = TSB;
position = "{510, 599}";
}
);
layerId = "BE1754C0-A605-45AC-AA12-D3A1FC0C380B";
paths = (
{
closed = 1;
nodes = (
"527 -8 OFFCURVE",
"594 20 OFFCURVE",
"632 75 CURVE",
"632 272 LINE",
"632 144 OFFCURVE",
"554 89 OFFCURVE",
"489 89 CURVE SMOOTH",
"430 89 OFFCURVE",
"389 135 OFFCURVE",
"384 212 CURVE SMOOTH",
"382 246 OFFCURVE",
"384 529 OFFCURVE",
"384 529 CURVE",
"277 529 LINE",
"277 529 OFFCURVE",
"275 261 OFFCURVE",
"277 195 CURVE SMOOTH",
"282 18 OFFCURVE",
"413 -8 OFFCURVE",
"480 -8 CURVE SMOOTH"
);
},
{
closed = 1;
nodes = (
"739 5 LINE",
"739 529 LINE",
"632 529 LINE",
"632 5 LINE"
);
}
);
width = 1020;
}
);
},
{
glyphname = v.full.vert;
lastChange = "2020-04-23 09:20:25 +0000";
layers = (
{
anchors = (
{
name = BSB;
position = "{500, -64}";
},
{
name = TSB;
position = "{500, 600}";
}
);
layerId = "BE1754C0-A605-45AC-AA12-D3A1FC0C380B";
paths = (
{
closed = 1;
nodes = (
"553 6 LINE",
"742 530 LINE",
"636 530 LINE",
"446 6 LINE"
);
},
{
closed = 1;
nodes = (
"553 6 LINE",
"364 530 LINE",
"257 530 LINE",
"446 6 LINE"
);
}
);
width = 1000;
}
);
},
{
glyphname = w.full.vert;
lastChange = "2020-04-23 09:20:25 +0000";
layers = (
{
anchors = (
{
name = BSB;
position = "{500, -70}";
},
{
name = TSB;
position = "{500, 594}";
}
);
layerId = "BE1754C0-A605-45AC-AA12-D3A1FC0C380B";
paths = (
{
closed = 1;
nodes = (
"697 0 LINE",
"859 524 LINE",
"757 524 LINE",
"630 114 LINE",
"630 0 LINE"
);
},
{
closed = 1;
nodes = (
"369 0 LINE",
"369 114 LINE",
"242 524 LINE",
"140 524 LINE",
"303 0 LINE"
);
},
{
closed = 1;
nodes = (
"391 0 LINE",
"526 435 LINE",
"526 524 LINE",
"456 524 LINE",
"329 114 LINE",
"329 0 LINE"
);
},
{
closed = 1;
nodes = (
"671 0 LINE",
"671 114 LINE",
"544 524 LINE",
"474 524 LINE",
"474 435 LINE",
"609 0 LINE"
);
}
);
width = 1000;
}
);
},
{
glyphname = x.full.vert;
lastChange = "2020-04-23 09:20:25 +0000";
layers = (
{
anchors = (
{
name = BSB;
position = "{500, -74}";
},
{
name = TSB;
position = "{500, 590}";
}
);
layerId = "BE1754C0-A605-45AC-AA12-D3A1FC0C380B";
paths = (
{
closed = 1;
nodes = (
"735 -4 LINE",
"381 520 LINE",
"265 520 LINE",
"618 -4 LINE"
);
},
{
closed = 1;
nodes = (
"381 -4 LINE",
"730 520 LINE",
"613 520 LINE",
"265 -4 LINE"
);
}
);
width = 1000;
}
);
},
{
glyphname = y.full.vert;
lastChange = "2020-04-23 09:20:25 +0000";
layers = (
{
anchors = (
{
name = BSB;
position = "{500, -326}";
},
{
name = TSB;
position = "{500, 594}";
}
);
layerId = "BE1754C0-A605-45AC-AA12-D3A1FC0C380B";
paths = (
{
closed = 1;
nodes = (
"430 -256 OFFCURVE",
"484 -204 OFFCURVE",
"524 -91 CURVE SMOOTH",
"564 23 OFFCURVE",
"752 524 OFFCURVE",
"752 524 CURVE",
"650 524 LINE",
"650 524 OFFCURVE",
"450 -15 OFFCURVE",
"431 -62 CURVE SMOOTH",
"416 -100 OFFCURVE",
"400 -195 OFFCURVE",
"276 -138 CURVE",
"276 -240 LINE",
"299 -250 OFFCURVE",
"333 -256 OFFCURVE",
"372 -256 CURVE SMOOTH"
);
},
{
closed = 1;
nodes = (
"555 0 LINE",
"358 524 LINE",
"256 524 LINE",
"453 0 LINE"
);
}
);
width = 1000;
}
);
},
{
glyphname = z.full.vert;
lastChange = "2020-04-23 09:20:25 +0000";
layers = (
{
anchors = (
{
name = BSB;
position = "{500, -70}";
},
{
name = TSB;
position = "{500, 594}";
}
);
layerId = "BE1754C0-A605-45AC-AA12-D3A1FC0C380B";
paths = (
{
closed = 1;
nodes = (
"405 91 LINE",
"721 434 LINE",
"594 434 LINE",
"279 91 LINE"
);
},
{
closed = 1;
nodes = (
"721 0 LINE",
"721 91 LINE",
"279 91 LINE",
"279 0 LINE"
);
},
{
closed = 1;
nodes = (
"721 434 LINE",
"721 524 LINE",
"304 524 LINE",
"304 434 LINE"
);
}
);
width = 1000;
}
);
},
{
glyphname = w.full;
lastChange = "2020-04-23 09:20:11 +0000";
layers = (
{
anchors = (
{
name = LSB;
position = "{70, 380}";
},
{
name = RSB;
position = "{929, 380}";
}
);
layerId = "BE1754C0-A605-45AC-AA12-D3A1FC0C380B";
paths = (
{
closed = 1;
nodes = (
"697 0 LINE",
"859 524 LINE",
"757 524 LINE",
"630 114 LINE",
"630 0 LINE"
);
},
{
closed = 1;
nodes = (
"369 0 LINE",
"369 114 LINE",
"242 524 LINE",
"140 524 LINE",
"303 0 LINE"
);
},
{
closed = 1;
nodes = (
"391 0 LINE",
"526 435 LINE",
"526 524 LINE",
"456 524 LINE",
"329 114 LINE",
"329 0 LINE"
);
},
{
closed = 1;
nodes = (
"671 0 LINE",
"671 114 LINE",
"544 524 LINE",
"474 524 LINE",
"474 435 LINE",
"609 0 LINE"
);
}
);
width = 1000;
}
);
unicode = FF57;
},
{
glyphname = x.full;
lastChange = "2020-04-23 09:20:11 +0000";
layers = (
{
anchors = (
{
name = LSB;
position = "{195, 380}";
},
{
name = RSB;
position = "{805, 380}";
}
);
layerId = "BE1754C0-A605-45AC-AA12-D3A1FC0C380B";
paths = (
{
closed = 1;
nodes = (
"735 -4 LINE",
"381 520 LINE",
"265 520 LINE",
"618 -4 LINE"
);
},
{
closed = 1;
nodes = (
"381 -4 LINE",
"730 520 LINE",
"613 520 LINE",
"265 -4 LINE"
);
}
);
width = 1000;
}
);
unicode = FF58;
},
{
glyphname = y.full;
lastChange = "2020-04-23 09:20:11 +0000";
layers = (
{
anchors = (
{
name = LSB;
position = "{186, 380}";
},
{
name = RSB;
position = "{822, 380}";
}
);
layerId = "BE1754C0-A605-45AC-AA12-D3A1FC0C380B";
paths = (
{
closed = 1;
nodes = (
"430 -256 OFFCURVE",
"484 -204 OFFCURVE",
"524 -91 CURVE SMOOTH",
"564 23 OFFCURVE",
"752 524 OFFCURVE",
"752 524 CURVE",
"650 524 LINE",
"650 524 OFFCURVE",
"450 -15 OFFCURVE",
"431 -62 CURVE SMOOTH",
"416 -100 OFFCURVE",
"400 -195 OFFCURVE",
"276 -138 CURVE",
"276 -240 LINE",
"299 -250 OFFCURVE",
"333 -256 OFFCURVE",
"372 -256 CURVE SMOOTH"
);
},
{
closed = 1;
nodes = (
"555 0 LINE",
"358 524 LINE",
"256 524 LINE",
"453 0 LINE"
);
}
);
width = 1000;
}
);
unicode = FF59;
},
{
glyphname = z.full;
lastChange = "2020-04-23 09:20:11 +0000";
layers = (
{
anchors = (
{
name = LSB;
position = "{209, 380}";
},
{
name = RSB;
position = "{791, 380}";
}
);
layerId = "BE1754C0-A605-45AC-AA12-D3A1FC0C380B";
paths = (
{
closed = 1;
nodes = (
"405 91 LINE",
"721 434 LINE",
"594 434 LINE",
"279 91 LINE"
);
},
{
closed = 1;
nodes = (
"721 0 LINE",
"721 91 LINE",
"279 91 LINE",
"279 0 LINE"
);
},
{
closed = 1;
nodes = (
"721 434 LINE",
"721 524 LINE",
"304 524 LINE",
"304 434 LINE"
);
}
);
width = 1000;
}
);
unicode = FF5A;
},
{
glyphname = "close-han";
lastChange = "2020-05-05 03:15:20 +0000";
layers = (
{
layerId = "BE1754C0-A605-45AC-AA12-D3A1FC0C380B";
paths = (
{
closed = 1;
nodes = (
"170 40 OFFCURVE",
"246 125 CURVE SMOOTH",
"343 233 OFFCURVE",
"569 452 OFFCURVE",
"783 511 CURVE SMOOTH",
"871 536 OFFCURVE",
"929 570 OFFCURVE",
"929 617 CURVE SMOOTH",
"929 668 OFFCURVE",
"904 705 OFFCURVE",
"860 725 CURVE SMOOTH",
"848 730 OFFCURVE",
"835 736 OFFCURVE",
"826 736 CURVE SMOOTH",
"807 736 OFFCURVE",
"829 713 OFFCURVE",
"829 686 CURVE SMOOTH",
"829 675 OFFCURVE",
"825 664 OFFCURVE",
"816 653 CURVE SMOOTH",
"782 610 OFFCURVE",
"489 440 OFFCURVE",
"381 361 CURVE SMOOTH",
"245 263 OFFCURVE",
"231 237 OFFCURVE",
"218 237 CURVE SMOOTH",
"211 237 OFFCURVE",
"215 259 OFFCURVE",
"216 267 CURVE SMOOTH",
"226 348 OFFCURVE",
"251 505 OFFCURVE",
"363 505 CURVE SMOOTH",
"431 505 OFFCURVE",
"513 445 OFFCURVE",
"559 319 CURVE SMOOTH",
"572 282 OFFCURVE",
"595 261 OFFCURVE",
"619 261 CURVE SMOOTH",
"682 261 OFFCURVE",
"672 350 OFFCURVE",
"618 413 CURVE SMOOTH",
"575 462 OFFCURVE",
"483 548 OFFCURVE",
"387 548 CURVE SMOOTH",
"367 548 OFFCURVE",
"347 545 OFFCURVE",
"327 536 CURVE SMOOTH",
"201 481 OFFCURVE",
"199 356 OFFCURVE",
"162 255 CURVE SMOOTH",
"119 137 OFFCURVE",
"71 98 OFFCURVE",
"71 64 CURVE SMOOTH",
"71 39 OFFCURVE",
"92 24 OFFCURVE",
"112 24 CURVE SMOOTH",
"138 24 OFFCURVE"
);
}
);
width = 1000;
}
);
unicode = 3006;
},
{
glyphname = "iterationmark-han";
lastChange = "2020-05-05 03:15:20 +0000";
layers = (
{
layerId = "BE1754C0-A605-45AC-AA12-D3A1FC0C380B";
paths = (
{
closed = 1;
nodes = (
"525 441 OFFCURVE",
"587 441 CURVE",
"607 441 OFFCURVE",
"634 449 OFFCURVE",
"634 437 CURVE",
"634 427 OFFCURVE",
"603 357 OFFCURVE",
"515 228 CURVE",
"565 186 LINE",
"659 273 OFFCURVE",
"709 344 OFFCURVE",
"746 364 CURVE",
"789 386 OFFCURVE",
"827 407 OFFCURVE",
"827 433 CURVE",
"827 464 OFFCURVE",
"720 563 OFFCURVE",
"678 563 CURVE",
"659 563 OFFCURVE",
"651 547 OFFCURVE",
"637 543 CURVE",
"584 525 OFFCURVE",
"509 517 OFFCURVE",
"452 541 CURVE",
"424 493 LINE",
"450 461 OFFCURVE"
);
},
{
closed = 1;
nodes = (
"636 72 OFFCURVE",
"636 123 CURVE",
"636 223 OFFCURVE",
"469 320 OFFCURVE",
"353 320 CURVE",
"345 320 OFFCURVE",
"340 318 OFFCURVE",
"340 315 CURVE",
"340 313 OFFCURVE",
"343 310 OFFCURVE",
"348 306 CURVE",
"402 269 OFFCURVE",
"456 222 OFFCURVE",
"485 155 CURVE",
"519 72 OFFCURVE",
"553 60 OFFCURVE",
"577 60 CURVE SMOOTH",
"600 60 OFFCURVE"
);
},
{
closed = 1;
nodes = (
"269 211 OFFCURVE",
"427 360 OFFCURVE",
"502 558 CURVE",
"511 580 OFFCURVE",
"543 587 OFFCURVE",
"543 612 CURVE",
"543 629 OFFCURVE",
"524 648 OFFCURVE",
"511 661 CURVE",
"483 687 OFFCURVE",
"450 704 OFFCURVE",
"420 704 CURVE",
"406 704 OFFCURVE",
"346 693 OFFCURVE",
"346 675 CURVE",
"346 671 OFFCURVE",
"349 666 OFFCURVE",
"357 661 CURVE",
"375 649 OFFCURVE",
"383 635 OFFCURVE",
"383 616 CURVE",
"383 584 OFFCURVE",
"320 346 OFFCURVE",
"115 186 CURVE",
"111 183 OFFCURVE",
"108 180 OFFCURVE",
"108 177 CURVE",
"108 175 OFFCURVE",
"111 175 OFFCURVE",
"114 175 CURVE",
"117 175 OFFCURVE",
"123 176 OFFCURVE",
"132 178 CURVE"
);
}
);
width = 1000;
}
);
unicode = 3005;
},
{
glyphname = "ninojiten-han";
lastChange = "2020-05-05 03:15:20 +0000";
layers = (
{
layerId = "BE1754C0-A605-45AC-AA12-D3A1FC0C380B";
paths = (
{
closed = 1;
nodes = (
"374 52 OFFCURVE",
"437 75 OFFCURVE",
"479 85 CURVE SMOOTH",
"557 105 OFFCURVE",
"652 93 OFFCURVE",
"652 168 CURVE SMOOTH",
"652 262 OFFCURVE",
"472 283 OFFCURVE",
"472 381 CURVE SMOOTH",
"472 407 OFFCURVE",
"481 450 OFFCURVE",
"528 464 CURVE SMOOTH",
"570 476 OFFCURVE",
"617 469 OFFCURVE",
"617 530 CURVE SMOOTH",
"617 563 OFFCURVE",
"595 593 OFFCURVE",
"556 612 CURVE SMOOTH",
"509 634 OFFCURVE",
"440 656 OFFCURVE",
"388 714 CURVE SMOOTH",
"373 730 OFFCURVE",
"365 738 OFFCURVE",
"361 738 CURVE SMOOTH",
"359 738 OFFCURVE",
"358 736 OFFCURVE",
"358 732 CURVE SMOOTH",
"358 710 OFFCURVE",
"371 646 OFFCURVE",
"421 588 CURVE SMOOTH",
"454 549 OFFCURVE",
"487 533 OFFCURVE",
"487 506 CURVE SMOOTH",
"487 458 OFFCURVE",
"421 429 OFFCURVE",
"421 354 CURVE SMOOTH",
"421 280 OFFCURVE",
"499 245 OFFCURVE",
"499 185 CURVE SMOOTH",
"499 148 OFFCURVE",
"409 104 OFFCURVE",
"342 64 CURVE SMOOTH",
"311 47 OFFCURVE",
"293 33 OFFCURVE",
"293 29 CURVE SMOOTH",
"293 28 OFFCURVE",
"294 27 OFFCURVE",
"296 27 CURVE SMOOTH",
"299 27 OFFCURVE",
"306 28 OFFCURVE",
"316 32 CURVE SMOOTH"
);
}
);
width = 1000;
}
);
unicode = 303B;
},
{
glyphname = "a-hira";
lastChange = "2020-04-30 08:00:15 +0000";
layers = (
{
anchors = (
{
name = LSB;
position = "{35.287, 380}";
},
{
name = RSB;
position = "{966.482, 380}";
}
);
layerId = "BE1754C0-A605-45AC-AA12-D3A1FC0C380B";
paths = (
{
closed = 1;
nodes = (
"718 -63 OFFCURVE",
"896 61 OFFCURVE",
"896 236 CURVE SMOOTH",
"896 409 OFFCURVE",
"736 497 OFFCURVE",
"571 497 CURVE SMOOTH",
"470 497 OFFCURVE",
"357 463 OFFCURVE",
"248 377 CURVE SMOOTH",
"138 290 OFFCURVE",
"105 187 OFFCURVE",
"105 112 CURVE SMOOTH",
"105 41 OFFCURVE",
"127 -8 OFFCURVE",
"186 -8 CURVE SMOOTH",
"257 -8 OFFCURVE",
"349 60 OFFCURVE",
"420 125 CURVE SMOOTH",
"577 268 OFFCURVE",
"582 441 OFFCURVE",
"567 483 CURVE SMOOTH",
"555 517 OFFCURVE",
"542 527 OFFCURVE",
"526 525 CURVE SMOOTH",
"519 524 OFFCURVE",
"507 519 OFFCURVE",
"507 480 CURVE SMOOTH",
"507 235 OFFCURVE",
"251 81 OFFCURVE",
"204 81 CURVE SMOOTH",
"189 81 OFFCURVE",
"182 93 OFFCURVE",
"182 121 CURVE SMOOTH",
"182 175 OFFCURVE",
"220 264 OFFCURVE",
"273 315 CURVE SMOOTH",
"364 402 OFFCURVE",
"463 437 OFFCURVE",
"550 437 CURVE SMOOTH",
"686 437 OFFCURVE",
"784 355 OFFCURVE",
"784 234 CURVE SMOOTH",
"784 95 OFFCURVE",
"658 -9 OFFCURVE",
"495 -45 CURVE SMOOTH",
"440 -57 OFFCURVE",
"465 -63 OFFCURVE",
"503 -63 CURVE SMOOTH"
);
},
{
closed = 1;
nodes = (
"485 70 OFFCURVE",
"487 97 OFFCURVE",
"478 126 CURVE SMOOTH",
"462 179 OFFCURVE",
"414 290 OFFCURVE",
"434 416 CURVE SMOOTH",
"450 516 OFFCURVE",
"480 642 OFFCURVE",
"485 666 CURVE SMOOTH",
"492 698 OFFCURVE",
"525 750 OFFCURVE",
"488 788 CURVE SMOOTH",
"464 813 OFFCURVE",
"415 817 OFFCURVE",
"390 811 CURVE SMOOTH",
"362 804 OFFCURVE",
"338 789 OFFCURVE",
"342 778 CURVE SMOOTH",
"343 775 OFFCURVE",
"348 777 OFFCURVE",
"359 777 CURVE SMOOTH",
"381 777 OFFCURVE",
"400 756 OFFCURVE",
"405 729 CURVE SMOOTH",
"414 683 OFFCURVE",
"370 491 OFFCURVE",
"361 417 CURVE SMOOTH",
"352 343 OFFCURVE",
"340 261 OFFCURVE",
"374 170 CURVE SMOOTH",
"403 93 OFFCURVE",
"436 54 OFFCURVE",
"463 63 CURVE SMOOTH"
);
},
{
closed = 1;
nodes = (
"338 536 OFFCURVE",
"448 551 OFFCURVE",
"561 589 CURVE SMOOTH",
"642 616 OFFCURVE",
"733 662 OFFCURVE",
"723 699 CURVE SMOOTH",
"718 718 OFFCURVE",
"679 716 OFFCURVE",
"636 719 CURVE SMOOTH",
"573 723 OFFCURVE",
"497 747 OFFCURVE",
"485 750 CURVE SMOOTH",
"473 753 OFFCURVE",
"468 743 OFFCURVE",
"478 733 CURVE SMOOTH",
"494 717 OFFCURVE",
"511 711 OFFCURVE",
"546 699 CURVE SMOOTH",
"578 688 OFFCURVE",
"570 682 OFFCURVE",
"554 675 CURVE SMOOTH",
"502 652 OFFCURVE",
"335 630 OFFCURVE",
"292 628 CURVE SMOOTH",
"266 627 OFFCURVE",
"238 630 OFFCURVE",
"213 640 CURVE SMOOTH",
"191 649 OFFCURVE",
"180 657 OFFCURVE",
"175 654 CURVE SMOOTH",
"169 651 OFFCURVE",
"173 629 OFFCURVE",
"187 610 CURVE SMOOTH",
"204 587 OFFCURVE",
"226 564 OFFCURVE",
"285 549 CURVE SMOOTH"
);
}
);
width = 1000;
}
);
unicode = 3042;
},
{
glyphname = "asmall-hira";
lastChange = "2020-04-30 08:00:48 +0000";
layers = (
{
anchors = (
{
name = LSB;
position = "{118.313, 380}";
},
{
name = RSB;
position = "{881.072, 380}";
}
);
layerId = "BE1754C0-A605-45AC-AA12-D3A1FC0C380B";
paths = (
{
closed = 1;
nodes = (
"670 -58 OFFCURVE",
"811 41 OFFCURVE",
"811 178 CURVE SMOOTH",
"811 314 OFFCURVE",
"688 385 OFFCURVE",
"555 385 CURVE SMOOTH",
"475 385 OFFCURVE",
"387 358 OFFCURVE",
"301 290 CURVE SMOOTH",
"214 222 OFFCURVE",
"188 142 OFFCURVE",
"188 83 CURVE SMOOTH",
"188 20 OFFCURVE",
"210 -16 OFFCURVE",
"254 -16 CURVE SMOOTH",
"309 -16 OFFCURVE",
"386 39 OFFCURVE",
"439 89 CURVE SMOOTH",
"561 204 OFFCURVE",
"566 338 OFFCURVE",
"555 372 CURVE SMOOTH",
"547 398 OFFCURVE",
"535 409 OFFCURVE",
"520 407 CURVE SMOOTH",
"507 405 OFFCURVE",
"502 392 OFFCURVE",
"502 369 CURVE SMOOTH",
"502 169 OFFCURVE",
"310 60 OFFCURVE",
"270 60 CURVE SMOOTH",
"258 60 OFFCURVE",
"252 67 OFFCURVE",
"252 85 CURVE SMOOTH",
"252 124 OFFCURVE",
"285 199 OFFCURVE",
"324 238 CURVE SMOOTH",
"393 307 OFFCURVE",
"471 332 OFFCURVE",
"538 332 CURVE SMOOTH",
"642 332 OFFCURVE",
"717 271 OFFCURVE",
"717 177 CURVE SMOOTH",
"717 67 OFFCURVE",
"625 -9 OFFCURVE",
"494 -38 CURVE SMOOTH",
"454 -47 OFFCURVE",
"459 -58 OFFCURVE",
"501 -58 CURVE SMOOTH"
);
},
{
closed = 1;
nodes = (
"487 46 OFFCURVE",
"492 69 OFFCURVE",
"485 93 CURVE SMOOTH",
"473 135 OFFCURVE",
"436 220 OFFCURVE",
"451 319 CURVE SMOOTH",
"463 396 OFFCURVE",
"487 494 OFFCURVE",
"491 512 CURVE SMOOTH",
"497 537 OFFCURVE",
"523 579 OFFCURVE",
"492 610 CURVE SMOOTH",
"471 631 OFFCURVE",
"432 635 OFFCURVE",
"413 630 CURVE SMOOTH",
"387 623 OFFCURVE",
"368 610 OFFCURVE",
"373 601 CURVE SMOOTH",
"375 597 OFFCURVE",
"380 598 OFFCURVE",
"389 597 CURVE SMOOTH",
"406 595 OFFCURVE",
"418 582 OFFCURVE",
"422 561 CURVE SMOOTH",
"428 527 OFFCURVE",
"395 378 OFFCURVE",
"388 319 CURVE SMOOTH",
"381 261 OFFCURVE",
"371 198 OFFCURVE",
"398 125 CURVE SMOOTH",
"421 64 OFFCURVE",
"448 31 OFFCURVE",
"471 40 CURVE SMOOTH"
);
},
{
closed = 1;
nodes = (
"373 409 OFFCURVE",
"460 421 OFFCURVE",
"548 450 CURVE SMOOTH",
"633 478 OFFCURVE",
"682 513 OFFCURVE",
"676 540 CURVE SMOOTH",
"672 557 OFFCURVE",
"639 556 OFFCURVE",
"606 558 CURVE SMOOTH",
"557 561 OFFCURVE",
"498 580 OFFCURVE",
"489 582 CURVE SMOOTH",
"476 585 OFFCURVE",
"470 574 OFFCURVE",
"480 563 CURVE SMOOTH",
"492 549 OFFCURVE",
"507 546 OFFCURVE",
"534 537 CURVE SMOOTH",
"554 530 OFFCURVE",
"552 528 OFFCURVE",
"540 523 CURVE SMOOTH",
"501 507 OFFCURVE",
"370 489 OFFCURVE",
"337 487 CURVE SMOOTH",
"317 486 OFFCURVE",
"296 488 OFFCURVE",
"276 496 CURVE SMOOTH",
"262 502 OFFCURVE",
"249 510 OFFCURVE",
"244 506 CURVE SMOOTH",
"238 501 OFFCURVE",
"242 482 OFFCURVE",
"252 468 CURVE SMOOTH",
"264 451 OFFCURVE",
"286 430 OFFCURVE",
"331 419 CURVE SMOOTH"
);
}
);
width = 1000;
}
);
unicode = 3041;
},
{
glyphname = "i-hira";
lastChange = "2020-04-22 12:30:29 +0000";
layers = (
{
anchors = (
{
name = LSB;
position = "{52.256, 380}";
},
{
name = RSB;
position = "{969.101, 380}";
}
);
layerId = "BE1754C0-A605-45AC-AA12-D3A1FC0C380B";
paths = (
{
closed = 1;
nodes = (
"408 56 OFFCURVE",
"444 87 OFFCURVE",
"432 115 CURVE SMOOTH",
"419 145 OFFCURVE",
"405 159 OFFCURVE",
"404 192 CURVE SMOOTH",
"403 226 OFFCURVE",
"401 250 OFFCURVE",
"421 339 CURVE",
"426 359 OFFCURVE",
"424 363 OFFCURVE",
"411 340 CURVE SMOOTH",
"353 237 OFFCURVE",
"352 203 OFFCURVE",
"322 203 CURVE SMOOTH",
"266 203 OFFCURVE",
"240 324 OFFCURVE",
"240 383 CURVE SMOOTH",
"240 475 OFFCURVE",
"279 523 OFFCURVE",
"279 565 CURVE SMOOTH",
"279 619 OFFCURVE",
"216 681 OFFCURVE",
"153 681 CURVE SMOOTH",
"119 681 OFFCURVE",
"113 677 OFFCURVE",
"136 661 CURVE SMOOTH",
"162 644 OFFCURVE",
"162 621 OFFCURVE",
"159 581 CURVE SMOOTH",
"157 559 OFFCURVE",
"145 489 OFFCURVE",
"145 410 CURVE SMOOTH",
"145 255 OFFCURVE",
"203 90 OFFCURVE",
"373 62 CURVE SMOOTH"
);
},
{
closed = 1;
nodes = (
"804 304 OFFCURVE",
"838 304 CURVE SMOOTH",
"875 304 OFFCURVE",
"899 349 OFFCURVE",
"899 390 CURVE SMOOTH",
"899 442 OFFCURVE",
"869 497 OFFCURVE",
"801 538 CURVE SMOOTH",
"745 571 OFFCURVE",
"669 569 OFFCURVE",
"639 561 CURVE SMOOTH",
"618 556 OFFCURVE",
"607 551 OFFCURVE",
"607 546 CURVE SMOOTH",
"607 542 OFFCURVE",
"618 542 OFFCURVE",
"639 540 CURVE SMOOTH",
"738 531 OFFCURVE",
"766 429 OFFCURVE",
"776 385 CURVE SMOOTH",
"786 339 OFFCURVE"
);
}
);
width = 1000;
}
);
unicode = 3044;
},
{
glyphname = "ismall-hira";
lastChange = "2020-04-22 12:30:40 +0000";
layers = (
{
anchors = (
{
name = LSB;
position = "{135.568, 380}";
},
{
name = RSB;
position = "{887.132, 380}";
}
);
layerId = "BE1754C0-A605-45AC-AA12-D3A1FC0C380B";
paths = (
{
closed = 1;
nodes = (
"435 -24 OFFCURVE",
"463 3 OFFCURVE",
"453 26 CURVE SMOOTH",
"444 50 OFFCURVE",
"432 60 OFFCURVE",
"432 85 CURVE SMOOTH",
"431 110 OFFCURVE",
"429 131 OFFCURVE",
"446 199 CURVE",
"451 221 OFFCURVE",
"444 224 OFFCURVE",
"431 202 CURVE SMOOTH",
"408 164 OFFCURVE",
"385 96 OFFCURVE",
"363 96 CURVE SMOOTH",
"340 96 OFFCURVE",
"313 147 OFFCURVE",
"306 199 CURVE SMOOTH",
"294 291 OFFCURVE",
"335 342 OFFCURVE",
"335 377 CURVE SMOOTH",
"335 420 OFFCURVE",
"283 470 OFFCURVE",
"233 470 CURVE SMOOTH",
"203 470 OFFCURVE",
"197 464 OFFCURVE",
"218 449 CURVE SMOOTH",
"237 435 OFFCURVE",
"236 419 OFFCURVE",
"235 389 CURVE SMOOTH",
"234 372 OFFCURVE",
"224 315 OFFCURVE",
"224 251 CURVE SMOOTH",
"224 132 OFFCURVE",
"275 -2 OFFCURVE",
"405 -20 CURVE SMOOTH"
);
},
{
closed = 1;
nodes = (
"740 170 OFFCURVE",
"768 170 CURVE SMOOTH",
"799 170 OFFCURVE",
"817 207 OFFCURVE",
"817 241 CURVE SMOOTH",
"817 282 OFFCURVE",
"794 326 OFFCURVE",
"741 358 CURVE SMOOTH",
"696 384 OFFCURVE",
"636 382 OFFCURVE",
"611 376 CURVE SMOOTH",
"593 372 OFFCURVE",
"583 367 OFFCURVE",
"583 362 CURVE SMOOTH",
"583 358 OFFCURVE",
"591 358 OFFCURVE",
"612 354 CURVE SMOOTH",
"696 338 OFFCURVE",
"709 270 OFFCURVE",
"716 235 CURVE SMOOTH",
"725 198 OFFCURVE"
);
}
);
width = 1000;
}
);
unicode = 3043;
},
{
glyphname = "u-hira";
lastChange = "2020-05-01 16:46:58 +0000";
layers = (
{
anchors = (
{
name = LSB;
position = "{168.795, 380}";
},
{
name = RSB;
position = "{808.69, 380}";
}
);
layerId = "BE1754C0-A605-45AC-AA12-D3A1FC0C380B";
paths = (
{
closed = 1;
nodes = (
"334 640 OFFCURVE",
"326 647 OFFCURVE",
"355 669 CURVE SMOOTH",
"374 684 OFFCURVE",
"383 690 OFFCURVE",
"404 706 CURVE SMOOTH",
"421 716 OFFCURVE",
"416 724 OFFCURVE",
"386 735 CURVE SMOOTH",
"354 747 OFFCURVE",
"310 785 OFFCURVE",
"298 813 CURVE SMOOTH",
"288 838 OFFCURVE",
"291 840 OFFCURVE",
"310 829 CURVE SMOOTH",
"337 815 OFFCURVE",
"387 800 OFFCURVE",
"428 802 CURVE SMOOTH",
"469 804 OFFCURVE",
"520 814 OFFCURVE",
"580 800 CURVE SMOOTH",
"624 790 OFFCURVE",
"673 765 OFFCURVE",
"665 735 CURVE SMOOTH",
"657 703 OFFCURVE",
"621 704 OFFCURVE",
"576 699 CURVE SMOOTH",
"531 694 OFFCURVE",
"460 692 OFFCURVE",
"373 658 CURVE SMOOTH"
);
},
{
closed = 1;
nodes = (
"315 -74 OFFCURVE",
"307 -74 OFFCURVE",
"305 -70 CURVE SMOOTH",
"304 -67 OFFCURVE",
"310 -62 OFFCURVE",
"330 -51 CURVE SMOOTH",
"386 -19 OFFCURVE",
"586 81 OFFCURVE",
"619 312 CURVE SMOOTH",
"636 432 OFFCURVE",
"622 499 OFFCURVE",
"574 510 CURVE SMOOTH",
"506 527 OFFCURVE",
"408 419 OFFCURVE",
"337 419 CURVE SMOOTH",
"280 419 OFFCURVE",
"244 467 OFFCURVE",
"239 535 CURVE SMOOTH",
"238 560 OFFCURVE",
"240 560 OFFCURVE",
"260 547 CURVE SMOOTH",
"301 523 OFFCURVE",
"382 536 OFFCURVE",
"416 548 CURVE SMOOTH",
"450 560 OFFCURVE",
"590 608 OFFCURVE",
"665 557 CURVE SMOOTH",
"735 508 OFFCURVE",
"753 430 OFFCURVE",
"728 290 CURVE SMOOTH",
"701 145 OFFCURVE",
"561 -19 OFFCURVE",
"327 -71 CURVE SMOOTH"
);
}
);
width = 1000;
}
);
unicode = 3046;
},
{
glyphname = "usmall-hira";
lastChange = "2020-05-01 16:47:36 +0000";
layers = (
{
anchors = (
{
name = LSB;
position = "{220.831, 380}";
},
{
name = RSB;
position = "{756.002, 380}";
}
);
layerId = "BE1754C0-A605-45AC-AA12-D3A1FC0C380B";
paths = (
{
closed = 1;
nodes = (
"546 -35 OFFCURVE",
"657 101 OFFCURVE",
"678 213 CURVE SMOOTH",
"697 326 OFFCURVE",
"683 386 OFFCURVE",
"627 424 CURVE SMOOTH",
"567 465 OFFCURVE",
"458 428 OFFCURVE",
"430 418 CURVE SMOOTH",
"404 409 OFFCURVE",
"343 399 OFFCURVE",
"312 418 CURVE SMOOTH",
"293 429 OFFCURVE",
"290 427 OFFCURVE",
"291 405 CURVE SMOOTH",
"291 361 OFFCURVE",
"318 312 OFFCURVE",
"369 312 CURVE SMOOTH",
"424 312 OFFCURVE",
"502 396 OFFCURVE",
"555 383 CURVE SMOOTH",
"589 375 OFFCURVE",
"601 324 OFFCURVE",
"587 232 CURVE SMOOTH",
"561 53 OFFCURVE",
"402 -27 OFFCURVE",
"364 -49 CURVE SMOOTH",
"349 -58 OFFCURVE",
"339 -65 OFFCURVE",
"341 -69 CURVE SMOOTH",
"343 -73 OFFCURVE",
"348 -72 OFFCURVE",
"362 -70 CURVE SMOOTH"
);
},
{
closed = 1;
nodes = (
"465 524 OFFCURVE",
"521 527 OFFCURVE",
"557 531 CURVE SMOOTH",
"592 535 OFFCURVE",
"623 534 OFFCURVE",
"629 561 CURVE SMOOTH",
"635 586 OFFCURVE",
"596 607 OFFCURVE",
"560 615 CURVE SMOOTH",
"504 628 OFFCURVE",
"476 616 OFFCURVE",
"440 616 CURVE SMOOTH",
"407 616 OFFCURVE",
"369 627 OFFCURVE",
"348 638 CURVE SMOOTH",
"330 647 OFFCURVE",
"326 643 OFFCURVE",
"335 622 CURVE SMOOTH",
"345 600 OFFCURVE",
"380 568 OFFCURVE",
"406 559 CURVE SMOOTH",
"428 551 OFFCURVE",
"430 547 OFFCURVE",
"420 540 CURVE SMOOTH",
"413 535 OFFCURVE",
"390 518 OFFCURVE",
"381 511 CURVE SMOOTH",
"356 491 OFFCURVE",
"362 486 OFFCURVE",
"397 499 CURVE SMOOTH"
);
}
);
width = 1000;
}
);
unicode = 3045;
},
{
glyphname = "e-hira";
lastChange = "2020-04-22 23:25:54 +0000";
layers = (
{
anchors = (
{
name = LSB;
position = "{102.188, 380}";
},
{
name = RSB;
position = "{938.729, 380}";
}
);
layerId = "BE1754C0-A605-45AC-AA12-D3A1FC0C380B";
paths = (
{
closed = 1;
nodes = (
"450 627 OFFCURVE",
"537 633 OFFCURVE",
"605 639 CURVE",
"639 643 OFFCURVE",
"653 657 OFFCURVE",
"653 673 CURVE SMOOTH",
"653 688 OFFCURVE",
"642 705 OFFCURVE",
"625 720 CURVE",
"606 736 OFFCURVE",
"586 736 OFFCURVE",
"561 736 CURVE SMOOTH",
"488 736 OFFCURVE",
"461 744 OFFCURVE",
"407 802 CURVE",
"390 821 OFFCURVE",
"380 819 OFFCURVE",
"382 792 CURVE",
"385 760 OFFCURVE",
"394 736 OFFCURVE",
"409 721 CURVE",
"424 708 OFFCURVE",
"432 695 OFFCURVE",
"432 685 CURVE SMOOTH",
"432 667 OFFCURVE",
"395 645 OFFCURVE",
"363 618 CURVE",
"332 592 OFFCURVE",
"332 585 OFFCURVE",
"363 596 CURVE"
);
},
{
closed = 1;
nodes = (
"318 108 OFFCURVE",
"385 193 OFFCURVE",
"466 193 CURVE SMOOTH",
"526 193 OFFCURVE",
"514 152 OFFCURVE",
"526 76 CURVE",
"544 -31 OFFCURVE",
"644 -20 OFFCURVE",
"718 -20 CURVE SMOOTH",
"858 -20 OFFCURVE",
"869 12 OFFCURVE",
"869 37 CURVE SMOOTH",
"869 80 OFFCURVE",
"824 100 OFFCURVE",
"789 100 CURVE SMOOTH",
"740 100 OFFCURVE",
"707 74 OFFCURVE",
"649 74 CURVE SMOOTH",
"583 74 OFFCURVE",
"607 102 OFFCURVE",
"589 181 CURVE SMOOTH",
"579 222 OFFCURVE",
"556 262 OFFCURVE",
"507 262 CURVE SMOOTH",
"474 262 OFFCURVE",
"432 245 OFFCURVE",
"382 216 CURVE",
"405 206 LINE",
"469 279 OFFCURVE",
"546 352 OFFCURVE",
"628 399 CURVE",
"660 417 OFFCURVE",
"690 434 OFFCURVE",
"690 459 CURVE SMOOTH",
"690 472 OFFCURVE",
"681 490 OFFCURVE",
"671 502 CURVE SMOOTH",
"650 532 OFFCURVE",
"618 541 OFFCURVE",
"587 541 CURVE SMOOTH",
"518 541 OFFCURVE",
"424 485 OFFCURVE",
"356 485 CURVE SMOOTH",
"324 485 OFFCURVE",
"298 495 OFFCURVE",
"283 513 CURVE",
"276 522 OFFCURVE",
"269 526 OFFCURVE",
"263 526 CURVE SMOOTH",
"253 526 OFFCURVE",
"247 509 OFFCURVE",
"247 491 CURVE SMOOTH",
"247 461 OFFCURVE",
"262 441 OFFCURVE",
"295 408 CURVE",
"315 387 OFFCURVE",
"334 377 OFFCURVE",
"353 377 CURVE SMOOTH",
"369 377 OFFCURVE",
"384 384 OFFCURVE",
"400 399 CURVE",
"433 433 OFFCURVE",
"476 445 OFFCURVE",
"510 458 CURVE SMOOTH",
"537 468 OFFCURVE",
"546 463 OFFCURVE",
"546 456 CURVE SMOOTH",
"546 450 OFFCURVE",
"541 442 OFFCURVE",
"535 437 CURVE",
"507 409 OFFCURVE",
"282 189 OFFCURVE",
"252 159 CURVE SMOOTH",
"223 130 OFFCURVE",
"182 119 OFFCURVE",
"173 68 CURVE",
"165 15 OFFCURVE",
"216 -22 OFFCURVE",
"235 -22 CURVE SMOOTH",
"256 -22 OFFCURVE",
"268 12 OFFCURVE",
"282 39 CURVE"
);
}
);
width = 1000;
}
);
unicode = 3048;
},
{
glyphname = "esmall-hira";
lastChange = "2020-04-22 23:27:34 +0000";
layers = (
{
anchors = (
{
name = LSB;
position = "{175.489, 380}";
},
{
name = RSB;
position = "{864.604, 380}";
}
);
layerId = "BE1754C0-A605-45AC-AA12-D3A1FC0C380B";
paths = (
{
closed = 1;
nodes = (
"465 474 OFFCURVE",
"534 479 OFFCURVE",
"587 483 CURVE SMOOTH",
"612 485 OFFCURVE",
"627 496 OFFCURVE",
"627 512 CURVE SMOOTH",
"627 525 OFFCURVE",
"618 538 OFFCURVE",
"604 551 CURVE SMOOTH",
"589 565 OFFCURVE",
"572 564 OFFCURVE",
"553 564 CURVE SMOOTH",
"495 564 OFFCURVE",
"476 571 OFFCURVE",
"432 615 CURVE SMOOTH",
"416 631 OFFCURVE",
"408 629 OFFCURVE",
"409 606 CURVE SMOOTH",
"410 583 OFFCURVE",
"418 562 OFFCURVE",
"431 549 CURVE SMOOTH",
"442 538 OFFCURVE",
"449 528 OFFCURVE",
"449 521 CURVE SMOOTH",
"449 507 OFFCURVE",
"411 483 OFFCURVE",
"395 470 CURVE SMOOTH",
"369 449 OFFCURVE",
"370 439 OFFCURVE",
"397 449 CURVE SMOOTH"
);
},
{
closed = 1;
nodes = (
"364 65 OFFCURVE",
"414 131 OFFCURVE",
"477 131 CURVE SMOOTH",
"513 131 OFFCURVE",
"515 113 OFFCURVE",
"519 75 CURVE SMOOTH",
"520 65 OFFCURVE",
"521 53 OFFCURVE",
"523 40 CURVE SMOOTH",
"536 -46 OFFCURVE",
"618 -38 OFFCURVE",
"677 -38 CURVE SMOOTH",
"760 -38 OFFCURVE",
"798 -25 OFFCURVE",
"798 9 CURVE SMOOTH",
"798 44 OFFCURVE",
"760 61 OFFCURVE",
"733 61 CURVE SMOOTH",
"694 61 OFFCURVE",
"663 41 OFFCURVE",
"622 41 CURVE SMOOTH",
"570 41 OFFCURVE",
"588 75 OFFCURVE",
"577 123 CURVE SMOOTH",
"567 167 OFFCURVE",
"544 189 OFFCURVE",
"510 189 CURVE SMOOTH",
"483 189 OFFCURVE",
"448 175 OFFCURVE",
"407 151 CURVE",
"430 141 LINE",
"481 199 OFFCURVE",
"542 256 OFFCURVE",
"606 293 CURVE SMOOTH",
"632 308 OFFCURVE",
"656 322 OFFCURVE",
"656 343 CURVE SMOOTH",
"656 353 OFFCURVE",
"649 367 OFFCURVE",
"641 378 CURVE SMOOTH",
"626 399 OFFCURVE",
"603 410 OFFCURVE",
"573 410 CURVE SMOOTH",
"546 410 OFFCURVE",
"513 399 OFFCURVE",
"481 387 CURVE SMOOTH",
"449 375 OFFCURVE",
"417 365 OFFCURVE",
"391 365 CURVE SMOOTH",
"365 365 OFFCURVE",
"350 373 OFFCURVE",
"335 386 CURVE SMOOTH",
"326 393 OFFCURVE",
"321 398 OFFCURVE",
"317 398 CURVE SMOOTH",
"310 398 OFFCURVE",
"302 385 OFFCURVE",
"302 368 CURVE SMOOTH",
"302 343 OFFCURVE",
"315 328 OFFCURVE",
"341 302 CURVE SMOOTH",
"357 286 OFFCURVE",
"372 276 OFFCURVE",
"388 276 CURVE SMOOTH",
"402 276 OFFCURVE",
"414 282 OFFCURVE",
"426 294 CURVE SMOOTH",
"452 320 OFFCURVE",
"486 330 OFFCURVE",
"513 340 CURVE SMOOTH",
"530 346 OFFCURVE",
"539 346 OFFCURVE",
"539 340 CURVE SMOOTH",
"539 337 OFFCURVE",
"536 331 OFFCURVE",
"531 326 CURVE SMOOTH",
"524 319 OFFCURVE",
"322 122 OFFCURVE",
"307 107 CURVE SMOOTH",
"286 87 OFFCURVE",
"252 79 OFFCURVE",
"244 34 CURVE SMOOTH",
"236 -9 OFFCURVE",
"279 -39 OFFCURVE",
"295 -39 CURVE SMOOTH",
"313 -39 OFFCURVE",
"327 -3 OFFCURVE",
"334 10 CURVE SMOOTH"
);
}
);
width = 1000;
}
);
unicode = 3047;
},
{
glyphname = "o-hira";
lastChange = "2020-04-22 23:31:39 +0000";
layers = (
{
anchors = (
{
name = LSB;
position = "{24.745, 380}";
},
{
name = RSB;
position = "{1021.219, 380}";
}
);
layerId = "BE1754C0-A605-45AC-AA12-D3A1FC0C380B";
paths = (
{
closed = 1;
nodes = (
"315 2 OFFCURVE",
"355 2 CURVE SMOOTH",
"401 2 OFFCURVE",
"420 89 OFFCURVE",
"420 147 CURVE SMOOTH",
"420 164 OFFCURVE",
"407 314 OFFCURVE",
"407 379 CURVE SMOOTH",
"407 480 OFFCURVE",
"407 592 OFFCURVE",
"409 630 CURVE SMOOTH",
"410 653 OFFCURVE",
"420 673 OFFCURVE",
"420 693 CURVE SMOOTH",
"420 731 OFFCURVE",
"362 769 OFFCURVE",
"326 769 CURVE SMOOTH",
"308 769 OFFCURVE",
"250 752 OFFCURVE",
"250 737 CURVE SMOOTH",
"250 732 OFFCURVE",
"257 727 OFFCURVE",
"269 722 CURVE SMOOTH",
"293 711 OFFCURVE",
"315 685 OFFCURVE",
"320 658 CURVE SMOOTH",
"326 631 OFFCURVE",
"331 288 OFFCURVE",
"331 188 CURVE SMOOTH",
"331 147 OFFCURVE",
"326 148 OFFCURVE",
"306 156 CURVE SMOOTH",
"289 163 OFFCURVE",
"264 176 OFFCURVE",
"264 176 CURVE",
"272 163 LINE",
"319 199 OFFCURVE",
"561 357 OFFCURVE",
"658 357 CURVE SMOOTH",
"692 357 OFFCURVE",
"733 337 OFFCURVE",
"733 276 CURVE SMOOTH",
"733 207 OFFCURVE",
"657 109 OFFCURVE",
"578 109 CURVE SMOOTH",
"534 109 OFFCURVE",
"505 141 OFFCURVE",
"505 210 CURVE SMOOTH",
"505 225 OFFCURVE",
"506 242 OFFCURVE",
"510 262 CURVE SMOOTH",
"517 297 OFFCURVE",
"501 293 OFFCURVE",
"483 247 CURVE SMOOTH",
"473 223 OFFCURVE",
"468 197 OFFCURVE",
"468 171 CURVE SMOOTH",
"468 90 OFFCURVE",
"524 38 OFFCURVE",
"603 38 CURVE SMOOTH",
"727 38 OFFCURVE",
"852 160 OFFCURVE",
"852 275 CURVE SMOOTH",
"852 370 OFFCURVE",
"781 424 OFFCURVE",
"691 424 CURVE SMOOTH",
"618 424 OFFCURVE",
"534 391 OFFCURVE",
"442 343 CURVE SMOOTH",
"359 300 OFFCURVE",
"284 250 OFFCURVE",
"211 233 CURVE SMOOTH",
"197 230 OFFCURVE",
"179 227 OFFCURVE",
"161 227 CURVE SMOOTH",
"134 227 OFFCURVE",
"95 226 OFFCURVE",
"95 188 CURVE SMOOTH",
"95 155 OFFCURVE",
"135 102 OFFCURVE",
"171 102 CURVE SMOOTH",
"203 102 OFFCURVE",
"246 133 OFFCURVE",
"262 150 CURVE",
"262 150 OFFCURVE",
"301 124 OFFCURVE",
"303 103 CURVE SMOOTH",
"308 70 OFFCURVE"
);
},
{
closed = 1;
nodes = (
"196 423 OFFCURVE",
"246 423 CURVE SMOOTH",
"312 423 OFFCURVE",
"464 489 OFFCURVE",
"493 507 CURVE SMOOTH",
"516 521 OFFCURVE",
"526 534 OFFCURVE",
"526 548 CURVE SMOOTH",
"526 576 OFFCURVE",
"504 579 OFFCURVE",
"476 590 CURVE SMOOTH",
"456 597 OFFCURVE",
"418 619 OFFCURVE",
"403 642 CURVE",
"399 651 OFFCURVE",
"390 646 OFFCURVE",
"395 635 CURVE SMOOTH",
"402 619 OFFCURVE",
"444 586 OFFCURVE",
"430 569 CURVE SMOOTH",
"414 548 OFFCURVE",
"281 514 OFFCURVE",
"231 514 CURVE SMOOTH",
"207 514 OFFCURVE",
"168 522 OFFCURVE",
"153 528 CURVE SMOOTH",
"120 539 OFFCURVE",
"108 536 OFFCURVE",
"131 502 CURVE SMOOTH",
"165 452 OFFCURVE"
);
},
{
closed = 1;
nodes = (
"927 448 OFFCURVE",
"975 479 OFFCURVE",
"938 548 CURVE SMOOTH",
"919 583 OFFCURVE",
"850 638 OFFCURVE",
"771 638 CURVE SMOOTH",
"737 638 OFFCURVE",
"700 627 OFFCURVE",
"665 599 CURVE SMOOTH",
"636 576 OFFCURVE",
"642 566 OFFCURVE",
"674 577 CURVE SMOOTH",
"708 588 OFFCURVE",
"769 584 OFFCURVE",
"794 547 CURVE SMOOTH",
"812 518 OFFCURVE",
"788 496 OFFCURVE",
"774 482 CURVE SMOOTH",
"756 464 OFFCURVE",
"761 454 OFFCURVE",
"795 467 CURVE SMOOTH",
"831 480 OFFCURVE",
"861 470 OFFCURVE",
"884 462 CURVE SMOOTH"
);
}
);
width = 1000;
}
);
unicode = 304A;
},
{
glyphname = "osmall-hira";
lastChange = "2020-04-22 23:36:57 +0000";
layers = (
{
anchors = (
{
name = LSB;
position = "{111.828, 380}";
},
{
name = RSB;
position = "{925.835, 380}";
}
);
layerId = "BE1754C0-A605-45AC-AA12-D3A1FC0C380B";
paths = (
{
closed = 1;
nodes = (
"429 -13 OFFCURVE",
"441 57 OFFCURVE",
"441 103 CURVE SMOOTH",
"441 138 OFFCURVE",
"431 224 OFFCURVE",
"431 283 CURVE SMOOTH",
"431 362 OFFCURVE",
"431 449 OFFCURVE",
"433 479 CURVE SMOOTH",
"434 509 OFFCURVE",
"458 536 OFFCURVE",
"421 565 CURVE SMOOTH",
"381 597 OFFCURVE",
"359 593 OFFCURVE",
"333 584 CURVE SMOOTH",
"298 571 OFFCURVE",
"294 560 OFFCURVE",
"320 549 CURVE SMOOTH",
"338 541 OFFCURVE",
"353 522 OFFCURVE",
"358 499 CURVE SMOOTH",
"362 480 OFFCURVE",
"366 225 OFFCURVE",
"366 141 CURVE SMOOTH",
"366 112 OFFCURVE",
"366 106 OFFCURVE",
"350 112 CURVE SMOOTH",
"342 115 OFFCURVE",
"320 126 OFFCURVE",
"320 126 CURVE",
"326 113 LINE",
"378 153 OFFCURVE",
"553 263 OFFCURVE",
"626 263 CURVE SMOOTH",
"661 263 OFFCURVE",
"680 238 OFFCURVE",
"680 204 CURVE SMOOTH",
"680 153 OFFCURVE",
"623 75 OFFCURVE",
"563 75 CURVE SMOOTH",
"529 75 OFFCURVE",
"508 102 OFFCURVE",
"508 150 CURVE SMOOTH",
"508 162 OFFCURVE",
"509 176 OFFCURVE",
"512 191 CURVE SMOOTH",
"518 225 OFFCURVE",
"500 219 OFFCURVE",
"485 181 CURVE SMOOTH",
"477 162 OFFCURVE",
"473 142 OFFCURVE",
"473 121 CURVE SMOOTH",
"473 55 OFFCURVE",
"517 15 OFFCURVE",
"582 15 CURVE SMOOTH",
"682 15 OFFCURVE",
"779 114 OFFCURVE",
"779 203 CURVE SMOOTH",
"779 277 OFFCURVE",
"723 321 OFFCURVE",
"651 321 CURVE SMOOTH",
"593 321 OFFCURVE",
"526 295 OFFCURVE",
"454 258 CURVE SMOOTH",
"373 217 OFFCURVE",
"303 167 OFFCURVE",
"235 167 CURVE SMOOTH",
"212 167 OFFCURVE",
"182 164 OFFCURVE",
"182 136 CURVE SMOOTH",
"182 109 OFFCURVE",
"214 63 OFFCURVE",
"244 63 CURVE SMOOTH",
"270 63 OFFCURVE",
"303 88 OFFCURVE",
"315 100 CURVE",
"315 100 OFFCURVE",
"343 82 OFFCURVE",
"344 68 CURVE SMOOTH",
"347 35 OFFCURVE",
"354 -13 OFFCURVE",
"388 -13 CURVE SMOOTH"
);
},
{
closed = 1;
nodes = (
"345 315 OFFCURVE",
"464 358 OFFCURVE",
"497 381 CURVE SMOOTH",
"516 392 OFFCURVE",
"525 402 OFFCURVE",
"525 414 CURVE SMOOTH",
"525 439 OFFCURVE",
"505 442 OFFCURVE",
"483 450 CURVE SMOOTH",
"468 456 OFFCURVE",
"439 473 OFFCURVE",
"427 490 CURVE SMOOTH",
"420 500 OFFCURVE",
"411 493 OFFCURVE",
"416 482 CURVE SMOOTH",
"420 473 OFFCURVE",
"445 447 OFFCURVE",
"445 439 CURVE SMOOTH",
"445 433 OFFCURVE",
"439 430 OFFCURVE",
"425 424 CURVE SMOOTH",
"390 410 OFFCURVE",
"319 391 OFFCURVE",
"290 391 CURVE SMOOTH",
"261 391 OFFCURVE",
"253 395 OFFCURVE",
"232 402 CURVE SMOOTH",
"199 413 OFFCURVE",
"196 406 OFFCURVE",
"215 378 CURVE SMOOTH",
"238 345 OFFCURVE",
"256 315 OFFCURVE",
"303 315 CURVE SMOOTH"
);
},
{
closed = 1;
nodes = (
"836 343 OFFCURVE",
"856 356 OFFCURVE",
"856 381 CURVE SMOOTH",
"856 427 OFFCURVE",
"790 488 OFFCURVE",
"712 488 CURVE SMOOTH",
"684 488 OFFCURVE",
"655 479 OFFCURVE",
"627 457 CURVE SMOOTH",
"602 437 OFFCURVE",
"608 425 OFFCURVE",
"638 434 CURVE SMOOTH",
"676 448 OFFCURVE",
"732 429 OFFCURVE",
"732 397 CURVE SMOOTH",
"732 384 OFFCURVE",
"724 370 OFFCURVE",
"716 362 CURVE SMOOTH",
"695 340 OFFCURVE",
"701 336 OFFCURVE",
"732 348 CURVE SMOOTH",
"770 363 OFFCURVE",
"790 343 OFFCURVE",
"815 343 CURVE SMOOTH"
);
}
);
width = 1000;
}
);
unicode = 3049;
},
{
glyphname = "ka-hira";
lastChange = "2020-05-02 21:21:50 +0000";
layers = (
{
anchors = (
{
name = LSB;
position = "{31, 380}";
},
{
name = RSB;
position = "{1040, 380}";
}
);
layerId = "BE1754C0-A605-45AC-AA12-D3A1FC0C380B";
paths = (
{
closed = 1;
nodes = (
"608 112 OFFCURVE",
"653 384 OFFCURVE",
"653 448 CURVE SMOOTH",
"653 535 OFFCURVE",
"614 577 OFFCURVE",
"530 577 CURVE SMOOTH",
"436 577 OFFCURVE",
"308 537 OFFCURVE",
"235 537 CURVE SMOOTH",
"193 537 OFFCURVE",
"167 539 OFFCURVE",
"144 566 CURVE SMOOTH",
"127 584 OFFCURVE",
"118 589 OFFCURVE",
"116 551 CURVE SMOOTH",
"113 496 OFFCURVE",
"139 460 OFFCURVE",
"192 445 CURVE SMOOTH",
"248 428 OFFCURVE",
"424 486 OFFCURVE",
"455 495 CURVE SMOOTH",
"510 508 OFFCURVE",
"562 519 OFFCURVE",
"565 450 CURVE SMOOTH",
"569 354 OFFCURVE",
"489 120 OFFCURVE",
"416 120 CURVE SMOOTH",
"391 120 OFFCURVE",
"369 143 OFFCURVE",
"345 169 CURVE SMOOTH",
"328 187 OFFCURVE",
"321 191 OFFCURVE",
"316 188 CURVE SMOOTH",
"313 186 OFFCURVE",
"314 178 OFFCURVE",
"323 164 CURVE SMOOTH",
"345 130 OFFCURVE",
"356 97 OFFCURVE",
"363 68 CURVE SMOOTH",
"372 31 OFFCURVE",
"379 5 OFFCURVE",
"414 5 CURVE SMOOTH",
"432 5 OFFCURVE",
"451 13 OFFCURVE",
"461 20 CURVE SMOOTH"
);
},
{
closed = 1;
nodes = (
"186 59 OFFCURVE",
"236 134 OFFCURVE",
"286 226 CURVE SMOOTH",
"356 353 OFFCURVE",
"424 521 OFFCURVE",
"441 603 CURVE SMOOTH",
"451 649 OFFCURVE",
"482 658 OFFCURVE",
"470 700 CURVE SMOOTH",
"454 755 OFFCURVE",
"376 774 OFFCURVE",
"347 776 CURVE SMOOTH",
"317 779 OFFCURVE",
"309 769 OFFCURVE",
"324 750 CURVE SMOOTH",
"351 719 OFFCURVE",
"362 689 OFFCURVE",
"353 632 CURVE SMOOTH",
"319 408 OFFCURVE",
"201 258 OFFCURVE",
"153 206 CURVE SMOOTH",
"123 172 OFFCURVE",
"101 147 OFFCURVE",
"101 103 CURVE SMOOTH",
"101 76 OFFCURVE",
"116 59 OFFCURVE",
"142 59 CURVE SMOOTH"
);
},
{
closed = 1;
nodes = (
"867 308 OFFCURVE",
"841 276 OFFCURVE",
"897 276 CURVE SMOOTH",
"938 276 OFFCURVE",
"970 318 OFFCURVE",
"970 371 CURVE SMOOTH",
"970 472 OFFCURVE",
"853 551 OFFCURVE",
"750 561 CURVE SMOOTH",
"724 564 OFFCURVE",
"711 564 OFFCURVE",
"711 559 CURVE SMOOTH",
"711 554 OFFCURVE",
"723 550 OFFCURVE",
"745 541 CURVE SMOOTH",
"806 516 OFFCURVE",
"855 460 OFFCURVE",
"855 413 CURVE SMOOTH",
"855 361 OFFCURVE",
"801 360 OFFCURVE",
"754 360 CURVE SMOOTH",
"738 360 OFFCURVE",
"729 358 OFFCURVE",
"729 354 CURVE SMOOTH",
"729 350 OFFCURVE",
"733 348 OFFCURVE",
"741 346 CURVE SMOOTH",
"771 340 OFFCURVE",
"790 337 OFFCURVE",
"821 325 CURVE SMOOTH"
);
}
);
width = 1000;
}
);
unicode = 304B;
},
{
glyphname = "kasmall-hira";
lastChange = "2020-05-02 21:21:40 +0000";
layers = (
{
anchors = (
{
name = LSB;
position = "{131, 380}";
},
{
name = RSB;
position = "{962, 380}";
}
);
layerId = "BE1754C0-A605-45AC-AA12-D3A1FC0C380B";
paths = (
{
closed = 1;
nodes = (
"600 62 OFFCURVE",
"641 268 OFFCURVE",
"641 319 CURVE SMOOTH",
"641 390 OFFCURVE",
"609 423 OFFCURVE",
"542 423 CURVE SMOOTH",
"503 423 OFFCURVE",
"456 414 OFFCURVE",
"412 406 CURVE SMOOTH",
"373 399 OFFCURVE",
"336 391 OFFCURVE",
"309 391 CURVE SMOOTH",
"276 391 OFFCURVE",
"256 393 OFFCURVE",
"238 413 CURVE SMOOTH",
"225 428 OFFCURVE",
"215 433 OFFCURVE",
"213 400 CURVE SMOOTH",
"210 355 OFFCURVE",
"232 326 OFFCURVE",
"274 315 CURVE SMOOTH",
"320 303 OFFCURVE",
"459 347 OFFCURVE",
"483 354 CURVE SMOOTH",
"525 366 OFFCURVE",
"565 373 OFFCURVE",
"568 321 CURVE SMOOTH",
"572 245 OFFCURVE",
"509 62 OFFCURVE",
"452 62 CURVE SMOOTH",
"433 62 OFFCURVE",
"415 78 OFFCURVE",
"397 100 CURVE SMOOTH",
"386 113 OFFCURVE",
"378 119 OFFCURVE",
"372 116 CURVE",
"368 112 OFFCURVE",
"371 104 OFFCURVE",
"377 94 CURVE SMOOTH",
"393 67 OFFCURVE",
"403 41 OFFCURVE",
"408 19 CURVE SMOOTH",
"415 -11 OFFCURVE",
"421 -33 OFFCURVE",
"451 -33 CURVE SMOOTH",
"465 -33 OFFCURVE",
"481 -27 OFFCURVE",
"489 -21 CURVE SMOOTH"
);
},
{
closed = 1;
nodes = (
"266 10 OFFCURVE",
"302 53 OFFCURVE",
"351 143 CURVE SMOOTH",
"406 244 OFFCURVE",
"462 373 OFFCURVE",
"474 441 CURVE SMOOTH",
"480 477 OFFCURVE",
"505 487 OFFCURVE",
"497 519 CURVE SMOOTH",
"486 564 OFFCURVE",
"420 579 OFFCURVE",
"398 580 CURVE SMOOTH",
"373 581 OFFCURVE",
"365 574 OFFCURVE",
"377 557 CURVE",
"400 531 OFFCURVE",
"407 507 OFFCURVE",
"400 464 CURVE SMOOTH",
"371 288 OFFCURVE",
"280 170 OFFCURVE",
"243 129 CURVE SMOOTH",
"219 102 OFFCURVE",
"201 82 OFFCURVE",
"201 46 CURVE SMOOTH",
"201 23 OFFCURVE",
"214 10 OFFCURVE",
"236 10 CURVE SMOOTH"
);
},
{
closed = 1;
nodes = (
"803 208 OFFCURVE",
"791 181 OFFCURVE",
"832 181 CURVE SMOOTH",
"865 181 OFFCURVE",
"892 215 OFFCURVE",
"892 258 CURVE SMOOTH",
"892 339 OFFCURVE",
"798 402 OFFCURVE",
"716 410 CURVE SMOOTH",
"695 412 OFFCURVE",
"683 414 OFFCURVE",
"683 407 CURVE SMOOTH",
"683 403 OFFCURVE",
"688 401 OFFCURVE",
"699 396 CURVE SMOOTH",
"736 379 OFFCURVE",
"797 339 OFFCURVE",
"797 291 CURVE SMOOTH",
"797 252 OFFCURVE",
"756 251 OFFCURVE",
"719 251 CURVE SMOOTH",
"705 251 OFFCURVE",
"697 250 OFFCURVE",
"697 245 CURVE SMOOTH",
"697 241 OFFCURVE",
"701 238 OFFCURVE",
"709 236 CURVE SMOOTH",
"733 230 OFFCURVE",
"747 229 OFFCURVE",
"771 220 CURVE SMOOTH"
);
}
);
width = 1000;
}
);
unicode = 3095;
},
{
glyphname = "ga-hira";
lastChange = "2020-04-23 12:33:24 +0000";
layers = (
{
anchors = (
{
name = LSB;
position = "{29, 380}";
},
{
name = RSB;
position = "{1049.391, 380}";
}
);
components = (
{
alignment = -1;
name = "ka-hira";
}
);
layerId = "BE1754C0-A605-45AC-AA12-D3A1FC0C380B";
paths = (
{
closed = 1;
nodes = (
"842 588 OFFCURVE",
"862 588 CURVE SMOOTH",
"878 588 OFFCURVE",
"894 600.006 OFFCURVE",
"894 623 CURVE SMOOTH",
"894 686 OFFCURVE",
"808 721 OFFCURVE",
"730 721 CURVE SMOOTH",
"722 721 OFFCURVE",
"701 721 OFFCURVE",
"701 716 CURVE SMOOTH",
"701 715 OFFCURVE",
"704 712 OFFCURVE",
"710 709 CURVE SMOOTH",
"757 683 OFFCURVE",
"789 658 OFFCURVE",
"819 619 CURVE SMOOTH",
"831 601 OFFCURVE"
);
},
{
closed = 1;
nodes = (
"960 681 OFFCURVE",
"979 693 OFFCURVE",
"979 716 CURVE SMOOTH",
"979 780 OFFCURVE",
"894 801 OFFCURVE",
"820 801 CURVE SMOOTH",
"807 801 OFFCURVE",
"780 801 OFFCURVE",
"780 796 CURVE SMOOTH",
"780 794 OFFCURVE",
"783 792 OFFCURVE",
"790 789 CURVE SMOOTH",
"828 770 OFFCURVE",
"871 744 OFFCURVE",
"903 709 CURVE SMOOTH",
"916 695 OFFCURVE",
"925 686 OFFCURVE",
"942 683 CURVE SMOOTH"
);
}
);
width = 1000;
}
);
unicode = 304C;
},
{
glyphname = "ki-hira";
lastChange = "2020-04-22 23:56:15 +0000";
layers = (
{
anchors = (
{
name = LSB;
position = "{152.511, 380}";
},
{
name = RSB;
position = "{868.295, 380}";
}
);
layerId = "BE1754C0-A605-45AC-AA12-D3A1FC0C380B";
paths = (
{
closed = 1;
nodes = (
"441 -38 OFFCURVE",
"539 -38 CURVE SMOOTH",
"608 -38 OFFCURVE",
"655 -21.006 OFFCURVE",
"655 12 CURVE SMOOTH",
"655 29 OFFCURVE",
"646 74 OFFCURVE",
"531 74 CURVE SMOOTH",
"506 74 OFFCURVE",
"491 72 OFFCURVE",
"478 72 CURVE SMOOTH",
"373 72 OFFCURVE",
"310 101 OFFCURVE",
"310 153 CURVE SMOOTH",
"310 227 OFFCURVE",
"405 244 OFFCURVE",
"457 244 CURVE SMOOTH",
"535 244 OFFCURVE",
"571 223 OFFCURVE",
"605 200 CURVE SMOOTH",
"659 164 OFFCURVE",
"689 149 OFFCURVE",
"720 149 CURVE SMOOTH",
"744 149 OFFCURVE",
"777 192 OFFCURVE",
"777 243 CURVE SMOOTH",
"777 327 OFFCURVE",
"588 547 OFFCURVE",
"490 720 CURVE SMOOTH",
"458 776 OFFCURVE",
"442 824 OFFCURVE",
"382 824 CURVE SMOOTH",
"350 824 OFFCURVE",
"312 811 OFFCURVE",
"294 797 CURVE SMOOTH",
"285 790 OFFCURVE",
"281 785 OFFCURVE",
"281 782 CURVE SMOOTH",
"281 777 OFFCURVE",
"290 776 OFFCURVE",
"301 775 CURVE SMOOTH",
"322 774 OFFCURVE",
"352 768 OFFCURVE",
"399 729 CURVE SMOOTH",
"485 658 OFFCURVE",
"641 331 OFFCURVE",
"657 297 CURVE SMOOTH",
"661 289 OFFCURVE",
"662 284 OFFCURVE",
"662 280 CURVE SMOOTH",
"662 257 OFFCURVE",
"576 294 OFFCURVE",
"472 294 CURVE SMOOTH",
"306 294 OFFCURVE",
"223 221 OFFCURVE",
"223 134 CURVE SMOOTH",
"223 -9 OFFCURVE"
);
},
{
closed = 1;
nodes = (
"312 381 OFFCURVE",
"451 381 CURVE SMOOTH",
"513 381 OFFCURVE",
"585 400 OFFCURVE",
"666 429 CURVE SMOOTH",
"768 463 OFFCURVE",
"799 514 OFFCURVE",
"799 546 CURVE SMOOTH",
"799 572 OFFCURVE",
"782 582 OFFCURVE",
"730 582 CURVE SMOOTH",
"664 582 OFFCURVE",
"672 570 OFFCURVE",
"562 592 CURVE",
"562 592 OFFCURVE",
"562 562 OFFCURVE",
"562 562 CURVE",
"584 553 OFFCURVE",
"615 548 OFFCURVE",
"647 545 CURVE SMOOTH",
"663 543 OFFCURVE",
"671 539 OFFCURVE",
"671 534 CURVE SMOOTH",
"671 529 OFFCURVE",
"665 524 OFFCURVE",
"652 518 CURVE SMOOTH",
"625 507 OFFCURVE",
"471 466 OFFCURVE",
"398 466 CURVE SMOOTH",
"326 466 OFFCURVE",
"268 510 OFFCURVE",
"250 523 CURVE SMOOTH",
"246 526 OFFCURVE",
"242 528 OFFCURVE",
"240 528 CURVE SMOOTH",
"238 528 OFFCURVE",
"237 526 OFFCURVE",
"237 523 CURVE SMOOTH",
"237 488 OFFCURVE"
);
},
{
closed = 1;
nodes = (
"344 573 OFFCURVE",
"416 573 CURVE SMOOTH",
"462 573 OFFCURVE",
"510 589 OFFCURVE",
"555 605 CURVE SMOOTH",
"593 618 OFFCURVE",
"612 637 OFFCURVE",
"612 658 CURVE SMOOTH",
"612 678 OFFCURVE",
"596 695 OFFCURVE",
"568 695 CURVE SMOOTH",
"521 695 OFFCURVE",
"440 650 OFFCURVE",
"392 650 CURVE SMOOTH",
"349 649 OFFCURVE",
"330 663 OFFCURVE",
"297 683 CURVE SMOOTH",
"285 691 OFFCURVE",
"277 695 OFFCURVE",
"273 695 CURVE SMOOTH",
"270 695 OFFCURVE",
"269 693 OFFCURVE",
"269 690 CURVE SMOOTH",
"269 686 OFFCURVE",
"271 678 OFFCURVE",
"276 668 CURVE SMOOTH",
"304 611 OFFCURVE"
);
}
);
width = 1000;
}
);
unicode = 304D;
},
{
glyphname = "gi-hira";
lastChange = "2020-04-23 12:32:43 +0000";
layers = (
{
anchors = (
{
name = LSB;
position = "{153, 380}";
},
{
name = RSB;
position = "{1009.593, 380}";
}
);
components = (
{
alignment = -1;
name = "ki-hira";
}
);
layerId = "BE1754C0-A605-45AC-AA12-D3A1FC0C380B";
paths = (
{
closed = 1;
nodes = (
"726 692 OFFCURVE",
"757 654 CURVE SMOOTH",
"774 634 OFFCURVE",
"787 618 OFFCURVE",
"809 618 CURVE SMOOTH",
"829 618 OFFCURVE",
"848 631 OFFCURVE",
"848 656 CURVE SMOOTH",
"848 719 OFFCURVE",
"736 754 OFFCURVE",
"659 743 CURVE SMOOTH",
"642 740 OFFCURVE",
"643 735 OFFCURVE",
"654 731 CURVE SMOOTH",
"702 711 OFFCURVE"
);
},
{
closed = 1;
nodes = (
"814 775 OFFCURVE",
"857 742 CURVE SMOOTH",
"874 728 OFFCURVE",
"887 717 OFFCURVE",
"903 717 CURVE SMOOTH",
"922 717 OFFCURVE",
"940 731 OFFCURVE",
"940 750 CURVE SMOOTH",
"940 807 OFFCURVE",
"830 838 OFFCURVE",
"753 820 CURVE SMOOTH",
"730 815 OFFCURVE",
"724 810 OFFCURVE",
"739 805 CURVE SMOOTH",
"791 789 OFFCURVE"
);
}
);
width = 1000;
}
);
unicode = 304E;
},
{
glyphname = "ku-hira";
lastChange = "2020-04-22 23:59:35 +0000";
layers = (
{
anchors = (
{
name = LSB;
position = "{222, 380}";
},
{
name = RSB;
position = "{699, 380}";
}
);
layerId = "BE1754C0-A605-45AC-AA12-D3A1FC0C380B";
paths = (
{
closed = 1;
nodes = (
"580 -54 OFFCURVE",
"626 -24 OFFCURVE",
"626 36 CURVE SMOOTH",
"626 130 OFFCURVE",
"490 284 OFFCURVE",
"404 357 CURVE SMOOTH",
"391 368 OFFCURVE",
"384 380 OFFCURVE",
"384 392 CURVE SMOOTH",
"384 401 OFFCURVE",
"388 411 OFFCURVE",
"397 420 CURVE SMOOTH",
"482 505 OFFCURVE",
"629 652 OFFCURVE",
"629 721 CURVE SMOOTH",
"629 774 OFFCURVE",
"553 809 OFFCURVE",
"490 809 CURVE SMOOTH",
"472 809 OFFCURVE",
"462 803 OFFCURVE",
"462 797 CURVE SMOOTH",
"462 793 OFFCURVE",
"465 790 OFFCURVE",
"470 787 CURVE SMOOTH",
"493 773 OFFCURVE",
"506 754 OFFCURVE",
"506 728 CURVE SMOOTH",
"506 682 OFFCURVE",
"430 593 OFFCURVE",
"315 437 CURVE SMOOTH",
"301 418 OFFCURVE",
"292 403 OFFCURVE",
"292 387 CURVE SMOOTH",
"292 369 OFFCURVE",
"303 349 OFFCURVE",
"329 321 CURVE SMOOTH",
"356 292 OFFCURVE",
"448 207 OFFCURVE",
"508 20 CURVE SMOOTH",
"522 -24 OFFCURVE",
"535 -54 OFFCURVE",
"559 -54 CURVE SMOOTH"
);
}
);
width = 1000;
}
);
unicode = 304F;
},
{
glyphname = "gu-hira";
lastChange = "2020-04-23 12:32:27 +0000";
layers = (
{
anchors = (
{
name = LSB;
position = "{222, 380}";
},
{
name = RSB;
position = "{1021.011, 380}";
}
);
components = (
{
alignment = -1;
name = "ku-hira";
}
);
layerId = "BE1754C0-A605-45AC-AA12-D3A1FC0C380B";
paths = (
{
closed = 1;
nodes = (
"718 546 OFFCURVE",
"741 511 CURVE SMOOTH",
"757 485 OFFCURVE",
"770 466 OFFCURVE",
"791 466 CURVE SMOOTH",
"807 466 OFFCURVE",
"822 479.005 OFFCURVE",
"822 505 CURVE SMOOTH",
"822 511 OFFCURVE",
"821 518 OFFCURVE",
"819 526 CURVE SMOOTH",
"802 586 OFFCURVE",
"714 611 OFFCURVE",
"661 618 CURVE SMOOTH",
"645 620 OFFCURVE",
"642 616 OFFCURVE",
"653 608 CURVE SMOOTH",
"692 580 OFFCURVE"
);
},
{
closed = 1;
nodes = (
"908 547 OFFCURVE",
"919 547 CURVE SMOOTH",
"936 547 OFFCURVE",
"951 558 OFFCURVE",
"951 581 CURVE SMOOTH",
"951 652 OFFCURVE",
"851 685 OFFCURVE",
"777 682 CURVE SMOOTH",
"762 681 OFFCURVE",
"758 678 OFFCURVE",
"771 671 CURVE SMOOTH",
"829 640 OFFCURVE",
"848 611 OFFCURVE",
"889 562 CURVE SMOOTH",
"899 551 OFFCURVE"
);
}
);
width = 1000;
}
);
unicode = 3050;
},
{
glyphname = "ke-hira";
lastChange = "2020-04-23 00:17:28 +0000";
layers = (
{
anchors = (
{
name = LSB;
position = "{97.237, 380}";
},
{
name = RSB;
position = "{953.636, 380}";
}
);
layerId = "BE1754C0-A605-45AC-AA12-D3A1FC0C380B";
paths = (
{
closed = 1;
nodes = (
"545 -35 OFFCURVE",
"727 26 OFFCURVE",
"751 217 CURVE SMOOTH",
"774 409 OFFCURVE",
"739 474 OFFCURVE",
"748 647 CURVE SMOOTH",
"751 697 OFFCURVE",
"770 707 OFFCURVE",
"760 734 CURVE SMOOTH",
"751 762 OFFCURVE",
"694 793 OFFCURVE",
"617 782 CURVE SMOOTH",
"584 777 OFFCURVE",
"575 770 OFFCURVE",
"591 761 CURVE SMOOTH",
"606 753 OFFCURVE",
"640 729 OFFCURVE",
"648 688 CURVE SMOOTH",
"657 647 OFFCURVE",
"680 323 OFFCURVE",
"656 198 CURVE SMOOTH",
"631 67 OFFCURVE",
"534 -17 OFFCURVE",
"503 -36 CURVE SMOOTH",
"483 -48 OFFCURVE",
"489 -52 OFFCURVE",
"514 -44 CURVE SMOOTH"
);
},
{
closed = 1;
nodes = (
"316 -11 OFFCURVE",
"341 2 OFFCURVE",
"341 33 CURVE SMOOTH",
"341 67 OFFCURVE",
"322 97 OFFCURVE",
"314 131 CURVE SMOOTH",
"300 195 OFFCURVE",
"336 303 OFFCURVE",
"390 431 CURVE SMOOTH",
"406 466 OFFCURVE",
"400 467 OFFCURVE",
"379 439 CURVE SMOOTH",
"344 387 OFFCURVE",
"293 300 OFFCURVE",
"268 248 CURVE SMOOTH",
"258 227 OFFCURVE",
"241 241 OFFCURVE",
"244 288 CURVE SMOOTH",
"253 432 OFFCURVE",
"326 550 OFFCURVE",
"319 629 CURVE SMOOTH",
"311 708 OFFCURVE",
"233 743 OFFCURVE",
"190 761 CURVE SMOOTH",
"165 772 OFFCURVE",
"165 767 OFFCURVE",
"182 746 CURVE SMOOTH",
"204 719 OFFCURVE",
"213 675 OFFCURVE",
"207 607 CURVE SMOOTH",
"203 545 OFFCURVE",
"150 385 OFFCURVE",
"173 211 CURVE SMOOTH",
"192 63 OFFCURVE",
"247 -11 OFFCURVE",
"296 -11 CURVE SMOOTH"
);
},
{
closed = 1;
nodes = (
"670 471 OFFCURVE",
"790 528 OFFCURVE",
"838 546 CURVE SMOOTH",
"873 559 OFFCURVE",
"884 579 OFFCURVE",
"884 599 CURVE SMOOTH",
"884 608 OFFCURVE",
"881 616 OFFCURVE",
"878 623 CURVE SMOOTH",
"869 643 OFFCURVE",
"856 643 OFFCURVE",
"838 644 CURVE SMOOTH",
"825 645 OFFCURVE",
"809 646 OFFCURVE",
"791 654 CURVE SMOOTH",
"774 663 OFFCURVE",
"749 690 OFFCURVE",
"743 698 CURVE",
"727 680 LINE",
"738 670 OFFCURVE",
"768 638 OFFCURVE",
"786 623 CURVE SMOOTH",
"796 615 OFFCURVE",
"795 610 OFFCURVE",
"783 604 CURVE SMOOTH",
"769 597 OFFCURVE",
"690 571 OFFCURVE",
"642 559 CURVE SMOOTH",
"592 547 OFFCURVE",
"548 546 OFFCURVE",
"507 559 CURVE SMOOTH",
"481 567 OFFCURVE",
"480 561 OFFCURVE",
"501 539 CURVE SMOOTH",
"526 514 OFFCURVE",
"570 487 OFFCURVE",
"615 480 CURVE SMOOTH"
);
}
);
width = 1000;
}
);
unicode = 3051;
},
{
glyphname = "ge-hira";
lastChange = "2020-04-23 12:31:46 +0000";
layers = (
{
anchors = (
{
name = LSB;
position = "{96.869, 380}";
},
{
name = RSB;
position = "{1068.124, 380}";
}
);
components = (
{
alignment = -1;
name = "ke-hira";
}
);
layerId = "BE1754C0-A605-45AC-AA12-D3A1FC0C380B";
paths = (
{
closed = 1;
nodes = (
"886 653 OFFCURVE",
"919 667 OFFCURVE",
"907 714 CURVE SMOOTH",
"891 769 OFFCURVE",
"806 796 OFFCURVE",
"759 801 CURVE SMOOTH",
"742 802 OFFCURVE",
"738 799 OFFCURVE",
"753 790 CURVE SMOOTH",
"787 768 OFFCURVE",
"824 724 OFFCURVE",
"843 690 CURVE SMOOTH",
"850 676 OFFCURVE",
"855 667 OFFCURVE",
"868 662 CURVE SMOOTH"
);
},
{
closed = 1;
nodes = (
"981 728 OFFCURVE",
"1010 747 OFFCURVE",
"993 793 CURVE SMOOTH",
"972 845 OFFCURVE",
"872 866 OFFCURVE",
"825 860 CURVE SMOOTH",
"820 859 OFFCURVE",
"820 858 OFFCURVE",
"832 851 CURVE SMOOTH",
"862 830 OFFCURVE",
"907 793 OFFCURVE",
"931 761 CURVE SMOOTH",
"941 749 OFFCURVE",
"948 740 OFFCURVE",
"960 736 CURVE SMOOTH"
);
}
);
width = 1000;
}
);
unicode = 3052;
},
{
glyphname = "kesmall-hira";
lastChange = "2020-04-23 00:18:03 +0000";
layers = (
{
anchors = (
{
name = LSB;
position = "{172.532, 380}";
},
{
name = RSB;
position = "{877.32, 380}";
}
);
layerId = "BE1754C0-A605-45AC-AA12-D3A1FC0C380B";
paths = (
{
closed = 1;
nodes = (
"541 -42 OFFCURVE",
"686 5 OFFCURVE",
"706 157 CURVE SMOOTH",
"717 242 OFFCURVE",
"712 296 OFFCURVE",
"707 351 CURVE SMOOTH",
"703 393 OFFCURVE",
"701 437 OFFCURVE",
"703 496 CURVE SMOOTH",
"704 523 OFFCURVE",
"721 548 OFFCURVE",
"713 566 CURVE SMOOTH",
"704 587 OFFCURVE",
"659 613 OFFCURVE",
"598 605 CURVE SMOOTH",
"569 601 OFFCURVE",
"562 593 OFFCURVE",
"576 584 CURVE SMOOTH",
"587 577 OFFCURVE",
"614 560 OFFCURVE",
"620 529 CURVE SMOOTH",
"626 496 OFFCURVE",
"646 240 OFFCURVE",
"627 142 CURVE SMOOTH",
"607 39 OFFCURVE",
"531 -26 OFFCURVE",
"507 -41 CURVE SMOOTH",
"489 -52 OFFCURVE",
"495 -59 OFFCURVE",
"517 -51 CURVE SMOOTH"
);
},
{
closed = 1;
nodes = (
"267 408 OFFCURVE",
"228 279 OFFCURVE"
);
},
{
closed = 1;
nodes = (
"648 353 OFFCURVE",
"744 405 OFFCURVE",
"773 415 CURVE SMOOTH",
"799 424 OFFCURVE",
"811 439 OFFCURVE",
"811 459 CURVE SMOOTH",
"811 466 OFFCURVE",
"808 473 OFFCURVE",
"806 478 CURVE SMOOTH",
"799 495 OFFCURVE",
"787 495 OFFCURVE",
"772 496 CURVE SMOOTH",
"762 497 OFFCURVE",
"749 498 OFFCURVE",
"736 504 CURVE SMOOTH",
"723 510 OFFCURVE",
"704 531 OFFCURVE",
"699 538 CURVE",
"682 522 LINE",
"730 475 LINE SMOOTH",
"735 470 OFFCURVE",
"736 468 OFFCURVE",
"728 464 CURVE SMOOTH",
"717 459 OFFCURVE",
"654 438 OFFCURVE",
"618 429 CURVE SMOOTH",
"577 419 OFFCURVE",
"543 419 OFFCURVE",
"512 428 CURVE SMOOTH",
"489 435 OFFCURVE",
"486 431 OFFCURVE",
"505 412 CURVE SMOOTH",
"526 391 OFFCURVE",
"560 368 OFFCURVE",
"596 362 CURVE SMOOTH"
);
},
{
closed = 1;
nodes = (
"359 -25 OFFCURVE",
"381 -14 OFFCURVE",
"381 11 CURVE SMOOTH",
"381 35 OFFCURVE",
"365 64 OFFCURVE",
"360 89 CURVE SMOOTH",
"350 139 OFFCURVE",
"378 224 OFFCURVE",
"420 325 CURVE SMOOTH",
"432 354 OFFCURVE",
"426 359 OFFCURVE",
"407 333 CURVE SMOOTH",
"378 293 OFFCURVE",
"339 223 OFFCURVE",
"319 182 CURVE SMOOTH",
"311 166 OFFCURVE",
"302 183 OFFCURVE",
"304 213 CURVE SMOOTH",
"308 272 OFFCURVE",
"325 325 OFFCURVE",
"340 371 CURVE SMOOTH",
"354 414 OFFCURVE",
"366 452 OFFCURVE",
"363 482 CURVE SMOOTH",
"357 546 OFFCURVE",
"295 574 OFFCURVE",
"261 589 CURVE SMOOTH",
"240 598 OFFCURVE",
"236 592 OFFCURVE",
"251 574 CURVE SMOOTH",
"269 552 OFFCURVE",
"275 518 OFFCURVE",
"271 465 CURVE SMOOTH",
"267 408 OFFCURVE",
"228 279 OFFCURVE",
"244 152 CURVE SMOOTH",
"259 34 OFFCURVE",
"304 -25 OFFCURVE",
"343 -25 CURVE SMOOTH"
);
}
);
width = 1000;
}
);
unicode = 3096;
},
{
glyphname = "ko-hira";
lastChange = "2020-04-23 12:11:32 +0000";
layers = (
{
anchors = (
{
name = LSB;
position = "{117.272, 380}";
},
{
name = RSB;
position = "{890.018, 380}";
}
);
layerId = "BE1754C0-A605-45AC-AA12-D3A1FC0C380B";
paths = (
{
closed = 1;
nodes = (
"820 22 OFFCURVE",
"820 99 CURVE SMOOTH",
"820 129 OFFCURVE",
"793 153 OFFCURVE",
"738 153 CURVE SMOOTH",
"681 153 OFFCURVE",
"589 126 OFFCURVE",
"477 126 CURVE SMOOTH",
"372 126 OFFCURVE",
"243 146 OFFCURVE",
"243 251 CURVE SMOOTH",
"243 279 OFFCURVE",
"263 321 OFFCURVE",
"263 329 CURVE SMOOTH",
"263 332 OFFCURVE",
"262 333 OFFCURVE",
"260 333 CURVE SMOOTH",
"255 333 OFFCURVE",
"242 321 OFFCURVE",
"226 297 CURVE SMOOTH",
"199 258 OFFCURVE",
"187 222 OFFCURVE",
"187 189 CURVE SMOOTH",
"187 76 OFFCURVE",
"339 9 OFFCURVE",
"543 9 CURVE SMOOTH",
"615 9 OFFCURVE"
);
},
{
closed = 1;
nodes = (
"454 538 OFFCURVE",
"560 579 OFFCURVE",
"622 588 CURVE SMOOTH",
"691 597 OFFCURVE",
"712 588 OFFCURVE",
"712 633 CURVE SMOOTH",
"712 677 OFFCURVE",
"648 709 OFFCURVE",
"612 709 CURVE SMOOTH",
"582 709 OFFCURVE",
"543 696 OFFCURVE",
"481 696 CURVE SMOOTH",
"390 696 OFFCURVE",
"345 705 OFFCURVE",
"287 738 CURVE SMOOTH",
"279 743 OFFCURVE",
"272 746 OFFCURVE",
"267 746 CURVE SMOOTH",
"263 746 OFFCURVE",
"261 744 OFFCURVE",
"261 739 CURVE SMOOTH",
"261 733 OFFCURVE",
"264 725 OFFCURVE",
"271 712 CURVE SMOOTH",
"311 644 OFFCURVE",
"377 623 OFFCURVE",
"418 614 CURVE SMOOTH",
"432 611 OFFCURVE",
"454 609 OFFCURVE",
"454 598 CURVE SMOOTH",
"454 592 OFFCURVE",
"423 560 OFFCURVE",
"397 526 CURVE SMOOTH",
"388 514 OFFCURVE",
"385 506 OFFCURVE",
"385 501 CURVE SMOOTH",
"385 497 OFFCURVE",
"387 495 OFFCURVE",
"391 495 CURVE SMOOTH",
"395 495 OFFCURVE",
"400 497 OFFCURVE",
"405 501 CURVE SMOOTH"
);
}
);
width = 1000;
}
);
unicode = 3053;
},
{
glyphname = "go-hira";
lastChange = "2020-04-23 12:31:27 +0000";
layers = (
{
anchors = (
{
name = LSB;
position = "{117.272, 380}";
},
{
name = RSB;
position = "{1060.657, 380}";
}
);
components = (
{
alignment = -1;
name = "ko-hira";
}
);
layerId = "BE1754C0-A605-45AC-AA12-D3A1FC0C380B";
paths = (
{
closed = 1;
nodes = (
"827 422 OFFCURVE",
"849 422 CURVE SMOOTH",
"865 422 OFFCURVE",
"880 432 OFFCURVE",
"880 454 CURVE SMOOTH",
"880 522 OFFCURVE",
"788 553 OFFCURVE",
"707 553 CURVE SMOOTH",
"694 553 OFFCURVE",
"689 552 OFFCURVE",
"689 550 CURVE SMOOTH",
"689 548 OFFCURVE",
"692 545 OFFCURVE",
"698 542 CURVE SMOOTH",
"730 524 OFFCURVE",
"764 498 OFFCURVE",
"803 450 CURVE SMOOTH",
"816 434 OFFCURVE"
);
},
{
closed = 1;
nodes = (
"945 518 OFFCURVE",
"959 518 CURVE SMOOTH",
"970 518 OFFCURVE",
"991 528 OFFCURVE",
"991 551 CURVE SMOOTH",
"991 607 OFFCURVE",
"914 641 OFFCURVE",
"837 641 CURVE SMOOTH",
"828 641 OFFCURVE",
"792 640 OFFCURVE",
"792 634 CURVE SMOOTH",
"792 632 OFFCURVE",
"795 630 OFFCURVE",
"801 627 CURVE SMOOTH",
"838 611 OFFCURVE",
"883 581 OFFCURVE",
"915 545 CURVE SMOOTH",
"930 528 OFFCURVE"
);
}
);
width = 1000;
}
);
unicode = 3054;
},
{
glyphname = "sa-hira";
lastChange = "2020-04-23 12:15:53 +0000";
layers = (
{
anchors = (
{
name = LSB;
position = "{91.801, 380}";
},
{
name = RSB;
position = "{877.259, 380}";
}
);
layerId = "BE1754C0-A605-45AC-AA12-D3A1FC0C380B";
paths = (
{
closed = 1;
nodes = (
"376 -15 OFFCURVE",
"509 -15 CURVE SMOOTH",
"571 -15 OFFCURVE",
"625 -4 OFFCURVE",
"626 35 CURVE SMOOTH",
"628 106 OFFCURVE",
"521 101 OFFCURVE",
"461 101 CURVE SMOOTH",
"364 101 OFFCURVE",
"293 139 OFFCURVE",
"293 191 CURVE SMOOTH",
"293 221 OFFCURVE",
"329 292 OFFCURVE",
"437 284 CURVE SMOOTH",
"516 278 OFFCURVE",
"606 242 OFFCURVE",
"663 200 CURVE SMOOTH",
"682 187 OFFCURVE",
"703 181 OFFCURVE",
"724 181 CURVE SMOOTH",
"778 181 OFFCURVE",
"807 226 OFFCURVE",
"807 273 CURVE SMOOTH",
"807 394 OFFCURVE",
"505 636 OFFCURVE",
"404 695 CURVE",
"393 703 OFFCURVE",
"389 711 OFFCURVE",
"389 718 CURVE SMOOTH",
"389 727 OFFCURVE",
"396 734 OFFCURVE",
"404 732 CURVE SMOOTH",
"417 729 OFFCURVE",
"495 690 OFFCURVE",
"526 679 CURVE SMOOTH",
"536 676 OFFCURVE",
"540 669 OFFCURVE",
"540 661 CURVE SMOOTH",
"540 651 OFFCURVE",
"535 640 OFFCURVE",
"518 631 CURVE SMOOTH",
"490 616 OFFCURVE",
"364 566 OFFCURVE",
"318 566 CURVE SMOOTH",
"267 566 OFFCURVE",
"215 586 OFFCURVE",
"181 620 CURVE SMOOTH",
"176 625 OFFCURVE",
"172 627 OFFCURVE",
"169 627 CURVE SMOOTH",
"165 627 OFFCURVE",
"162 623 OFFCURVE",
"162 617 CURVE SMOOTH",
"162 579 OFFCURVE",
"231 489 OFFCURVE",
"342 489 CURVE SMOOTH",
"477 489 OFFCURVE",
"673 604 OFFCURVE",
"673 673 CURVE SMOOTH",
"673 699 OFFCURVE",
"652 722 OFFCURVE",
"614 722 CURVE SMOOTH",
"586 722 OFFCURVE",
"554 713 OFFCURVE",
"529 713 CURVE SMOOTH",
"458 713 OFFCURVE",
"426 777 OFFCURVE",
"371 777 CURVE SMOOTH",
"332 777 OFFCURVE",
"293 738 OFFCURVE",
"293 710 CURVE SMOOTH",
"293 677 OFFCURVE",
"344 642 OFFCURVE",
"411 606 CURVE SMOOTH",
"530 541 OFFCURVE",
"657 379 OFFCURVE",
"676 344 CURVE SMOOTH",
"681 335 OFFCURVE",
"684 327 OFFCURVE",
"684 320 CURVE SMOOTH",
"684 313 OFFCURVE",
"679 308 OFFCURVE",
"668 308 CURVE SMOOTH",
"640 308 OFFCURVE",
"587 345 OFFCURVE",
"428 342 CURVE SMOOTH",
"303 341 OFFCURVE",
"199 276 OFFCURVE",
"199 184 CURVE SMOOTH",
"199 46 OFFCURVE"
);
}
);
width = 1000;
}
);
unicode = 3055;
},
{
glyphname = "za-hira";
lastChange = "2020-04-23 12:30:33 +0000";
layers = (
{
anchors = (
{
name = LSB;
position = "{91.801, 380}";
},
{
name = RSB;
position = "{1015.33, 380}";
}
);
components = (
{
alignment = -1;
name = "sa-hira";
}
);
layerId = "BE1754C0-A605-45AC-AA12-D3A1FC0C380B";
paths = (
{
closed = 1;
nodes = (
"800 616 OFFCURVE",
"823 616 CURVE SMOOTH",
"838 616 OFFCURVE",
"851 627 OFFCURVE",
"851 650 CURVE SMOOTH",
"851 719 OFFCURVE",
"759 759 OFFCURVE",
"695 763 CURVE SMOOTH",
"687 763 OFFCURVE",
"683 762 OFFCURVE",
"683 760 CURVE SMOOTH",
"683 758 OFFCURVE",
"685 755 OFFCURVE",
"690 751 CURVE SMOOTH",
"722 727 OFFCURVE",
"759 689 OFFCURVE",
"780 650 CURVE SMOOTH",
"790 632 OFFCURVE"
);
},
{
closed = 1;
nodes = (
"897 693 OFFCURVE",
"916 693 CURVE SMOOTH",
"932 693 OFFCURVE",
"945 704 OFFCURVE",
"945 724 CURVE SMOOTH",
"945 783 OFFCURVE",
"857 825 OFFCURVE",
"782 825 CURVE SMOOTH",
"770 825 OFFCURVE",
"763 824 OFFCURVE",
"763 821 CURVE SMOOTH",
"763 819 OFFCURVE",
"766 817 OFFCURVE",
"771 814 CURVE SMOOTH",
"805 792 OFFCURVE",
"843 762 OFFCURVE",
"870 725 CURVE SMOOTH",
"881 709 OFFCURVE"
);
}
);
width = 1000;
}
);
unicode = 3056;
},
{
glyphname = "si-hira";
lastChange = "2020-04-23 12:19:16 +0000";
layers = (
{
anchors = (
{
name = LSB;
position = "{153.574, 380}";
},
{
name = RSB;
position = "{946.669, 380}";
}
);
layerId = "BE1754C0-A605-45AC-AA12-D3A1FC0C380B";
paths = (
{
closed = 1;
nodes = (
"362 -26 OFFCURVE",
"489 -26 CURVE SMOOTH",
"666 -26 OFFCURVE",
"827 150 OFFCURVE",
"868 227 CURVE SMOOTH",
"874 239 OFFCURVE",
"877 248 OFFCURVE",
"877 253 CURVE SMOOTH",
"877 256 OFFCURVE",
"876 257 OFFCURVE",
"874 257 CURVE SMOOTH",
"870 257 OFFCURVE",
"866 254 OFFCURVE",
"854 241 CURVE",
"745 123 OFFCURVE",
"608 71 OFFCURVE",
"508 71 CURVE SMOOTH",
"379 71 OFFCURVE",
"349 143 OFFCURVE",
"349 286 CURVE SMOOTH",
"349 394 OFFCURVE",
"368 528 OFFCURVE",
"378 640 CURVE SMOOTH",
"381 674 OFFCURVE",
"386 677 OFFCURVE",
"386 703 CURVE SMOOTH",
"386 749 OFFCURVE",
"330 788 OFFCURVE",
"284 788 CURVE SMOOTH",
"261 788 OFFCURVE",
"224 779 OFFCURVE",
"224 767 CURVE SMOOTH",
"224 763 OFFCURVE",
"229 759 OFFCURVE",
"239 753 CURVE SMOOTH",
"266 737 OFFCURVE",
"272 679 OFFCURVE",
"272 594 CURVE SMOOTH",
"272 467 OFFCURVE",
"255 336 OFFCURVE",
"255 253 CURVE SMOOTH",
"255 42 OFFCURVE"
);
}
);
width = 1000;
}
);
unicode = 3057;
},
{
glyphname = "zi-hira";
lastChange = "2020-04-23 12:30:25 +0000";
layers = (
{
anchors = (
{
name = LSB;
position = "{153.651, 380}";
},
{
name = RSB;
position = "{947.16, 380}";
}
);
components = (
{
alignment = -1;
name = "si-hira";
}
);
layerId = "BE1754C0-A605-45AC-AA12-D3A1FC0C380B";
paths = (
{
closed = 1;
nodes = (
"654 550 OFFCURVE",
"671 550 CURVE SMOOTH",
"691 550 OFFCURVE",
"709 566 OFFCURVE",
"709 588 CURVE SMOOTH",
"709 639 OFFCURVE",
"633 675 OFFCURVE",
"558 675 CURVE SMOOTH",
"544 675 OFFCURVE",
"533 674 OFFCURVE",
"519 672 CURVE SMOOTH",
"510 671 OFFCURVE",
"506 668 OFFCURVE",
"506 666 CURVE SMOOTH",
"506 664 OFFCURVE",
"509 662 OFFCURVE",
"514 660 CURVE SMOOTH",
"556 646 OFFCURVE",
"591 621 OFFCURVE",
"623 582 CURVE SMOOTH",
"640 562 OFFCURVE"
);
},
{
closed = 1;
nodes = (
"755 654 OFFCURVE",
"772 654 CURVE SMOOTH",
"789 654 OFFCURVE",
"807 666 OFFCURVE",
"807 687 CURVE SMOOTH",
"807 737 OFFCURVE",
"727 774 OFFCURVE",
"652 774 CURVE SMOOTH",
"630 774 OFFCURVE",
"606 770 OFFCURVE",
"606 764 CURVE SMOOTH",
"606 762 OFFCURVE",
"608 761 OFFCURVE",
"613 759 CURVE SMOOTH",
"659 740 OFFCURVE",
"693 715 OFFCURVE",
"726 682 CURVE SMOOTH",
"745 662 OFFCURVE"
);
}
);
width = 1000;
}
);
unicode = 3058;
},
{
glyphname = "su-hira";
lastChange = "2020-04-23 12:27:48 +0000";
layers = (
{
anchors = (
{
name = LSB;
position = "{-5.598, 380}";
},
{
name = RSB;
position = "{984.013, 380}";
}
);
layerId = "BE1754C0-A605-45AC-AA12-D3A1FC0C380B";
paths = (
{
closed = 1;
nodes = (
"583 379 OFFCURVE",
"581 545 OFFCURVE",
"581 592 CURVE",
"581 659 OFFCURVE",
"583 688 OFFCURVE",
"593 718 CURVE",
"598 732 OFFCURVE",
"600 744 OFFCURVE",
"600 755 CURVE SMOOTH",
"600 835 OFFCURVE",
"478 841 OFFCURVE",
"464 841 CURVE SMOOTH",
"443 841 OFFCURVE",
"433 835 OFFCURVE",
"433 825 CURVE SMOOTH",
"433 818 OFFCURVE",
"438 809 OFFCURVE",
"449 800 CURVE",
"481 774 OFFCURVE",
"507 720 OFFCURVE",
"512 666 CURVE",
"515 640 OFFCURVE",
"516 605 OFFCURVE",
"516 569 CURVE SMOOTH",
"516 497 OFFCURVE",
"512 423 OFFCURVE",
"512 411 CURVE",
"581 354 LINE"
);
},
{
closed = 1;
nodes = (
"433 222 OFFCURVE",
"396 302 OFFCURVE",
"399 358 CURVE",
"402 398 OFFCURVE",
"449 427 OFFCURVE",
"473 421 CURVE",
"490 415 OFFCURVE",
"511 338 OFFCURVE",
"511 283 CURVE SMOOTH",
"511 253 OFFCURVE",
"505 230 OFFCURVE",
"488 228 CURVE"
);
},
{
closed = 1;
nodes = (
"530 50 OFFCURVE",
"372 -54 CURVE",
"358 -63 OFFCURVE",
"351 -70 OFFCURVE",
"351 -73 CURVE SMOOTH",
"351 -74 OFFCURVE",
"352 -75 OFFCURVE",
"354 -75 CURVE SMOOTH",
"359 -75 OFFCURVE",
"367 -72 OFFCURVE",
"379 -67 CURVE",
"422 -50 OFFCURVE",
"614 25 OFFCURVE",
"614 234 CURVE SMOOTH",
"614 325 OFFCURVE",
"578 477 OFFCURVE",
"481 477 CURVE SMOOTH",
"416 477 OFFCURVE",
"347 411 OFFCURVE",
"343 326 CURVE",
"340 258 OFFCURVE",
"392 148 OFFCURVE",
"461 148 CURVE SMOOTH",
"489 148 OFFCURVE",
"518 163 OFFCURVE",
"535 188 CURVE",
"522 200 LINE",
"523 183 OFFCURVE"
);
},
{
closed = 1;
nodes = (
"155 469 OFFCURVE",
"215 469 CURVE SMOOTH",
"265 469 OFFCURVE",
"273 484 OFFCURVE",
"320 501 CURVE",
"438 547 OFFCURVE",
"542 566 OFFCURVE",
"649 566 CURVE SMOOTH",
"702 566 OFFCURVE",
"756 561 OFFCURVE",
"812 553 CURVE",
"832 550 OFFCURVE",
"853 546 OFFCURVE",
"871 546 CURVE SMOOTH",
"896 546 OFFCURVE",
"915 554 OFFCURVE",
"914 587 CURVE",
"913 643 OFFCURVE",
"824 645 OFFCURVE",
"762 660 CURVE",
"730 668 OFFCURVE",
"637 694 OFFCURVE",
"573 759 CURVE",
"560 741 LINE",
"570 724 OFFCURVE",
"609 691 OFFCURVE",
"637 669 CURVE",
"651 659 OFFCURVE",
"665 653 OFFCURVE",
"665 647 CURVE SMOOTH",
"665 643 OFFCURVE",
"652 645 OFFCURVE",
"633 645 CURVE SMOOTH",
"535 645 OFFCURVE",
"269 586 OFFCURVE",
"230 579 CURVE",
"210 576 OFFCURVE",
"193 573 OFFCURVE",
"175 573 CURVE SMOOTH",
"139 573 OFFCURVE",
"103 590 OFFCURVE",
"73 590 CURVE SMOOTH",
"67 590 OFFCURVE",
"64 588 OFFCURVE",
"64 584 CURVE SMOOTH",
"64 579 OFFCURVE",
"69 571 OFFCURVE",
"79 559 CURVE",
"121 508 OFFCURVE"
);
}
);
width = 1000;
}
);
unicode = 3059;
},
{
glyphname = "zu-hira";
lastChange = "2020-04-23 12:30:16 +0000";
layers = (
{
anchors = (
{
name = LSB;
position = "{-5.598, 380}";
},
{
name = RSB;
position = "{1069.33, 380}";
}
);
components = (
{
alignment = -1;
name = "su-hira";
}
);
layerId = "BE1754C0-A605-45AC-AA12-D3A1FC0C380B";
paths = (
{
closed = 1;
nodes = (
"891 662 OFFCURVE",
"905 672 OFFCURVE",
"905 692 CURVE SMOOTH",
"905 756 OFFCURVE",
"816 789 OFFCURVE",
"747 789 CURVE SMOOTH",
"736 789 OFFCURVE",
"730 789 OFFCURVE",
"730 786 CURVE SMOOTH",
"730 784 OFFCURVE",
"733 782 OFFCURVE",
"739 778 CURVE SMOOTH",
"785 748 OFFCURVE",
"806 732 OFFCURVE",
"838 689 CURVE SMOOTH",
"849 672 OFFCURVE",
"857 662 OFFCURVE",
"875 662 CURVE SMOOTH"
);
},
{
closed = 1;
nodes = (
"952 733 OFFCURVE",
"969 733 CURVE SMOOTH",
"985 733 OFFCURVE",
"999 743 OFFCURVE",
"999 762 CURVE SMOOTH",
"999 817 OFFCURVE",
"924 845 OFFCURVE",
"851 845 CURVE SMOOTH",
"835 845 OFFCURVE",
"816 844 OFFCURVE",
"816 839 CURVE SMOOTH",
"816 838 OFFCURVE",
"817 836 OFFCURVE",
"822 834 CURVE SMOOTH",
"867 814 OFFCURVE",
"907 784 OFFCURVE",
"930 756 CURVE SMOOTH",
"944 742 OFFCURVE"
);
}
);
width = 1000;
}
);
unicode = 305A;
},
{
glyphname = "se-hira";
lastChange = "2020-04-23 12:38:27 +0000";
layers = (
{
anchors = (
{
name = LSB;
position = "{-28.009, 380}";
},
{
name = RSB;
position = "{1010.701, 380}";
}
);
layerId = "BE1754C0-A605-45AC-AA12-D3A1FC0C380B";
paths = (
{
closed = 1;
nodes = (
"758 3 OFFCURVE",
"758 59 CURVE SMOOTH",
"758 87 OFFCURVE",
"723 114 OFFCURVE",
"685 114 CURVE SMOOTH",
"656 114 OFFCURVE",
"616 92 OFFCURVE",
"510 92 CURVE SMOOTH",
"386 92 OFFCURVE",
"375 130 OFFCURVE",
"366 244 CURVE SMOOTH",
"364 280 OFFCURVE",
"362 356 OFFCURVE",
"362 424 CURVE SMOOTH",
"362 484 OFFCURVE",
"362 529 OFFCURVE",
"368 555 CURVE SMOOTH",
"373 577 OFFCURVE",
"378 593 OFFCURVE",
"378 607 CURVE SMOOTH",
"378 625 OFFCURVE",
"370 638 OFFCURVE",
"347 651 CURVE SMOOTH",
"306 674 OFFCURVE",
"229 689 OFFCURVE",
"205 655 CURVE SMOOTH",
"194 641 OFFCURVE",
"247 651 OFFCURVE",
"268 594 CURVE SMOOTH",
"280 559 OFFCURVE",
"280 433 OFFCURVE",
"281 341 CURVE SMOOTH",
"287 79 OFFCURVE",
"296 -6 OFFCURVE",
"548 -6 CURVE SMOOTH",
"650 -6 OFFCURVE"
);
},
{
closed = 1;
nodes = (
"333 397 OFFCURVE",
"506 468 OFFCURVE",
"699 468 CURVE SMOOTH",
"770 468 OFFCURVE",
"848 450 OFFCURVE",
"893 450 CURVE SMOOTH",
"923 450 OFFCURVE",
"941 459 OFFCURVE",
"941 488 CURVE SMOOTH",
"941 546 OFFCURVE",
"894 551 OFFCURVE",
"830 560 CURVE SMOOTH",
"769 569 OFFCURVE",
"680 634 OFFCURVE",
"664 646 CURVE",
"648 625 LINE",
"680 607 OFFCURVE",
"710 584 OFFCURVE",
"736 562 CURVE SMOOTH",
"743 557 OFFCURVE",
"746 552 OFFCURVE",
"746 549 CURVE SMOOTH",
"746 542 OFFCURVE",
"740 538 OFFCURVE",
"725 538 CURVE SMOOTH",
"706 538 OFFCURVE",
"527 549 OFFCURVE",
"158 417 CURVE SMOOTH",
"147 413 OFFCURVE",
"136 411 OFFCURVE",
"127 411 CURVE SMOOTH",
"89 411 OFFCURVE",
"56 442 OFFCURVE",
"47 442 CURVE SMOOTH",
"44 442 OFFCURVE",
"42 440 OFFCURVE",
"42 435 CURVE SMOOTH",
"42 430 OFFCURVE",
"45 420 OFFCURVE",
"51 407 CURVE SMOOTH",
"87 337 OFFCURVE",
"126 315 OFFCURVE",
"163 315 CURVE SMOOTH",
"190 315 OFFCURVE",
"216 326 OFFCURVE",
"239 340 CURVE SMOOTH"
);
},
{
closed = 1;
nodes = (
"640 207 OFFCURVE",
"672 287 OFFCURVE",
"683 425 CURVE SMOOTH",
"689 507 OFFCURVE",
"690 604 OFFCURVE",
"700 639 CURVE SMOOTH",
"705 654 OFFCURVE",
"709 667 OFFCURVE",
"709 679 CURVE SMOOTH",
"709 716 OFFCURVE",
"649 760 OFFCURVE",
"605 760 CURVE SMOOTH",
"591 760 OFFCURVE",
"575 753 OFFCURVE",
"562 746 CURVE SMOOTH",
"547 738 OFFCURVE",
"541 731 OFFCURVE",
"541 727 CURVE SMOOTH",
"541 724 OFFCURVE",
"547 724 OFFCURVE",
"557 722 CURVE SMOOTH",
"605 712 OFFCURVE",
"607 656 OFFCURVE",
"607 613 CURVE SMOOTH",
"607 504 OFFCURVE",
"601 315 OFFCURVE",
"564 315 CURVE SMOOTH",
"538 315 OFFCURVE",
"481 363 OFFCURVE",
"471 363 CURVE SMOOTH",
"468 363 OFFCURVE",
"466 361 OFFCURVE",
"466 358 CURVE SMOOTH",
"466 356 OFFCURVE",
"468 352 OFFCURVE",
"471 349 CURVE SMOOTH",
"486 334 OFFCURVE",
"523 275 OFFCURVE",
"530 241 CURVE SMOOTH",
"536 211 OFFCURVE",
"557 207 OFFCURVE",
"580 207 CURVE SMOOTH"
);
}
);
width = 1000;
}
);
unicode = 305B;
},
{
glyphname = "ze-hira";
lastChange = "2020-04-23 12:40:12 +0000";
layers = (
{
anchors = (
{
name = LSB;
position = "{-28.009, 380}";
},
{
name = RSB;
position = "{1065.564, 380}";
}
);
components = (
{
alignment = -1;
name = "se-hira";
}
);
layerId = "BE1754C0-A605-45AC-AA12-D3A1FC0C380B";
paths = (
{
closed = 1;
nodes = (
"874 578 OFFCURVE",
"895 578 CURVE SMOOTH",
"911 578 OFFCURVE",
"926 589 OFFCURVE",
"926 612 CURVE SMOOTH",
"926 681 OFFCURVE",
"835 717 OFFCURVE",
"753 717 CURVE SMOOTH",
"744 717 OFFCURVE",
"740 716 OFFCURVE",
"740 714 CURVE SMOOTH",
"740 712 OFFCURVE",
"743 710 OFFCURVE",
"748 707 CURVE SMOOTH",
"783 684 OFFCURVE",
"823 648 OFFCURVE",
"851 608 CURVE SMOOTH",
"863 592 OFFCURVE"
);
},
{
closed = 1;
nodes = (
"981 688 OFFCURVE",
"996 697 OFFCURVE",
"996 718 CURVE SMOOTH",
"996 774 OFFCURVE",
"924 798 OFFCURVE",
"850 798 CURVE SMOOTH",
"843 798 OFFCURVE",
"810 798 OFFCURVE",
"810 792 CURVE SMOOTH",
"810 790 OFFCURVE",
"813 789 OFFCURVE",
"819 786 CURVE",
"856 766 OFFCURVE",
"896 745 OFFCURVE",
"928 710 CURVE SMOOTH",
"941 697 OFFCURVE",
"950 688 OFFCURVE",
"965 688 CURVE SMOOTH"
);
}
);
width = 1000;
}
);
unicode = 305C;
},
{
glyphname = "so-hira";
lastChange = "2020-04-23 12:44:04 +0000";
layers = (
{
anchors = (
{
name = LSB;
position = "{96.914, 380}";
},
{
name = RSB;
position = "{895.585, 380}";
}
);
layerId = "BE1754C0-A605-45AC-AA12-D3A1FC0C380B";
paths = (
{
closed = 1;
nodes = (
"713 -47 OFFCURVE",
"713 -13 CURVE SMOOTH",
"713 26 OFFCURVE",
"666 48 OFFCURVE",
"621 52 CURVE SMOOTH",
"564 56 OFFCURVE",
"430 60 OFFCURVE",
"435 189 CURVE SMOOTH",
"436 239 OFFCURVE",
"485 315 OFFCURVE",
"548 337 CURVE SMOOTH",
"621 363 OFFCURVE",
"685 374 OFFCURVE",
"749 372 CURVE SMOOTH",
"800 370 OFFCURVE",
"826 378 OFFCURVE",
"826 399 CURVE SMOOTH",
"826 439 OFFCURVE",
"767 477 OFFCURVE",
"710 477 CURVE SMOOTH",
"674 477 OFFCURVE",
"644 462 OFFCURVE",
"550 418 CURVE SMOOTH",
"470 380 OFFCURVE",
"344 337 OFFCURVE",
"325 327 CURVE SMOOTH",
"318 323 OFFCURVE",
"312 321 OFFCURVE",
"308 321 CURVE SMOOTH",
"304 321 OFFCURVE",
"302 323 OFFCURVE",
"302 327 CURVE SMOOTH",
"302 332 OFFCURVE",
"306 339 OFFCURVE",
"314 349 CURVE SMOOTH",
"335 374 OFFCURVE",
"554 589 OFFCURVE",
"594 619 CURVE SMOOTH",
"624 642 OFFCURVE",
"656 674 OFFCURVE",
"656 710 CURVE SMOOTH",
"656 750 OFFCURVE",
"595 819 OFFCURVE",
"541 819 CURVE SMOOTH",
"527 819 OFFCURVE",
"512 815 OFFCURVE",
"499 803 CURVE SMOOTH",
"479 786 OFFCURVE",
"387 746 OFFCURVE",
"362 746 CURVE SMOOTH",
"335 746 OFFCURVE",
"296 766 OFFCURVE",
"284 766 CURVE SMOOTH",
"273 766 OFFCURVE",
"270 759 OFFCURVE",
"272 739 CURVE SMOOTH",
"274 713 OFFCURVE",
"315 645 OFFCURVE",
"353 645 CURVE SMOOTH",
"390 645 OFFCURVE",
"470 713 OFFCURVE",
"513 730 CURVE SMOOTH",
"521 733 OFFCURVE",
"526 735 OFFCURVE",
"529 735 CURVE SMOOTH",
"533 735 OFFCURVE",
"535 734 OFFCURVE",
"535 730 CURVE SMOOTH",
"535 727 OFFCURVE",
"533 722 OFFCURVE",
"530 715 CURVE SMOOTH",
"497 649 OFFCURVE",
"366 457 OFFCURVE",
"264 380 CURVE SMOOTH",
"226 352 OFFCURVE",
"167 310 OFFCURVE",
"167 266 CURVE SMOOTH",
"167 236 OFFCURVE",
"205 187 OFFCURVE",
"247 187 CURVE SMOOTH",
"268 187 OFFCURVE",
"292 207 OFFCURVE",
"322 233 CURVE SMOOTH",
"371 275 OFFCURVE",
"426 316 OFFCURVE",
"500 338 CURVE",
"475 342 LINE",
"449 324 OFFCURVE",
"367 258 OFFCURVE",
"367 146 CURVE SMOOTH",
"367 70 OFFCURVE",
"415 7 OFFCURVE",
"502 -26 CURVE SMOOTH",
"534 -38 OFFCURVE",
"600 -57 OFFCURVE",
"650 -57 CURVE SMOOTH",
"689 -57 OFFCURVE"
);
}
);
width = 1000;
}
);
unicode = 305D;
},
{
glyphname = "zo-hira";
lastChange = "2020-04-23 12:45:38 +0000";
layers = (
{
anchors = (
{
name = LSB;
position = "{99.203, 380}";
},
{
name = RSB;
position = "{1037.863, 380}";
}
);
components = (
{
alignment = -1;
name = "so-hira";
}
);
layerId = "BE1754C0-A605-45AC-AA12-D3A1FC0C380B";
paths = (
{
closed = 1;
nodes = (
"824 590 OFFCURVE",
"842 590 CURVE SMOOTH",
"857 590 OFFCURVE",
"871 600 OFFCURVE",
"871 621 CURVE SMOOTH",
"871 694 OFFCURVE",
"770 718 OFFCURVE",
"716 725 CURVE SMOOTH",
"706 726 OFFCURVE",
"702 725 OFFCURVE",
"702 722 CURVE SMOOTH",
"702 720 OFFCURVE",
"704 718 OFFCURVE",
"708 715 CURVE SMOOTH",
"749 686 OFFCURVE",
"775 661 OFFCURVE",
"804 620 CURVE SMOOTH",
"813 604 OFFCURVE"
);
},
{
closed = 1;
nodes = (
"956 677 OFFCURVE",
"968 686 OFFCURVE",
"968 705 CURVE SMOOTH",
"968 769 OFFCURVE",
"886 796 OFFCURVE",
"813 796 CURVE SMOOTH",
"799 796 OFFCURVE",
"793 793 OFFCURVE",
"793 791 CURVE SMOOTH",
"793 789 OFFCURVE",
"795 788 OFFCURVE",
"801 785 CURVE SMOOTH",
"844 764 OFFCURVE",
"869 747 OFFCURVE",
"901 705 CURVE SMOOTH",
"914 689 OFFCURVE",
"923 677 OFFCURVE",
"942 677 CURVE SMOOTH"
);
}
);
width = 1000;
}
);
unicode = 305E;
},
